<?xml version="1.0" encoding="utf-8" standalone="no"?>
<!DOCTYPE svg PUBLIC "-//W3C//DTD SVG 1.1//EN"
  "http://www.w3.org/Graphics/SVG/1.1/DTD/svg11.dtd">
<svg xmlns:xlink="http://www.w3.org/1999/xlink" width="569.100156pt" height="317.982062pt" viewBox="0 0 569.100156 317.982062" xmlns="http://www.w3.org/2000/svg" version="1.1">
 <metadata>
  <rdf:RDF xmlns:dc="http://purl.org/dc/elements/1.1/" xmlns:cc="http://creativecommons.org/ns#" xmlns:rdf="http://www.w3.org/1999/02/22-rdf-syntax-ns#">
   <cc:Work>
    <dc:type rdf:resource="http://purl.org/dc/dcmitype/StillImage"/>
    <dc:date>2026-07-01T10:02:19.625015</dc:date>
    <dc:format>image/svg+xml</dc:format>
    <dc:creator>
     <cc:Agent>
      <dc:title>Matplotlib v3.10.9, https://matplotlib.org/</dc:title>
     </cc:Agent>
    </dc:creator>
   </cc:Work>
  </rdf:RDF>
 </metadata>
 <defs>
  <style type="text/css">*{stroke-linejoin: round; stroke-linecap: butt}</style>
 </defs>
 <g id="figure_1">
  <g id="patch_1">
   <path d="M 0 317.982062
L 569.100156 317.982062
L 569.100156 0
L 0 0
z
" style="fill: #ffffff"/>
  </g>
  <g id="axes_1">
   <g id="patch_2">
    <path d="M 44.172031 283.2305
L 434.606577 283.2305
L 434.606577 31.2025
L 44.172031 31.2025
z
" style="fill: #ffffff"/>
   </g>
   <g id="matplotlib.axis_1">
    <g id="xtick_1">
     <g id="line2d_1">
      <path d="M 136.395819 283.2305
L 136.395819 31.2025
" clip-path="url(#p0f1d65b013)" style="fill: none; stroke-dasharray: 0.8,1.32; stroke-dashoffset: 0; stroke: #b0b0b0; stroke-opacity: 0.4; stroke-width: 0.8"/>
     </g>
     <g id="line2d_2">
      <defs>
       <path id="m9cf865083b" d="M 0 0
L 0 3.5
" style="stroke: #000000; stroke-width: 0.8"/>
      </defs>
      <g>
       <use xlink:href="#m9cf865083b" x="136.395819" y="283.2305" style="stroke: #000000; stroke-width: 0.8"/>
      </g>
     </g>
     <g id="text_1">
      <!-- $\mathdefault{10^{-1}}$ -->
      <g transform="translate(127.575819 296.657062) scale(0.09 -0.09)">
       <defs>
        <path id="HelveticaNeue-31" d="M 2278 0
L 2278 4538
L 1862 4538
Q 1818 4282 1696 4115
Q 1574 3949 1398 3853
Q 1222 3757 1004 3721
Q 787 3686 557 3686
L 557 3251
L 1734 3251
L 1734 0
L 2278 0
z
" transform="scale(0.015625)"/>
        <path id="HelveticaNeue-30" d="M 845 2234
Q 845 2400 848 2601
Q 851 2803 880 3004
Q 909 3206 963 3398
Q 1018 3590 1123 3734
Q 1229 3878 1389 3968
Q 1549 4058 1779 4058
Q 2010 4058 2170 3968
Q 2330 3878 2435 3734
Q 2541 3590 2595 3398
Q 2650 3206 2678 3004
Q 2707 2803 2710 2601
Q 2714 2400 2714 2234
Q 2714 1978 2698 1661
Q 2682 1344 2595 1065
Q 2509 787 2317 595
Q 2125 403 1779 403
Q 1434 403 1242 595
Q 1050 787 963 1065
Q 877 1344 861 1661
Q 845 1978 845 2234
z
M 269 2227
Q 269 1978 281 1709
Q 294 1440 345 1184
Q 397 928 493 701
Q 589 474 755 301
Q 922 128 1174 29
Q 1427 -70 1779 -70
Q 2138 -70 2387 29
Q 2637 128 2803 301
Q 2970 474 3066 701
Q 3162 928 3213 1184
Q 3264 1440 3277 1709
Q 3290 1978 3290 2227
Q 3290 2477 3277 2745
Q 3264 3014 3213 3270
Q 3162 3526 3066 3756
Q 2970 3987 2803 4160
Q 2637 4333 2384 4435
Q 2131 4538 1779 4538
Q 1427 4538 1174 4435
Q 922 4333 755 4160
Q 589 3987 493 3756
Q 397 3526 345 3270
Q 294 3014 281 2745
Q 269 2477 269 2227
z
" transform="scale(0.015625)"/>
        <path id="HelveticaNeue-2212" d="M 307 1837
L 307 1402
L 3533 1402
L 3533 1837
L 307 1837
z
" transform="scale(0.015625)"/>
       </defs>
       <use xlink:href="#HelveticaNeue-31" transform="translate(0 0.173438)"/>
       <use xlink:href="#HelveticaNeue-30" transform="translate(55.599991 0.173438)"/>
       <use xlink:href="#HelveticaNeue-2212" transform="translate(112.104786 36.365625) scale(0.7)"/>
       <use xlink:href="#HelveticaNeue-31" transform="translate(154.104776 36.365625) scale(0.7)"/>
      </g>
     </g>
    </g>
    <g id="xtick_2">
     <g id="line2d_3">
      <path d="M 338.221625 283.2305
L 338.221625 31.2025
" clip-path="url(#p0f1d65b013)" style="fill: none; stroke-dasharray: 0.8,1.32; stroke-dashoffset: 0; stroke: #b0b0b0; stroke-opacity: 0.4; stroke-width: 0.8"/>
     </g>
     <g id="line2d_4">
      <g>
       <use xlink:href="#m9cf865083b" x="338.221625" y="283.2305" style="stroke: #000000; stroke-width: 0.8"/>
      </g>
     </g>
     <g id="text_2">
      <!-- $\mathdefault{10^{0}}$ -->
      <g transform="translate(331.291625 296.657062) scale(0.09 -0.09)">
       <use xlink:href="#HelveticaNeue-31" transform="translate(0 0.173438)"/>
       <use xlink:href="#HelveticaNeue-30" transform="translate(55.599991 0.173438)"/>
       <use xlink:href="#HelveticaNeue-30" transform="translate(112.104786 36.365625) scale(0.7)"/>
      </g>
     </g>
    </g>
    <g id="xtick_3">
     <g id="line2d_5">
      <defs>
       <path id="m2a71a95666" d="M 0 0
L 0 2
" style="stroke: #000000; stroke-width: 0.6"/>
      </defs>
      <g>
       <use xlink:href="#m2a71a95666" x="56.081256" y="283.2305" style="stroke: #000000; stroke-width: 0.6"/>
      </g>
     </g>
    </g>
    <g id="xtick_4">
     <g id="line2d_6">
      <g>
       <use xlink:href="#m2a71a95666" x="75.640198" y="283.2305" style="stroke: #000000; stroke-width: 0.6"/>
      </g>
     </g>
    </g>
    <g id="xtick_5">
     <g id="line2d_7">
      <g>
       <use xlink:href="#m2a71a95666" x="91.621016" y="283.2305" style="stroke: #000000; stroke-width: 0.6"/>
      </g>
     </g>
    </g>
    <g id="xtick_6">
     <g id="line2d_8">
      <g>
       <use xlink:href="#m2a71a95666" x="105.132606" y="283.2305" style="stroke: #000000; stroke-width: 0.6"/>
      </g>
     </g>
    </g>
    <g id="xtick_7">
     <g id="line2d_9">
      <g>
       <use xlink:href="#m2a71a95666" x="116.836878" y="283.2305" style="stroke: #000000; stroke-width: 0.6"/>
      </g>
     </g>
    </g>
    <g id="xtick_8">
     <g id="line2d_10">
      <g>
       <use xlink:href="#m2a71a95666" x="127.160777" y="283.2305" style="stroke: #000000; stroke-width: 0.6"/>
      </g>
     </g>
    </g>
    <g id="xtick_9">
     <g id="line2d_11">
      <g>
       <use xlink:href="#m2a71a95666" x="197.151441" y="283.2305" style="stroke: #000000; stroke-width: 0.6"/>
      </g>
     </g>
    </g>
    <g id="xtick_10">
     <g id="line2d_12">
      <g>
       <use xlink:href="#m2a71a95666" x="232.691201" y="283.2305" style="stroke: #000000; stroke-width: 0.6"/>
      </g>
     </g>
    </g>
    <g id="xtick_11">
     <g id="line2d_13">
      <g>
       <use xlink:href="#m2a71a95666" x="257.907062" y="283.2305" style="stroke: #000000; stroke-width: 0.6"/>
      </g>
     </g>
    </g>
    <g id="xtick_12">
     <g id="line2d_14">
      <g>
       <use xlink:href="#m2a71a95666" x="277.466004" y="283.2305" style="stroke: #000000; stroke-width: 0.6"/>
      </g>
     </g>
    </g>
    <g id="xtick_13">
     <g id="line2d_15">
      <g>
       <use xlink:href="#m2a71a95666" x="293.446823" y="283.2305" style="stroke: #000000; stroke-width: 0.6"/>
      </g>
     </g>
    </g>
    <g id="xtick_14">
     <g id="line2d_16">
      <g>
       <use xlink:href="#m2a71a95666" x="306.958413" y="283.2305" style="stroke: #000000; stroke-width: 0.6"/>
      </g>
     </g>
    </g>
    <g id="xtick_15">
     <g id="line2d_17">
      <g>
       <use xlink:href="#m2a71a95666" x="318.662684" y="283.2305" style="stroke: #000000; stroke-width: 0.6"/>
      </g>
     </g>
    </g>
    <g id="xtick_16">
     <g id="line2d_18">
      <g>
       <use xlink:href="#m2a71a95666" x="328.986583" y="283.2305" style="stroke: #000000; stroke-width: 0.6"/>
      </g>
     </g>
    </g>
    <g id="xtick_17">
     <g id="line2d_19">
      <g>
       <use xlink:href="#m2a71a95666" x="398.977247" y="283.2305" style="stroke: #000000; stroke-width: 0.6"/>
      </g>
     </g>
    </g>
    <g id="xtick_18">
     <g id="line2d_20">
      <g>
       <use xlink:href="#m2a71a95666" x="434.517007" y="283.2305" style="stroke: #000000; stroke-width: 0.6"/>
      </g>
     </g>
    </g>
    <g id="text_3">
     <!-- RTF (wall_time / audio_duration ; lower is better) -->
     <g transform="translate(142.636491 309.008781) scale(0.09 -0.09)">
      <defs>
       <path id="HelveticaNeue-52" d="M 499 4570
L 499 0
L 1107 0
L 1107 1952
L 2592 1952
Q 2816 1952 2950 1885
Q 3085 1818 3168 1706
Q 3251 1594 3289 1443
Q 3328 1293 3354 1126
Q 3386 960 3392 787
Q 3398 614 3404 464
Q 3411 314 3433 192
Q 3456 70 3520 0
L 4198 0
Q 4102 115 4054 265
Q 4006 416 3980 582
Q 3955 749 3948 921
Q 3942 1094 3930 1261
Q 3910 1427 3875 1580
Q 3840 1734 3766 1859
Q 3693 1984 3568 2073
Q 3443 2163 3245 2202
L 3245 2214
Q 3661 2330 3849 2643
Q 4038 2957 4038 3373
Q 4038 3930 3670 4250
Q 3302 4570 2650 4570
L 499 4570
z
M 2374 2464
L 1107 2464
L 1107 4058
L 2618 4058
Q 3046 4058 3238 3840
Q 3430 3622 3430 3277
Q 3430 3027 3344 2870
Q 3258 2714 3114 2621
Q 2970 2528 2778 2496
Q 2586 2464 2374 2464
z
" transform="scale(0.015625)"/>
       <path id="HelveticaNeue-54" d="M 1536 4058
L 1536 0
L 2144 0
L 2144 4058
L 3667 4058
L 3667 4570
L 13 4570
L 13 4058
L 1536 4058
z
" transform="scale(0.015625)"/>
       <path id="HelveticaNeue-46" d="M 499 4570
L 499 0
L 1107 0
L 1107 2093
L 3206 2093
L 3206 2605
L 1107 2605
L 1107 4058
L 3501 4058
L 3501 4570
L 499 4570
z
" transform="scale(0.015625)"/>
       <path id="HelveticaNeue-20" transform="scale(0.015625)"/>
       <path id="HelveticaNeue-28" d="M 1306 -1261
L 1722 -1261
Q 1267 -525 1072 198
Q 877 922 877 1728
Q 877 2515 1069 3232
Q 1261 3949 1722 4678
L 1306 4678
Q 806 4019 553 3251
Q 301 2483 301 1728
Q 301 1306 371 922
Q 442 538 573 173
Q 704 -192 889 -547
Q 1075 -902 1306 -1261
z
" transform="scale(0.015625)"/>
       <path id="HelveticaNeue-77" d="M 3686 0
L 4742 3309
L 4179 3309
L 3437 602
L 3424 602
L 2733 3309
L 2138 3309
L 1472 602
L 1459 602
L 710 3309
L 109 3309
L 1171 0
L 1760 0
L 2426 2630
L 2438 2630
L 3110 0
L 3686 0
z
" transform="scale(0.015625)"/>
       <path id="HelveticaNeue-61" d="M 3341 13
Q 3200 -70 2950 -70
Q 2739 -70 2614 48
Q 2490 166 2490 435
Q 2266 166 1968 48
Q 1670 -70 1325 -70
Q 1101 -70 899 -19
Q 698 32 550 141
Q 403 250 316 426
Q 230 602 230 851
Q 230 1133 326 1312
Q 422 1491 579 1603
Q 736 1715 937 1772
Q 1139 1830 1350 1869
Q 1574 1914 1776 1936
Q 1978 1958 2131 2000
Q 2285 2042 2374 2122
Q 2464 2202 2464 2355
Q 2464 2534 2397 2643
Q 2330 2752 2224 2809
Q 2118 2867 1987 2886
Q 1856 2906 1728 2906
Q 1382 2906 1152 2774
Q 922 2643 902 2278
L 358 2278
Q 371 2586 486 2797
Q 602 3008 794 3139
Q 986 3270 1232 3328
Q 1478 3386 1760 3386
Q 1984 3386 2205 3354
Q 2426 3322 2605 3222
Q 2784 3123 2893 2944
Q 3002 2765 3002 2477
L 3002 774
Q 3002 582 3024 492
Q 3046 403 3174 403
Q 3245 403 3341 435
L 3341 13
z
M 2458 1709
Q 2355 1632 2188 1597
Q 2022 1562 1840 1539
Q 1658 1517 1472 1488
Q 1286 1459 1139 1395
Q 992 1331 899 1212
Q 806 1094 806 890
Q 806 755 860 662
Q 915 570 1001 512
Q 1088 454 1203 428
Q 1318 403 1446 403
Q 1715 403 1907 476
Q 2099 550 2220 662
Q 2342 774 2400 905
Q 2458 1037 2458 1152
L 2458 1709
z
" transform="scale(0.015625)"/>
       <path id="HelveticaNeue-6c" d="M 442 4570
L 442 0
L 986 0
L 986 4570
L 442 4570
z
" transform="scale(0.015625)"/>
       <path id="HelveticaNeue-5f" d="M 0 -474
L 0 -794
L 3200 -794
L 3200 -474
L 0 -474
z
" transform="scale(0.015625)"/>
       <path id="HelveticaNeue-74" d="M 1165 3309
L 1165 4301
L 621 4301
L 621 3309
L 58 3309
L 58 2829
L 621 2829
L 621 723
Q 621 493 665 352
Q 710 211 803 134
Q 896 58 1046 29
Q 1197 0 1408 0
L 1824 0
L 1824 480
L 1574 480
Q 1446 480 1366 489
Q 1286 499 1241 531
Q 1197 563 1181 620
Q 1165 678 1165 774
L 1165 2829
L 1824 2829
L 1824 3309
L 1165 3309
z
" transform="scale(0.015625)"/>
       <path id="HelveticaNeue-69" d="M 986 3904
L 986 4570
L 442 4570
L 442 3904
L 986 3904
z
M 442 3309
L 442 0
L 986 0
L 986 3309
L 442 3309
z
" transform="scale(0.015625)"/>
       <path id="HelveticaNeue-6d" d="M 410 3309
L 410 0
L 954 0
L 954 2061
Q 954 2157 1002 2301
Q 1050 2445 1155 2579
Q 1261 2714 1430 2810
Q 1600 2906 1837 2906
Q 2022 2906 2140 2851
Q 2259 2797 2329 2697
Q 2400 2598 2429 2464
Q 2458 2330 2458 2170
L 2458 0
L 3002 0
L 3002 2061
Q 3002 2445 3232 2675
Q 3462 2906 3866 2906
Q 4064 2906 4189 2848
Q 4314 2790 4384 2691
Q 4454 2592 4480 2457
Q 4506 2323 4506 2170
L 4506 0
L 5050 0
L 5050 2426
Q 5050 2682 4970 2864
Q 4890 3046 4746 3161
Q 4602 3277 4400 3331
Q 4198 3386 3949 3386
Q 3622 3386 3350 3238
Q 3078 3091 2912 2822
Q 2810 3130 2560 3258
Q 2310 3386 2003 3386
Q 1306 3386 934 2822
L 922 2822
L 922 3309
L 410 3309
z
" transform="scale(0.015625)"/>
       <path id="HelveticaNeue-65" d="M 2707 1971
L 806 1971
Q 819 2163 889 2332
Q 960 2502 1081 2630
Q 1203 2758 1372 2832
Q 1542 2906 1754 2906
Q 1958 2906 2128 2832
Q 2298 2758 2422 2633
Q 2547 2509 2620 2336
Q 2694 2163 2707 1971
z
M 3232 1050
L 2694 1050
Q 2624 723 2403 563
Q 2182 403 1837 403
Q 1568 403 1369 492
Q 1171 582 1043 732
Q 915 883 857 1078
Q 800 1274 806 1491
L 3283 1491
Q 3296 1792 3229 2125
Q 3162 2458 2986 2739
Q 2810 3021 2518 3203
Q 2227 3386 1786 3386
Q 1446 3386 1161 3258
Q 877 3130 669 2899
Q 461 2669 345 2355
Q 230 2042 230 1664
Q 243 1286 342 966
Q 442 646 640 416
Q 838 186 1129 58
Q 1421 -70 1818 -70
Q 2381 -70 2752 211
Q 3123 493 3232 1050
z
" transform="scale(0.015625)"/>
       <path id="HelveticaNeue-2f" d="M 1779 4678
L -109 -102
L 352 -102
L 2246 4678
L 1779 4678
z
" transform="scale(0.015625)"/>
       <path id="HelveticaNeue-75" d="M 3149 0
L 3149 3309
L 2605 3309
L 2605 1440
Q 2605 1216 2544 1027
Q 2483 838 2361 697
Q 2240 557 2057 480
Q 1875 403 1626 403
Q 1312 403 1133 582
Q 954 762 954 1069
L 954 3309
L 410 3309
L 410 1133
Q 410 864 464 643
Q 518 422 652 262
Q 787 102 1004 16
Q 1222 -70 1549 -70
Q 1914 -70 2182 74
Q 2451 218 2624 525
L 2637 525
L 2637 0
L 3149 0
z
" transform="scale(0.015625)"/>
       <path id="HelveticaNeue-64" d="M 806 1626
Q 806 1869 857 2099
Q 909 2330 1024 2509
Q 1139 2688 1331 2797
Q 1523 2906 1798 2906
Q 2080 2906 2278 2800
Q 2477 2694 2601 2521
Q 2726 2349 2784 2121
Q 2842 1894 2842 1651
Q 2842 1421 2787 1197
Q 2733 973 2611 797
Q 2490 621 2298 512
Q 2106 403 1830 403
Q 1568 403 1373 505
Q 1178 608 1053 781
Q 928 954 867 1174
Q 806 1395 806 1626
z
M 3366 0
L 3366 4570
L 2822 4570
L 2822 2867
L 2810 2867
Q 2720 3014 2589 3113
Q 2458 3213 2310 3273
Q 2163 3334 2016 3360
Q 1869 3386 1741 3386
Q 1363 3386 1078 3248
Q 794 3110 605 2876
Q 416 2643 323 2329
Q 230 2016 230 1664
Q 230 1312 326 998
Q 422 685 611 448
Q 800 211 1085 70
Q 1370 -70 1754 -70
Q 2099 -70 2387 51
Q 2675 173 2810 448
L 2822 448
L 2822 0
L 3366 0
z
" transform="scale(0.015625)"/>
       <path id="HelveticaNeue-6f" d="M 806 1651
Q 806 1952 886 2185
Q 966 2419 1107 2579
Q 1248 2739 1437 2822
Q 1626 2906 1837 2906
Q 2048 2906 2237 2822
Q 2426 2739 2566 2579
Q 2707 2419 2787 2185
Q 2867 1952 2867 1651
Q 2867 1350 2787 1116
Q 2707 883 2566 726
Q 2426 570 2237 486
Q 2048 403 1837 403
Q 1626 403 1437 486
Q 1248 570 1107 726
Q 966 883 886 1116
Q 806 1350 806 1651
z
M 230 1651
Q 230 1286 332 972
Q 435 659 640 425
Q 845 192 1145 61
Q 1446 -70 1837 -70
Q 2234 -70 2531 61
Q 2829 192 3033 425
Q 3238 659 3340 972
Q 3443 1286 3443 1651
Q 3443 2016 3340 2333
Q 3238 2650 3033 2883
Q 2829 3117 2531 3251
Q 2234 3386 1837 3386
Q 1446 3386 1145 3251
Q 845 3117 640 2883
Q 435 2650 332 2333
Q 230 2016 230 1651
z
" transform="scale(0.015625)"/>
       <path id="HelveticaNeue-72" d="M 390 3309
L 390 0
L 934 0
L 934 1472
Q 934 1792 998 2038
Q 1062 2285 1203 2457
Q 1344 2630 1574 2720
Q 1805 2810 2131 2810
L 2131 3386
Q 1690 3398 1402 3206
Q 1114 3014 915 2611
L 902 2611
L 902 3309
L 390 3309
z
" transform="scale(0.015625)"/>
       <path id="HelveticaNeue-6e" d="M 410 3309
L 410 0
L 954 0
L 954 1869
Q 954 2093 1014 2281
Q 1075 2470 1196 2611
Q 1318 2752 1500 2829
Q 1683 2906 1933 2906
Q 2246 2906 2425 2726
Q 2605 2547 2605 2240
L 2605 0
L 3149 0
L 3149 2176
Q 3149 2445 3094 2665
Q 3040 2886 2905 3046
Q 2771 3206 2553 3296
Q 2336 3386 2010 3386
Q 1274 3386 934 2784
L 922 2784
L 922 3309
L 410 3309
z
" transform="scale(0.015625)"/>
       <path id="HelveticaNeue-3b" d="M 1242 2598
L 1242 3309
L 531 3309
L 531 2598
L 1242 2598
z
M 531 710
L 531 0
L 909 0
Q 915 -77 899 -166
Q 883 -256 838 -342
Q 794 -429 720 -502
Q 646 -576 538 -614
L 538 -934
Q 909 -826 1078 -563
Q 1248 -301 1242 64
L 1242 710
L 531 710
z
" transform="scale(0.015625)"/>
       <path id="HelveticaNeue-73" d="M 742 1043
L 198 1043
Q 211 736 326 521
Q 442 307 634 176
Q 826 45 1075 -12
Q 1325 -70 1600 -70
Q 1850 -70 2102 -22
Q 2355 26 2556 147
Q 2758 269 2883 467
Q 3008 666 3008 966
Q 3008 1203 2915 1363
Q 2822 1523 2672 1628
Q 2522 1734 2326 1798
Q 2131 1862 1926 1907
Q 1734 1952 1542 1993
Q 1350 2035 1196 2096
Q 1043 2157 944 2249
Q 845 2342 845 2483
Q 845 2611 909 2691
Q 973 2771 1075 2819
Q 1178 2867 1302 2886
Q 1427 2906 1549 2906
Q 1683 2906 1814 2877
Q 1946 2848 2054 2784
Q 2163 2720 2233 2614
Q 2304 2509 2317 2349
L 2861 2349
Q 2842 2650 2733 2851
Q 2624 3053 2441 3171
Q 2259 3290 2022 3338
Q 1786 3386 1504 3386
Q 1286 3386 1065 3331
Q 845 3277 669 3165
Q 493 3053 381 2873
Q 269 2694 269 2445
Q 269 2125 429 1945
Q 589 1766 829 1667
Q 1069 1568 1350 1513
Q 1632 1459 1872 1392
Q 2112 1325 2272 1216
Q 2432 1107 2432 896
Q 2432 742 2355 643
Q 2278 544 2160 493
Q 2042 442 1901 422
Q 1760 403 1632 403
Q 1466 403 1309 435
Q 1152 467 1027 540
Q 902 614 825 739
Q 749 864 742 1043
z
" transform="scale(0.015625)"/>
       <path id="HelveticaNeue-62" d="M 429 4570
L 429 0
L 973 0
L 973 442
L 986 442
Q 1075 294 1206 195
Q 1338 96 1485 38
Q 1632 -19 1782 -44
Q 1933 -70 2054 -70
Q 2432 -70 2717 64
Q 3002 198 3190 432
Q 3379 666 3472 979
Q 3565 1293 3565 1645
Q 3565 1997 3469 2310
Q 3373 2624 3184 2864
Q 2995 3104 2710 3245
Q 2426 3386 2042 3386
Q 1696 3386 1408 3261
Q 1120 3136 986 2861
L 973 2861
L 973 4570
L 429 4570
z
M 2989 1683
Q 2989 1440 2937 1209
Q 2886 979 2771 800
Q 2656 621 2467 512
Q 2278 403 1997 403
Q 1715 403 1516 508
Q 1318 614 1193 787
Q 1069 960 1011 1187
Q 954 1414 954 1658
Q 954 1888 1008 2112
Q 1062 2336 1184 2512
Q 1306 2688 1498 2797
Q 1690 2906 1965 2906
Q 2227 2906 2422 2803
Q 2618 2701 2742 2528
Q 2867 2355 2928 2134
Q 2989 1914 2989 1683
z
" transform="scale(0.015625)"/>
       <path id="HelveticaNeue-29" d="M -58 -1261
L 352 -1261
Q 851 -602 1104 163
Q 1357 928 1357 1683
Q 1357 2106 1286 2490
Q 1216 2874 1085 3242
Q 954 3610 768 3965
Q 582 4320 352 4678
L -58 4678
Q 390 3942 585 3216
Q 781 2490 781 1683
Q 781 902 589 182
Q 397 -538 -58 -1261
z
" transform="scale(0.015625)"/>
      </defs>
      <use xlink:href="#HelveticaNeue-52"/>
      <use xlink:href="#HelveticaNeue-54" transform="translate(66.749985 0)"/>
      <use xlink:href="#HelveticaNeue-46" transform="translate(124.149979 0)"/>
      <use xlink:href="#HelveticaNeue-20" transform="translate(181.549973 0)"/>
      <use xlink:href="#HelveticaNeue-28" transform="translate(209.34996 0)"/>
      <use xlink:href="#HelveticaNeue-77" transform="translate(235.249954 0)"/>
      <use xlink:href="#HelveticaNeue-61" transform="translate(311.049942 0)"/>
      <use xlink:href="#HelveticaNeue-6c" transform="translate(364.749939 0)"/>
      <use xlink:href="#HelveticaNeue-6c" transform="translate(386.949936 0)"/>
      <use xlink:href="#HelveticaNeue-5f" transform="translate(409.149933 0)"/>
      <use xlink:href="#HelveticaNeue-74" transform="translate(459.149918 0)"/>
      <use xlink:href="#HelveticaNeue-69" transform="translate(490.649902 0)"/>
      <use xlink:href="#HelveticaNeue-6d" transform="translate(512.849899 0)"/>
      <use xlink:href="#HelveticaNeue-65" transform="translate(598.149887 0)"/>
      <use xlink:href="#HelveticaNeue-20" transform="translate(651.849884 0)"/>
      <use xlink:href="#HelveticaNeue-2f" transform="translate(679.649872 0)"/>
      <use xlink:href="#HelveticaNeue-20" transform="translate(712.94986 0)"/>
      <use xlink:href="#HelveticaNeue-61" transform="translate(740.749847 0)"/>
      <use xlink:href="#HelveticaNeue-75" transform="translate(794.449844 0)"/>
      <use xlink:href="#HelveticaNeue-64" transform="translate(850.049835 0)"/>
      <use xlink:href="#HelveticaNeue-69" transform="translate(909.349823 0)"/>
      <use xlink:href="#HelveticaNeue-6f" transform="translate(931.54982 0)"/>
      <use xlink:href="#HelveticaNeue-5f" transform="translate(988.949814 0)"/>
      <use xlink:href="#HelveticaNeue-64" transform="translate(1038.949799 0)"/>
      <use xlink:href="#HelveticaNeue-75" transform="translate(1098.249786 0)"/>
      <use xlink:href="#HelveticaNeue-72" transform="translate(1153.849777 0)"/>
      <use xlink:href="#HelveticaNeue-61" transform="translate(1187.149765 0)"/>
      <use xlink:href="#HelveticaNeue-74" transform="translate(1240.849762 0)"/>
      <use xlink:href="#HelveticaNeue-69" transform="translate(1272.349747 0)"/>
      <use xlink:href="#HelveticaNeue-6f" transform="translate(1294.549744 0)"/>
      <use xlink:href="#HelveticaNeue-6e" transform="translate(1351.949738 0)"/>
      <use xlink:href="#HelveticaNeue-20" transform="translate(1407.549728 0)"/>
      <use xlink:href="#HelveticaNeue-3b" transform="translate(1435.349716 0)"/>
      <use xlink:href="#HelveticaNeue-20" transform="translate(1463.149704 0)"/>
      <use xlink:href="#HelveticaNeue-6c" transform="translate(1490.949692 0)"/>
      <use xlink:href="#HelveticaNeue-6f" transform="translate(1513.149689 0)"/>
      <use xlink:href="#HelveticaNeue-77" transform="translate(1570.549683 0)"/>
      <use xlink:href="#HelveticaNeue-65" transform="translate(1646.34967 0)"/>
      <use xlink:href="#HelveticaNeue-72" transform="translate(1700.049667 0)"/>
      <use xlink:href="#HelveticaNeue-20" transform="translate(1733.349655 0)"/>
      <use xlink:href="#HelveticaNeue-69" transform="translate(1761.149643 0)"/>
      <use xlink:href="#HelveticaNeue-73" transform="translate(1783.34964 0)"/>
      <use xlink:href="#HelveticaNeue-20" transform="translate(1833.349625 0)"/>
      <use xlink:href="#HelveticaNeue-62" transform="translate(1861.149612 0)"/>
      <use xlink:href="#HelveticaNeue-65" transform="translate(1920.4496 0)"/>
      <use xlink:href="#HelveticaNeue-74" transform="translate(1974.149597 0)"/>
      <use xlink:href="#HelveticaNeue-74" transform="translate(2005.649582 0)"/>
      <use xlink:href="#HelveticaNeue-65" transform="translate(2037.149567 0)"/>
      <use xlink:href="#HelveticaNeue-72" transform="translate(2090.849564 0)"/>
      <use xlink:href="#HelveticaNeue-29" transform="translate(2124.149551 0)"/>
     </g>
    </g>
   </g>
   <g id="matplotlib.axis_2">
    <g id="ytick_1">
     <g id="line2d_21">
      <path d="M 44.172031 256.752101
L 434.606577 256.752101
" clip-path="url(#p0f1d65b013)" style="fill: none; stroke-dasharray: 0.8,1.32; stroke-dashoffset: 0; stroke: #b0b0b0; stroke-opacity: 0.4; stroke-width: 0.8"/>
     </g>
     <g id="line2d_22">
      <defs>
       <path id="mfb8bcffd39" d="M 0 0
L -3.5 0
" style="stroke: #000000; stroke-width: 0.8"/>
      </defs>
      <g>
       <use xlink:href="#mfb8bcffd39" x="44.172031" y="256.752101" style="stroke: #000000; stroke-width: 0.8"/>
      </g>
     </g>
     <g id="text_4">
      <!-- 0.36 -->
      <g transform="translate(19.66 259.965383) scale(0.09 -0.09)">
       <defs>
        <path id="HelveticaNeue-2e" d="M 531 710
L 531 0
L 1242 0
L 1242 710
L 531 710
z
" transform="scale(0.015625)"/>
        <path id="HelveticaNeue-33" d="M 1395 2592
L 1395 2131
Q 1549 2150 1722 2150
Q 1926 2150 2102 2096
Q 2278 2042 2406 1930
Q 2534 1818 2611 1654
Q 2688 1491 2688 1280
Q 2688 1075 2608 912
Q 2528 749 2393 637
Q 2259 525 2080 464
Q 1901 403 1702 403
Q 1235 403 992 681
Q 749 960 736 1402
L 192 1402
Q 186 1050 291 774
Q 397 499 595 310
Q 794 122 1075 26
Q 1357 -70 1702 -70
Q 2022 -70 2307 16
Q 2592 102 2803 275
Q 3014 448 3139 707
Q 3264 966 3264 1306
Q 3264 1715 3062 2016
Q 2861 2317 2445 2406
L 2445 2419
Q 2714 2541 2893 2777
Q 3072 3014 3072 3322
Q 3072 3635 2966 3865
Q 2861 4096 2675 4243
Q 2490 4390 2237 4464
Q 1984 4538 1690 4538
Q 1350 4538 1091 4429
Q 832 4320 659 4128
Q 486 3936 393 3667
Q 301 3398 288 3072
L 832 3072
Q 832 3270 883 3449
Q 934 3629 1040 3763
Q 1146 3898 1309 3978
Q 1472 4058 1690 4058
Q 2035 4058 2265 3875
Q 2496 3693 2496 3328
Q 2496 3149 2425 3008
Q 2355 2867 2236 2774
Q 2118 2682 1961 2634
Q 1805 2586 1632 2586
L 1517 2586
Q 1485 2586 1453 2586
Q 1427 2586 1395 2592
z
" transform="scale(0.015625)"/>
        <path id="HelveticaNeue-36" d="M 2650 3379
L 3194 3379
Q 3142 3942 2809 4240
Q 2477 4538 1914 4538
Q 1427 4538 1107 4333
Q 787 4128 595 3789
Q 403 3450 323 3011
Q 243 2573 243 2106
Q 243 1747 297 1363
Q 352 979 518 659
Q 685 339 992 134
Q 1299 -70 1805 -70
Q 2234 -70 2525 74
Q 2816 218 2992 438
Q 3168 659 3245 928
Q 3322 1197 3322 1446
Q 3322 1760 3226 2029
Q 3130 2298 2954 2496
Q 2778 2694 2518 2806
Q 2259 2918 1933 2918
Q 1562 2918 1277 2777
Q 992 2637 800 2323
L 787 2336
Q 794 2598 838 2899
Q 883 3200 1001 3459
Q 1120 3718 1331 3888
Q 1542 4058 1888 4058
Q 2214 4058 2412 3872
Q 2611 3686 2650 3379
z
M 1830 2438
Q 2061 2438 2233 2355
Q 2406 2272 2521 2134
Q 2637 1997 2691 1808
Q 2746 1619 2746 1408
Q 2746 1210 2685 1027
Q 2624 845 2509 704
Q 2394 563 2224 483
Q 2054 403 1830 403
Q 1606 403 1430 483
Q 1254 563 1136 697
Q 1018 832 954 1017
Q 890 1203 890 1414
Q 890 1626 950 1814
Q 1011 2003 1132 2140
Q 1254 2278 1427 2358
Q 1600 2438 1830 2438
z
" transform="scale(0.015625)"/>
       </defs>
       <use xlink:href="#HelveticaNeue-30"/>
       <use xlink:href="#HelveticaNeue-2e" transform="translate(55.599991 0)"/>
       <use xlink:href="#HelveticaNeue-33" transform="translate(83.399979 0)"/>
       <use xlink:href="#HelveticaNeue-36" transform="translate(138.999969 0)"/>
      </g>
     </g>
    </g>
    <g id="ytick_2">
     <g id="line2d_23">
      <path d="M 44.172031 225.286939
L 434.606577 225.286939
" clip-path="url(#p0f1d65b013)" style="fill: none; stroke-dasharray: 0.8,1.32; stroke-dashoffset: 0; stroke: #b0b0b0; stroke-opacity: 0.4; stroke-width: 0.8"/>
     </g>
     <g id="line2d_24">
      <g>
       <use xlink:href="#mfb8bcffd39" x="44.172031" y="225.286939" style="stroke: #000000; stroke-width: 0.8"/>
      </g>
     </g>
     <g id="text_5">
      <!-- 0.38 -->
      <g transform="translate(19.66 228.500221) scale(0.09 -0.09)">
       <defs>
        <path id="HelveticaNeue-38" d="M 992 3360
Q 992 3533 1056 3661
Q 1120 3789 1225 3878
Q 1331 3968 1478 4013
Q 1626 4058 1786 4058
Q 2118 4058 2332 3882
Q 2547 3706 2547 3360
Q 2547 3014 2336 2822
Q 2125 2630 1798 2630
Q 1632 2630 1485 2675
Q 1338 2720 1229 2809
Q 1120 2899 1056 3036
Q 992 3174 992 3360
z
M 416 3379
Q 416 3072 589 2813
Q 762 2554 1050 2438
Q 666 2304 461 2006
Q 256 1709 256 1306
Q 256 960 374 701
Q 493 442 701 269
Q 909 96 1190 13
Q 1472 -70 1798 -70
Q 2112 -70 2387 19
Q 2662 109 2864 285
Q 3066 461 3184 717
Q 3302 973 3302 1306
Q 3302 1728 3104 2019
Q 2906 2310 2496 2438
Q 2784 2566 2953 2819
Q 3123 3072 3123 3379
Q 3123 3597 3046 3805
Q 2970 4013 2806 4176
Q 2643 4339 2380 4438
Q 2118 4538 1747 4538
Q 1485 4538 1245 4461
Q 1005 4384 819 4237
Q 634 4090 525 3875
Q 416 3661 416 3379
z
M 832 1280
Q 832 1478 905 1638
Q 979 1798 1110 1913
Q 1242 2029 1418 2089
Q 1594 2150 1792 2150
Q 1984 2150 2153 2083
Q 2323 2016 2451 1901
Q 2579 1786 2652 1629
Q 2726 1472 2726 1286
Q 2726 1094 2659 934
Q 2592 774 2467 656
Q 2342 538 2172 470
Q 2003 403 1798 403
Q 1376 403 1104 636
Q 832 870 832 1280
z
" transform="scale(0.015625)"/>
       </defs>
       <use xlink:href="#HelveticaNeue-30"/>
       <use xlink:href="#HelveticaNeue-2e" transform="translate(55.599991 0)"/>
       <use xlink:href="#HelveticaNeue-33" transform="translate(83.399979 0)"/>
       <use xlink:href="#HelveticaNeue-38" transform="translate(138.999969 0)"/>
      </g>
     </g>
    </g>
    <g id="ytick_3">
     <g id="line2d_25">
      <path d="M 44.172031 193.821777
L 434.606577 193.821777
" clip-path="url(#p0f1d65b013)" style="fill: none; stroke-dasharray: 0.8,1.32; stroke-dashoffset: 0; stroke: #b0b0b0; stroke-opacity: 0.4; stroke-width: 0.8"/>
     </g>
     <g id="line2d_26">
      <g>
       <use xlink:href="#mfb8bcffd39" x="44.172031" y="193.821777" style="stroke: #000000; stroke-width: 0.8"/>
      </g>
     </g>
     <g id="text_6">
      <!-- 0.40 -->
      <g transform="translate(19.66 197.035059) scale(0.09 -0.09)">
       <defs>
        <path id="HelveticaNeue-34" d="M 2170 1542
L 646 1542
L 2157 3763
L 2170 3763
L 2170 1542
z
M 2682 1542
L 2682 4538
L 2246 4538
L 179 1587
L 179 1062
L 2170 1062
L 2170 0
L 2682 0
L 2682 1062
L 3296 1062
L 3296 1542
L 2682 1542
z
" transform="scale(0.015625)"/>
       </defs>
       <use xlink:href="#HelveticaNeue-30"/>
       <use xlink:href="#HelveticaNeue-2e" transform="translate(55.599991 0)"/>
       <use xlink:href="#HelveticaNeue-34" transform="translate(83.399979 0)"/>
       <use xlink:href="#HelveticaNeue-30" transform="translate(138.999969 0)"/>
      </g>
     </g>
    </g>
    <g id="ytick_4">
     <g id="line2d_27">
      <path d="M 44.172031 162.356615
L 434.606577 162.356615
" clip-path="url(#p0f1d65b013)" style="fill: none; stroke-dasharray: 0.8,1.32; stroke-dashoffset: 0; stroke: #b0b0b0; stroke-opacity: 0.4; stroke-width: 0.8"/>
     </g>
     <g id="line2d_28">
      <g>
       <use xlink:href="#mfb8bcffd39" x="44.172031" y="162.356615" style="stroke: #000000; stroke-width: 0.8"/>
      </g>
     </g>
     <g id="text_7">
      <!-- 0.42 -->
      <g transform="translate(19.66 165.569897) scale(0.09 -0.09)">
       <defs>
        <path id="HelveticaNeue-32" d="M 282 2931
L 826 2931
Q 819 3136 867 3337
Q 915 3539 1024 3699
Q 1133 3859 1302 3958
Q 1472 4058 1709 4058
Q 1888 4058 2048 4000
Q 2208 3942 2326 3833
Q 2445 3725 2515 3574
Q 2586 3424 2586 3238
Q 2586 3002 2512 2822
Q 2438 2643 2294 2489
Q 2150 2336 1932 2185
Q 1715 2035 1427 1856
Q 1190 1715 972 1555
Q 755 1395 582 1184
Q 410 973 298 688
Q 186 403 154 0
L 3117 0
L 3117 480
L 787 480
Q 826 691 950 854
Q 1075 1018 1251 1158
Q 1427 1299 1638 1424
Q 1850 1549 2061 1677
Q 2272 1811 2470 1958
Q 2669 2106 2822 2288
Q 2976 2470 3069 2700
Q 3162 2931 3162 3232
Q 3162 3552 3050 3795
Q 2938 4038 2746 4201
Q 2554 4365 2294 4451
Q 2035 4538 1741 4538
Q 1382 4538 1100 4416
Q 819 4294 630 4080
Q 442 3866 352 3571
Q 262 3277 282 2931
z
" transform="scale(0.015625)"/>
       </defs>
       <use xlink:href="#HelveticaNeue-30"/>
       <use xlink:href="#HelveticaNeue-2e" transform="translate(55.599991 0)"/>
       <use xlink:href="#HelveticaNeue-34" transform="translate(83.399979 0)"/>
       <use xlink:href="#HelveticaNeue-32" transform="translate(138.999969 0)"/>
      </g>
     </g>
    </g>
    <g id="ytick_5">
     <g id="line2d_29">
      <path d="M 44.172031 130.891453
L 434.606577 130.891453
" clip-path="url(#p0f1d65b013)" style="fill: none; stroke-dasharray: 0.8,1.32; stroke-dashoffset: 0; stroke: #b0b0b0; stroke-opacity: 0.4; stroke-width: 0.8"/>
     </g>
     <g id="line2d_30">
      <g>
       <use xlink:href="#mfb8bcffd39" x="44.172031" y="130.891453" style="stroke: #000000; stroke-width: 0.8"/>
      </g>
     </g>
     <g id="text_8">
      <!-- 0.44 -->
      <g transform="translate(19.66 134.104735) scale(0.09 -0.09)">
       <use xlink:href="#HelveticaNeue-30"/>
       <use xlink:href="#HelveticaNeue-2e" transform="translate(55.599991 0)"/>
       <use xlink:href="#HelveticaNeue-34" transform="translate(83.399979 0)"/>
       <use xlink:href="#HelveticaNeue-34" transform="translate(138.999969 0)"/>
      </g>
     </g>
    </g>
    <g id="ytick_6">
     <g id="line2d_31">
      <path d="M 44.172031 99.426291
L 434.606577 99.426291
" clip-path="url(#p0f1d65b013)" style="fill: none; stroke-dasharray: 0.8,1.32; stroke-dashoffset: 0; stroke: #b0b0b0; stroke-opacity: 0.4; stroke-width: 0.8"/>
     </g>
     <g id="line2d_32">
      <g>
       <use xlink:href="#mfb8bcffd39" x="44.172031" y="99.426291" style="stroke: #000000; stroke-width: 0.8"/>
      </g>
     </g>
     <g id="text_9">
      <!-- 0.46 -->
      <g transform="translate(19.66 102.639573) scale(0.09 -0.09)">
       <use xlink:href="#HelveticaNeue-30"/>
       <use xlink:href="#HelveticaNeue-2e" transform="translate(55.599991 0)"/>
       <use xlink:href="#HelveticaNeue-34" transform="translate(83.399979 0)"/>
       <use xlink:href="#HelveticaNeue-36" transform="translate(138.999969 0)"/>
      </g>
     </g>
    </g>
    <g id="ytick_7">
     <g id="line2d_33">
      <path d="M 44.172031 67.961129
L 434.606577 67.961129
" clip-path="url(#p0f1d65b013)" style="fill: none; stroke-dasharray: 0.8,1.32; stroke-dashoffset: 0; stroke: #b0b0b0; stroke-opacity: 0.4; stroke-width: 0.8"/>
     </g>
     <g id="line2d_34">
      <g>
       <use xlink:href="#mfb8bcffd39" x="44.172031" y="67.961129" style="stroke: #000000; stroke-width: 0.8"/>
      </g>
     </g>
     <g id="text_10">
      <!-- 0.48 -->
      <g transform="translate(19.66 71.174411) scale(0.09 -0.09)">
       <use xlink:href="#HelveticaNeue-30"/>
       <use xlink:href="#HelveticaNeue-2e" transform="translate(55.599991 0)"/>
       <use xlink:href="#HelveticaNeue-34" transform="translate(83.399979 0)"/>
       <use xlink:href="#HelveticaNeue-38" transform="translate(138.999969 0)"/>
      </g>
     </g>
    </g>
    <g id="ytick_8">
     <g id="line2d_35">
      <path d="M 44.172031 36.495967
L 434.606577 36.495967
" clip-path="url(#p0f1d65b013)" style="fill: none; stroke-dasharray: 0.8,1.32; stroke-dashoffset: 0; stroke: #b0b0b0; stroke-opacity: 0.4; stroke-width: 0.8"/>
     </g>
     <g id="line2d_36">
      <g>
       <use xlink:href="#mfb8bcffd39" x="44.172031" y="36.495967" style="stroke: #000000; stroke-width: 0.8"/>
      </g>
     </g>
     <g id="text_11">
      <!-- 0.50 -->
      <g transform="translate(19.66 39.709249) scale(0.09 -0.09)">
       <defs>
        <path id="HelveticaNeue-35" d="M 3008 3981
L 3008 4461
L 768 4461
L 346 2106
L 813 2080
Q 973 2272 1181 2390
Q 1389 2509 1658 2509
Q 1888 2509 2077 2432
Q 2266 2355 2400 2217
Q 2534 2080 2608 1891
Q 2682 1702 2682 1478
Q 2682 1210 2605 1008
Q 2528 806 2397 672
Q 2266 538 2090 470
Q 1914 403 1722 403
Q 1517 403 1347 464
Q 1178 525 1053 637
Q 928 749 854 899
Q 781 1050 768 1222
L 224 1222
Q 230 915 345 672
Q 461 429 659 265
Q 858 102 1117 16
Q 1376 -70 1670 -70
Q 2067 -70 2364 54
Q 2662 179 2860 390
Q 3059 602 3158 874
Q 3258 1146 3258 1434
Q 3258 1824 3142 2115
Q 3027 2406 2828 2601
Q 2630 2797 2361 2893
Q 2093 2989 1792 2989
Q 1562 2989 1328 2909
Q 1094 2829 947 2662
L 934 2675
L 1178 3981
L 3008 3981
z
" transform="scale(0.015625)"/>
       </defs>
       <use xlink:href="#HelveticaNeue-30"/>
       <use xlink:href="#HelveticaNeue-2e" transform="translate(55.599991 0)"/>
       <use xlink:href="#HelveticaNeue-35" transform="translate(83.399979 0)"/>
       <use xlink:href="#HelveticaNeue-30" transform="translate(138.999969 0)"/>
      </g>
     </g>
    </g>
    <g id="text_12">
     <!-- cos_sim vs offline single-shot reference (higher is better) -->
     <g transform="translate(13.778437 270.070172) rotate(-90) scale(0.09 -0.09)">
      <defs>
       <path id="HelveticaNeue-63" d="M 2656 2246
L 3219 2246
Q 3187 2541 3065 2755
Q 2944 2970 2755 3110
Q 2566 3251 2320 3318
Q 2074 3386 1792 3386
Q 1402 3386 1107 3248
Q 813 3110 617 2870
Q 422 2630 326 2307
Q 230 1984 230 1613
Q 230 1242 329 931
Q 429 621 624 397
Q 819 173 1110 51
Q 1402 -70 1779 -70
Q 2413 -70 2781 262
Q 3149 595 3238 1210
L 2682 1210
Q 2630 826 2403 614
Q 2176 403 1773 403
Q 1517 403 1331 505
Q 1146 608 1030 777
Q 915 947 860 1164
Q 806 1382 806 1613
Q 806 1862 857 2096
Q 909 2330 1027 2509
Q 1146 2688 1344 2797
Q 1542 2906 1837 2906
Q 2182 2906 2387 2733
Q 2592 2560 2656 2246
z
" transform="scale(0.015625)"/>
       <path id="HelveticaNeue-76" d="M 1901 0
L 3110 3309
L 2541 3309
L 1638 550
L 1626 550
L 698 3309
L 90 3309
L 1318 0
L 1901 0
z
" transform="scale(0.015625)"/>
       <path id="HelveticaNeue-66" d="M 634 2829
L 634 0
L 1178 0
L 1178 2829
L 1818 2829
L 1818 3309
L 1178 3309
L 1178 3770
Q 1178 3987 1286 4064
Q 1395 4141 1594 4141
Q 1664 4141 1747 4131
Q 1830 4122 1901 4096
L 1901 4570
Q 1824 4595 1725 4608
Q 1626 4621 1549 4621
Q 1101 4621 867 4413
Q 634 4205 634 3802
L 634 3309
L 77 3309
L 77 2829
L 634 2829
z
" transform="scale(0.015625)"/>
       <path id="HelveticaNeue-67" d="M 3264 282
L 3264 3309
L 2752 3309
L 2752 2835
L 2746 2835
Q 2598 3110 2336 3248
Q 2074 3386 1760 3386
Q 1331 3386 1036 3222
Q 742 3059 563 2806
Q 384 2554 307 2243
Q 230 1933 230 1638
Q 230 1299 323 995
Q 416 691 601 464
Q 787 237 1062 102
Q 1338 -32 1709 -32
Q 2029 -32 2313 112
Q 2598 256 2739 563
L 2752 563
L 2752 346
Q 2752 70 2697 -160
Q 2643 -390 2521 -553
Q 2400 -717 2214 -809
Q 2029 -902 1760 -902
Q 1626 -902 1478 -873
Q 1331 -845 1206 -781
Q 1082 -717 995 -614
Q 909 -512 902 -365
L 358 -365
Q 371 -634 499 -819
Q 627 -1005 822 -1120
Q 1018 -1235 1258 -1286
Q 1498 -1338 1728 -1338
Q 2522 -1338 2893 -934
Q 3264 -531 3264 282
z
M 1741 442
Q 1472 442 1293 554
Q 1114 666 1005 848
Q 896 1030 851 1254
Q 806 1478 806 1702
Q 806 1939 860 2156
Q 915 2374 1033 2540
Q 1152 2707 1337 2806
Q 1523 2906 1786 2906
Q 2042 2906 2221 2803
Q 2400 2701 2512 2531
Q 2624 2362 2675 2150
Q 2726 1939 2726 1722
Q 2726 1491 2672 1260
Q 2618 1030 2502 848
Q 2387 666 2198 554
Q 2010 442 1741 442
z
" transform="scale(0.015625)"/>
       <path id="HelveticaNeue-2d" d="M 320 2035
L 320 1523
L 2170 1523
L 2170 2035
L 320 2035
z
" transform="scale(0.015625)"/>
       <path id="HelveticaNeue-68" d="M 410 4570
L 410 0
L 954 0
L 954 1869
Q 954 2093 1014 2281
Q 1075 2470 1196 2611
Q 1318 2752 1500 2829
Q 1683 2906 1933 2906
Q 2246 2906 2425 2726
Q 2605 2547 2605 2240
L 2605 0
L 3149 0
L 3149 2176
Q 3149 2445 3094 2665
Q 3040 2886 2905 3046
Q 2771 3206 2553 3296
Q 2336 3386 2010 3386
Q 1862 3386 1705 3354
Q 1549 3322 1405 3254
Q 1261 3187 1145 3081
Q 1030 2976 966 2822
L 954 2822
L 954 4570
L 410 4570
z
" transform="scale(0.015625)"/>
      </defs>
      <use xlink:href="#HelveticaNeue-63"/>
      <use xlink:href="#HelveticaNeue-6f" transform="translate(53.699997 0)"/>
      <use xlink:href="#HelveticaNeue-73" transform="translate(111.099991 0)"/>
      <use xlink:href="#HelveticaNeue-5f" transform="translate(161.099976 0)"/>
      <use xlink:href="#HelveticaNeue-73" transform="translate(211.09996 0)"/>
      <use xlink:href="#HelveticaNeue-69" transform="translate(261.099945 0)"/>
      <use xlink:href="#HelveticaNeue-6d" transform="translate(283.299942 0)"/>
      <use xlink:href="#HelveticaNeue-20" transform="translate(368.59993 0)"/>
      <use xlink:href="#HelveticaNeue-76" transform="translate(396.399918 0)"/>
      <use xlink:href="#HelveticaNeue-73" transform="translate(446.399902 0)"/>
      <use xlink:href="#HelveticaNeue-20" transform="translate(496.399887 0)"/>
      <use xlink:href="#HelveticaNeue-6f" transform="translate(524.199875 0)"/>
      <use xlink:href="#HelveticaNeue-66" transform="translate(581.599869 0)"/>
      <use xlink:href="#HelveticaNeue-66" transform="translate(609.44986 0)"/>
      <use xlink:href="#HelveticaNeue-6c" transform="translate(639.04985 0)"/>
      <use xlink:href="#HelveticaNeue-69" transform="translate(661.249847 0)"/>
      <use xlink:href="#HelveticaNeue-6e" transform="translate(683.449844 0)"/>
      <use xlink:href="#HelveticaNeue-65" transform="translate(739.049835 0)"/>
      <use xlink:href="#HelveticaNeue-20" transform="translate(792.749832 0)"/>
      <use xlink:href="#HelveticaNeue-73" transform="translate(820.54982 0)"/>
      <use xlink:href="#HelveticaNeue-69" transform="translate(870.549805 0)"/>
      <use xlink:href="#HelveticaNeue-6e" transform="translate(892.749802 0)"/>
      <use xlink:href="#HelveticaNeue-67" transform="translate(948.349792 0)"/>
      <use xlink:href="#HelveticaNeue-6c" transform="translate(1005.749786 0)"/>
      <use xlink:href="#HelveticaNeue-65" transform="translate(1027.949783 0)"/>
      <use xlink:href="#HelveticaNeue-2d" transform="translate(1081.64978 0)"/>
      <use xlink:href="#HelveticaNeue-73" transform="translate(1120.549774 0)"/>
      <use xlink:href="#HelveticaNeue-68" transform="translate(1170.549759 0)"/>
      <use xlink:href="#HelveticaNeue-6f" transform="translate(1226.14975 0)"/>
      <use xlink:href="#HelveticaNeue-74" transform="translate(1283.549744 0)"/>
      <use xlink:href="#HelveticaNeue-20" transform="translate(1315.049728 0)"/>
      <use xlink:href="#HelveticaNeue-72" transform="translate(1342.849716 0)"/>
      <use xlink:href="#HelveticaNeue-65" transform="translate(1374.399704 0)"/>
      <use xlink:href="#HelveticaNeue-66" transform="translate(1428.099701 0)"/>
      <use xlink:href="#HelveticaNeue-65" transform="translate(1457.699692 0)"/>
      <use xlink:href="#HelveticaNeue-72" transform="translate(1511.399689 0)"/>
      <use xlink:href="#HelveticaNeue-65" transform="translate(1542.949677 0)"/>
      <use xlink:href="#HelveticaNeue-6e" transform="translate(1596.649673 0)"/>
      <use xlink:href="#HelveticaNeue-63" transform="translate(1652.249664 0)"/>
      <use xlink:href="#HelveticaNeue-65" transform="translate(1705.949661 0)"/>
      <use xlink:href="#HelveticaNeue-20" transform="translate(1759.649658 0)"/>
      <use xlink:href="#HelveticaNeue-28" transform="translate(1787.449646 0)"/>
      <use xlink:href="#HelveticaNeue-68" transform="translate(1813.34964 0)"/>
      <use xlink:href="#HelveticaNeue-69" transform="translate(1868.949631 0)"/>
      <use xlink:href="#HelveticaNeue-67" transform="translate(1891.149628 0)"/>
      <use xlink:href="#HelveticaNeue-68" transform="translate(1948.549622 0)"/>
      <use xlink:href="#HelveticaNeue-65" transform="translate(2004.149612 0)"/>
      <use xlink:href="#HelveticaNeue-72" transform="translate(2057.849609 0)"/>
      <use xlink:href="#HelveticaNeue-20" transform="translate(2091.149597 0)"/>
      <use xlink:href="#HelveticaNeue-69" transform="translate(2118.949585 0)"/>
      <use xlink:href="#HelveticaNeue-73" transform="translate(2141.149582 0)"/>
      <use xlink:href="#HelveticaNeue-20" transform="translate(2191.149567 0)"/>
      <use xlink:href="#HelveticaNeue-62" transform="translate(2218.949554 0)"/>
      <use xlink:href="#HelveticaNeue-65" transform="translate(2278.249542 0)"/>
      <use xlink:href="#HelveticaNeue-74" transform="translate(2331.949539 0)"/>
      <use xlink:href="#HelveticaNeue-74" transform="translate(2363.449524 0)"/>
      <use xlink:href="#HelveticaNeue-65" transform="translate(2394.949509 0)"/>
      <use xlink:href="#HelveticaNeue-72" transform="translate(2448.649506 0)"/>
      <use xlink:href="#HelveticaNeue-29" transform="translate(2481.949493 0)"/>
     </g>
    </g>
   </g>
   <g id="PathCollection_1">
    <defs>
     <path id="m957c9ad9c0" d="M 0 5.244044
C 1.390737 5.244044 2.7247 4.691499 3.708099 3.708099
C 4.691499 2.7247 5.244044 1.390737 5.244044 0
C 5.244044 -1.390737 4.691499 -2.7247 3.708099 -3.708099
C 2.7247 -4.691499 1.390737 -5.244044 0 -5.244044
C -1.390737 -5.244044 -2.7247 -4.691499 -3.708099 -3.708099
C -4.691499 -2.7247 -5.244044 -1.390737 -5.244044 0
C -5.244044 1.390737 -4.691499 2.7247 -3.708099 3.708099
C -2.7247 4.691499 -1.390737 5.244044 0 5.244044
z
" style="stroke: #ffffff; stroke-opacity: 0.55; stroke-width: 1.2"/>
    </defs>
    <g clip-path="url(#p0f1d65b013)">
     <use xlink:href="#m957c9ad9c0" x="193.832714" y="106.137507" style="fill: #7f8c8d; fill-opacity: 0.55; stroke: #ffffff; stroke-opacity: 0.55; stroke-width: 1.2"/>
    </g>
   </g>
   <g id="PathCollection_2">
    <g clip-path="url(#p0f1d65b013)">
     <use xlink:href="#m957c9ad9c0" x="236.349308" y="162.494562" style="fill: #7f8c8d; fill-opacity: 0.55; stroke: #ffffff; stroke-opacity: 0.55; stroke-width: 1.2"/>
    </g>
   </g>
   <g id="PathCollection_3">
    <g clip-path="url(#p0f1d65b013)">
     <use xlink:href="#m957c9ad9c0" x="380.912113" y="271.774682" style="fill: #7f8c8d; fill-opacity: 0.55; stroke: #ffffff; stroke-opacity: 0.55; stroke-width: 1.2"/>
    </g>
   </g>
   <g id="PathCollection_4">
    <g clip-path="url(#p0f1d65b013)">
     <use xlink:href="#m957c9ad9c0" x="100.067704" y="245.218885" style="fill: #7f8c8d; fill-opacity: 0.55; stroke: #ffffff; stroke-opacity: 0.55; stroke-width: 1.2"/>
    </g>
   </g>
   <g id="patch_3">
    <path d="M 44.172031 283.2305
L 44.172031 31.2025
" style="fill: none; stroke: #000000; stroke-width: 0.8; stroke-linejoin: miter; stroke-linecap: square"/>
   </g>
   <g id="patch_4">
    <path d="M 44.172031 283.2305
L 434.606577 283.2305
" style="fill: none; stroke: #000000; stroke-width: 0.8; stroke-linejoin: miter; stroke-linecap: square"/>
   </g>
   <g id="text_13">
    <!-- gemma4:e2b-mlx -->
    <g style="fill: #7f8c8d" transform="translate(200.832714 108.137507) scale(0.075 -0.075)">
     <defs>
      <path id="HelveticaNeue-3a" d="M 1242 2598
L 1242 3309
L 531 3309
L 531 2598
L 1242 2598
z
M 531 710
L 531 0
L 1242 0
L 1242 710
L 531 710
z
" transform="scale(0.015625)"/>
      <path id="HelveticaNeue-78" d="M 1299 1741
L 58 0
L 717 0
L 1638 1370
L 2560 0
L 3258 0
L 1978 1786
L 3117 3309
L 2464 3309
L 1638 2150
L 845 3309
L 147 3309
L 1299 1741
z
" transform="scale(0.015625)"/>
     </defs>
     <use xlink:href="#HelveticaNeue-67"/>
     <use xlink:href="#HelveticaNeue-65" transform="translate(57.399994 0)"/>
     <use xlink:href="#HelveticaNeue-6d" transform="translate(111.099991 0)"/>
     <use xlink:href="#HelveticaNeue-6d" transform="translate(196.399979 0)"/>
     <use xlink:href="#HelveticaNeue-61" transform="translate(281.699966 0)"/>
     <use xlink:href="#HelveticaNeue-34" transform="translate(335.399963 0)"/>
     <use xlink:href="#HelveticaNeue-3a" transform="translate(390.999954 0)"/>
     <use xlink:href="#HelveticaNeue-65" transform="translate(418.799942 0)"/>
     <use xlink:href="#HelveticaNeue-32" transform="translate(472.499939 0)"/>
     <use xlink:href="#HelveticaNeue-62" transform="translate(528.09993 0)"/>
     <use xlink:href="#HelveticaNeue-2d" transform="translate(587.399918 0)"/>
     <use xlink:href="#HelveticaNeue-6d" transform="translate(626.299911 0)"/>
     <use xlink:href="#HelveticaNeue-6c" transform="translate(711.599899 0)"/>
     <use xlink:href="#HelveticaNeue-78" transform="translate(733.799896 0)"/>
    </g>
   </g>
   <g id="text_14">
    <!-- gemma4:e4b-mlx -->
    <g style="fill: #7f8c8d" transform="translate(243.349308 164.494562) scale(0.075 -0.075)">
     <use xlink:href="#HelveticaNeue-67"/>
     <use xlink:href="#HelveticaNeue-65" transform="translate(57.399994 0)"/>
     <use xlink:href="#HelveticaNeue-6d" transform="translate(111.099991 0)"/>
     <use xlink:href="#HelveticaNeue-6d" transform="translate(196.399979 0)"/>
     <use xlink:href="#HelveticaNeue-61" transform="translate(281.699966 0)"/>
     <use xlink:href="#HelveticaNeue-34" transform="translate(335.399963 0)"/>
     <use xlink:href="#HelveticaNeue-3a" transform="translate(390.999954 0)"/>
     <use xlink:href="#HelveticaNeue-65" transform="translate(418.799942 0)"/>
     <use xlink:href="#HelveticaNeue-34" transform="translate(472.499939 0)"/>
     <use xlink:href="#HelveticaNeue-62" transform="translate(528.09993 0)"/>
     <use xlink:href="#HelveticaNeue-2d" transform="translate(587.399918 0)"/>
     <use xlink:href="#HelveticaNeue-6d" transform="translate(626.299911 0)"/>
     <use xlink:href="#HelveticaNeue-6c" transform="translate(711.599899 0)"/>
     <use xlink:href="#HelveticaNeue-78" transform="translate(733.799896 0)"/>
    </g>
   </g>
   <g id="text_15">
    <!-- qwen3:8b -->
    <g style="fill: #7f8c8d" transform="translate(387.912113 273.774682) scale(0.075 -0.075)">
     <defs>
      <path id="HelveticaNeue-71" d="M 806 1626
Q 806 1869 857 2099
Q 909 2330 1024 2509
Q 1139 2688 1331 2797
Q 1523 2906 1798 2906
Q 2080 2906 2278 2800
Q 2477 2694 2601 2521
Q 2726 2349 2784 2121
Q 2842 1894 2842 1651
Q 2842 1421 2787 1197
Q 2733 973 2611 797
Q 2490 621 2298 512
Q 2106 403 1830 403
Q 1568 403 1373 505
Q 1178 608 1053 781
Q 928 954 867 1174
Q 806 1395 806 1626
z
M 3366 -1261
L 3366 3309
L 2822 3309
L 2822 2867
L 2810 2867
Q 2720 3014 2589 3113
Q 2458 3213 2310 3273
Q 2163 3334 2016 3360
Q 1869 3386 1741 3386
Q 1363 3386 1078 3248
Q 794 3110 605 2876
Q 416 2643 323 2329
Q 230 2016 230 1664
Q 230 1312 326 998
Q 422 685 611 448
Q 800 211 1085 70
Q 1370 -70 1754 -70
Q 2099 -70 2387 51
Q 2675 173 2810 448
L 2822 448
L 2822 -1261
L 3366 -1261
z
" transform="scale(0.015625)"/>
     </defs>
     <use xlink:href="#HelveticaNeue-71"/>
     <use xlink:href="#HelveticaNeue-77" transform="translate(59.299988 0)"/>
     <use xlink:href="#HelveticaNeue-65" transform="translate(135.099976 0)"/>
     <use xlink:href="#HelveticaNeue-6e" transform="translate(188.799973 0)"/>
     <use xlink:href="#HelveticaNeue-33" transform="translate(244.399963 0)"/>
     <use xlink:href="#HelveticaNeue-3a" transform="translate(299.999954 0)"/>
     <use xlink:href="#HelveticaNeue-38" transform="translate(327.799942 0)"/>
     <use xlink:href="#HelveticaNeue-62" transform="translate(383.399933 0)"/>
    </g>
   </g>
   <g id="text_16">
    <!-- llama3.2:3b -->
    <g style="fill: #7f8c8d" transform="translate(107.067704 247.218885) scale(0.075 -0.075)">
     <use xlink:href="#HelveticaNeue-6c"/>
     <use xlink:href="#HelveticaNeue-6c" transform="translate(22.199997 0)"/>
     <use xlink:href="#HelveticaNeue-61" transform="translate(44.399994 0)"/>
     <use xlink:href="#HelveticaNeue-6d" transform="translate(98.099991 0)"/>
     <use xlink:href="#HelveticaNeue-61" transform="translate(183.399979 0)"/>
     <use xlink:href="#HelveticaNeue-33" transform="translate(237.099976 0)"/>
     <use xlink:href="#HelveticaNeue-2e" transform="translate(292.699966 0)"/>
     <use xlink:href="#HelveticaNeue-32" transform="translate(320.499954 0)"/>
     <use xlink:href="#HelveticaNeue-3a" transform="translate(376.099945 0)"/>
     <use xlink:href="#HelveticaNeue-33" transform="translate(403.899933 0)"/>
     <use xlink:href="#HelveticaNeue-62" transform="translate(459.499924 0)"/>
    </g>
   </g>
   <g id="line2d_37">
    <path d="M 61.919056 195.472276
L 135.373365 90.134055
L 416.859552 42.658318
" clip-path="url(#p0f1d65b013)" style="fill: none; stroke-dasharray: 5.92,2.56; stroke-dashoffset: 0; stroke: #ff3b30; stroke-opacity: 0.9; stroke-width: 1.6"/>
   </g>
   <g id="text_17">
    <!-- gemma4:12b-mlx -->
    <g style="fill: #222222" transform="translate(424.859552 36.658318) scale(0.085 -0.085)">
     <use xlink:href="#HelveticaNeue-67"/>
     <use xlink:href="#HelveticaNeue-65" transform="translate(57.399994 0)"/>
     <use xlink:href="#HelveticaNeue-6d" transform="translate(111.099991 0)"/>
     <use xlink:href="#HelveticaNeue-6d" transform="translate(196.399979 0)"/>
     <use xlink:href="#HelveticaNeue-61" transform="translate(281.699966 0)"/>
     <use xlink:href="#HelveticaNeue-34" transform="translate(335.399963 0)"/>
     <use xlink:href="#HelveticaNeue-3a" transform="translate(390.999954 0)"/>
     <use xlink:href="#HelveticaNeue-31" transform="translate(418.799942 0)"/>
     <use xlink:href="#HelveticaNeue-32" transform="translate(474.399933 0)"/>
     <use xlink:href="#HelveticaNeue-62" transform="translate(529.999924 0)"/>
     <use xlink:href="#HelveticaNeue-2d" transform="translate(589.299911 0)"/>
     <use xlink:href="#HelveticaNeue-6d" transform="translate(628.199905 0)"/>
     <use xlink:href="#HelveticaNeue-6c" transform="translate(713.499893 0)"/>
     <use xlink:href="#HelveticaNeue-78" transform="translate(735.69989 0)"/>
    </g>
   </g>
   <g id="text_18">
    <!-- ★ gemma3:4b -->
    <g style="fill: #222222" transform="translate(143.373365 84.134055) scale(0.085 -0.085)">
     <defs>
      <path id="DejaVuSans-Bold-2605" d="M 416 2850
L 2288 2850
L 2869 4628
L 3453 2850
L 5322 2850
L 3809 1747
L 4391 -28
L 2869 1072
L 1350 -28
L 1928 1747
L 416 2850
z
" transform="scale(0.015625)"/>
     </defs>
     <use xlink:href="#DejaVuSans-Bold-2605"/>
     <use xlink:href="#HelveticaNeue-20" transform="translate(89.648438 0)"/>
     <use xlink:href="#HelveticaNeue-67" transform="translate(117.448425 0)"/>
     <use xlink:href="#HelveticaNeue-65" transform="translate(174.848419 0)"/>
     <use xlink:href="#HelveticaNeue-6d" transform="translate(228.548416 0)"/>
     <use xlink:href="#HelveticaNeue-6d" transform="translate(313.848404 0)"/>
     <use xlink:href="#HelveticaNeue-61" transform="translate(399.148392 0)"/>
     <use xlink:href="#HelveticaNeue-33" transform="translate(452.848389 0)"/>
     <use xlink:href="#HelveticaNeue-3a" transform="translate(508.44838 0)"/>
     <use xlink:href="#HelveticaNeue-34" transform="translate(536.248367 0)"/>
     <use xlink:href="#HelveticaNeue-62" transform="translate(591.848358 0)"/>
    </g>
   </g>
   <g id="text_19">
    <!-- qwen2.5:3b -->
    <g style="fill: #222222" transform="translate(69.919056 189.472276) scale(0.085 -0.085)">
     <use xlink:href="#HelveticaNeue-71"/>
     <use xlink:href="#HelveticaNeue-77" transform="translate(59.299988 0)"/>
     <use xlink:href="#HelveticaNeue-65" transform="translate(135.099976 0)"/>
     <use xlink:href="#HelveticaNeue-6e" transform="translate(188.799973 0)"/>
     <use xlink:href="#HelveticaNeue-32" transform="translate(244.399963 0)"/>
     <use xlink:href="#HelveticaNeue-2e" transform="translate(299.999954 0)"/>
     <use xlink:href="#HelveticaNeue-35" transform="translate(327.799942 0)"/>
     <use xlink:href="#HelveticaNeue-3a" transform="translate(383.399933 0)"/>
     <use xlink:href="#HelveticaNeue-33" transform="translate(411.199921 0)"/>
     <use xlink:href="#HelveticaNeue-62" transform="translate(466.799911 0)"/>
    </g>
   </g>
   <g id="text_20">
    <!-- LLM analyst — 7-model Pareto on a 16-minute team meeting -->
    <g transform="translate(44.172031 14.340625) scale(0.1 -0.1)">
     <defs>
      <path id="HelveticaNeue-4c" d="M 499 4570
L 499 0
L 3526 0
L 3526 512
L 1107 512
L 1107 4570
L 499 4570
z
" transform="scale(0.015625)"/>
      <path id="HelveticaNeue-4d" d="M 512 4570
L 512 0
L 1088 0
L 1088 3802
L 1101 3802
L 2528 0
L 3046 0
L 4474 3802
L 4486 3802
L 4486 0
L 5062 0
L 5062 4570
L 4230 4570
L 2784 730
L 1344 4570
L 512 4570
z
" transform="scale(0.015625)"/>
      <path id="HelveticaNeue-79" d="M 1709 -442
Q 1613 -685 1520 -851
Q 1427 -1018 1315 -1123
Q 1203 -1229 1065 -1277
Q 928 -1325 749 -1325
Q 653 -1325 557 -1312
Q 461 -1299 371 -1267
L 371 -768
Q 442 -800 534 -822
Q 627 -845 691 -845
Q 858 -845 970 -765
Q 1082 -685 1139 -538
L 1363 19
L 51 3309
L 666 3309
L 1632 602
L 1645 602
L 2573 3309
L 3149 3309
L 1709 -442
z
" transform="scale(0.015625)"/>
      <path id="HelveticaNeue-2014" d="M 832 2035
L 832 1523
L 5568 1523
L 5568 2035
L 832 2035
z
" transform="scale(0.015625)"/>
      <path id="HelveticaNeue-37" d="M 3258 3994
L 3258 4461
L 320 4461
L 320 3949
L 2701 3949
Q 2342 3571 2032 3123
Q 1722 2675 1485 2172
Q 1248 1670 1097 1123
Q 947 576 909 0
L 1517 0
Q 1549 531 1696 1094
Q 1843 1658 2076 2189
Q 2310 2720 2611 3187
Q 2912 3654 3258 3994
z
" transform="scale(0.015625)"/>
      <path id="HelveticaNeue-50" d="M 1107 2381
L 1107 4058
L 2298 4058
Q 2816 4058 3056 3843
Q 3296 3629 3296 3219
Q 3296 2810 3056 2592
Q 2816 2374 2298 2381
L 1107 2381
z
M 499 4570
L 499 0
L 1107 0
L 1107 1869
L 2502 1869
Q 3194 1862 3549 2220
Q 3904 2579 3904 3219
Q 3904 3859 3549 4214
Q 3194 4570 2502 4570
L 499 4570
z
" transform="scale(0.015625)"/>
     </defs>
     <use xlink:href="#HelveticaNeue-4c"/>
     <use xlink:href="#HelveticaNeue-4c" transform="translate(55.599991 0)"/>
     <use xlink:href="#HelveticaNeue-4d" transform="translate(111.199982 0)"/>
     <use xlink:href="#HelveticaNeue-20" transform="translate(198.299973 0)"/>
     <use xlink:href="#HelveticaNeue-61" transform="translate(226.09996 0)"/>
     <use xlink:href="#HelveticaNeue-6e" transform="translate(279.799957 0)"/>
     <use xlink:href="#HelveticaNeue-61" transform="translate(335.399948 0)"/>
     <use xlink:href="#HelveticaNeue-6c" transform="translate(389.099945 0)"/>
     <use xlink:href="#HelveticaNeue-79" transform="translate(411.299942 0)"/>
     <use xlink:href="#HelveticaNeue-73" transform="translate(461.299927 0)"/>
     <use xlink:href="#HelveticaNeue-74" transform="translate(511.299911 0)"/>
     <use xlink:href="#HelveticaNeue-20" transform="translate(542.799896 0)"/>
     <use xlink:href="#HelveticaNeue-2014" transform="translate(570.599884 0)"/>
     <use xlink:href="#HelveticaNeue-20" transform="translate(670.599869 0)"/>
     <use xlink:href="#HelveticaNeue-37" transform="translate(698.399857 0)"/>
     <use xlink:href="#HelveticaNeue-2d" transform="translate(753.999847 0)"/>
     <use xlink:href="#HelveticaNeue-6d" transform="translate(792.899841 0)"/>
     <use xlink:href="#HelveticaNeue-6f" transform="translate(878.199829 0)"/>
     <use xlink:href="#HelveticaNeue-64" transform="translate(935.599823 0)"/>
     <use xlink:href="#HelveticaNeue-65" transform="translate(994.899811 0)"/>
     <use xlink:href="#HelveticaNeue-6c" transform="translate(1048.599808 0)"/>
     <use xlink:href="#HelveticaNeue-20" transform="translate(1070.799805 0)"/>
     <use xlink:href="#HelveticaNeue-50" transform="translate(1098.599792 0)"/>
     <use xlink:href="#HelveticaNeue-61" transform="translate(1163.39978 0)"/>
     <use xlink:href="#HelveticaNeue-72" transform="translate(1217.099777 0)"/>
     <use xlink:href="#HelveticaNeue-65" transform="translate(1248.649765 0)"/>
     <use xlink:href="#HelveticaNeue-74" transform="translate(1302.349762 0)"/>
     <use xlink:href="#HelveticaNeue-6f" transform="translate(1333.849747 0)"/>
     <use xlink:href="#HelveticaNeue-20" transform="translate(1391.249741 0)"/>
     <use xlink:href="#HelveticaNeue-6f" transform="translate(1419.049728 0)"/>
     <use xlink:href="#HelveticaNeue-6e" transform="translate(1476.449722 0)"/>
     <use xlink:href="#HelveticaNeue-20" transform="translate(1532.049713 0)"/>
     <use xlink:href="#HelveticaNeue-61" transform="translate(1559.849701 0)"/>
     <use xlink:href="#HelveticaNeue-20" transform="translate(1613.549698 0)"/>
     <use xlink:href="#HelveticaNeue-31" transform="translate(1641.349686 0)"/>
     <use xlink:href="#HelveticaNeue-36" transform="translate(1696.949677 0)"/>
     <use xlink:href="#HelveticaNeue-2d" transform="translate(1752.549667 0)"/>
     <use xlink:href="#HelveticaNeue-6d" transform="translate(1791.449661 0)"/>
     <use xlink:href="#HelveticaNeue-69" transform="translate(1876.749649 0)"/>
     <use xlink:href="#HelveticaNeue-6e" transform="translate(1898.949646 0)"/>
     <use xlink:href="#HelveticaNeue-75" transform="translate(1954.549637 0)"/>
     <use xlink:href="#HelveticaNeue-74" transform="translate(2010.149628 0)"/>
     <use xlink:href="#HelveticaNeue-65" transform="translate(2041.649612 0)"/>
     <use xlink:href="#HelveticaNeue-20" transform="translate(2095.349609 0)"/>
     <use xlink:href="#HelveticaNeue-74" transform="translate(2123.149597 0)"/>
     <use xlink:href="#HelveticaNeue-65" transform="translate(2154.649582 0)"/>
     <use xlink:href="#HelveticaNeue-61" transform="translate(2208.349579 0)"/>
     <use xlink:href="#HelveticaNeue-6d" transform="translate(2262.049576 0)"/>
     <use xlink:href="#HelveticaNeue-20" transform="translate(2347.349564 0)"/>
     <use xlink:href="#HelveticaNeue-6d" transform="translate(2375.149551 0)"/>
     <use xlink:href="#HelveticaNeue-65" transform="translate(2460.449539 0)"/>
     <use xlink:href="#HelveticaNeue-65" transform="translate(2514.149536 0)"/>
     <use xlink:href="#HelveticaNeue-74" transform="translate(2567.849533 0)"/>
     <use xlink:href="#HelveticaNeue-69" transform="translate(2599.349518 0)"/>
     <use xlink:href="#HelveticaNeue-6e" transform="translate(2621.549515 0)"/>
     <use xlink:href="#HelveticaNeue-67" transform="translate(2677.149506 0)"/>
    </g>
    <!-- (4 speakers, technical kickoff ; refresh every 60 s of content ; study : studies/llm_model_size_sweep.py, 2026-06-30) -->
    <g transform="translate(44.172031 25.2025) scale(0.1 -0.1)">
     <defs>
      <path id="HelveticaNeue-70" d="M 429 3309
L 429 -1261
L 973 -1261
L 973 442
L 986 442
Q 1075 294 1206 195
Q 1338 96 1485 38
Q 1632 -19 1782 -44
Q 1933 -70 2054 -70
Q 2432 -70 2717 64
Q 3002 198 3190 432
Q 3379 666 3472 979
Q 3565 1293 3565 1645
Q 3565 1997 3469 2310
Q 3373 2624 3184 2864
Q 2995 3104 2710 3245
Q 2426 3386 2042 3386
Q 1696 3386 1408 3261
Q 1120 3136 986 2861
L 973 2861
L 973 3309
L 429 3309
z
M 2989 1683
Q 2989 1440 2937 1209
Q 2886 979 2771 800
Q 2656 621 2467 512
Q 2278 403 1997 403
Q 1715 403 1516 508
Q 1318 614 1193 787
Q 1069 960 1011 1187
Q 954 1414 954 1658
Q 954 1888 1008 2112
Q 1062 2336 1184 2512
Q 1306 2688 1498 2797
Q 1690 2906 1965 2906
Q 2227 2906 2422 2803
Q 2618 2701 2742 2528
Q 2867 2355 2928 2134
Q 2989 1914 2989 1683
z
" transform="scale(0.015625)"/>
      <path id="HelveticaNeue-6b" d="M 442 4570
L 442 0
L 986 0
L 986 1254
L 1498 1728
L 2630 0
L 3322 0
L 1914 2106
L 3226 3309
L 2496 3309
L 986 1862
L 986 4570
L 442 4570
z
" transform="scale(0.015625)"/>
      <path id="HelveticaNeue-2c" d="M 531 710
L 531 0
L 909 0
Q 915 -77 899 -166
Q 883 -256 838 -342
Q 794 -429 720 -502
Q 646 -576 538 -614
L 538 -934
Q 909 -826 1075 -563
Q 1242 -301 1242 64
L 1242 710
L 531 710
z
" transform="scale(0.015625)"/>
      <path id="HelveticaNeue-7a" d="M 141 416
L 141 0
L 2931 0
L 2931 480
L 819 480
L 2842 2938
L 2842 3309
L 269 3309
L 269 2829
L 2138 2829
L 141 416
z
" transform="scale(0.015625)"/>
     </defs>
     <use xlink:href="#HelveticaNeue-28"/>
     <use xlink:href="#HelveticaNeue-34" transform="translate(25.899994 0)"/>
     <use xlink:href="#HelveticaNeue-20" transform="translate(81.499985 0)"/>
     <use xlink:href="#HelveticaNeue-73" transform="translate(109.299973 0)"/>
     <use xlink:href="#HelveticaNeue-70" transform="translate(159.299957 0)"/>
     <use xlink:href="#HelveticaNeue-65" transform="translate(218.599945 0)"/>
     <use xlink:href="#HelveticaNeue-61" transform="translate(272.299942 0)"/>
     <use xlink:href="#HelveticaNeue-6b" transform="translate(325.999939 0)"/>
     <use xlink:href="#HelveticaNeue-65" transform="translate(377.899933 0)"/>
     <use xlink:href="#HelveticaNeue-72" transform="translate(431.59993 0)"/>
     <use xlink:href="#HelveticaNeue-73" transform="translate(464.899918 0)"/>
     <use xlink:href="#HelveticaNeue-2c" transform="translate(514.899902 0)"/>
     <use xlink:href="#HelveticaNeue-20" transform="translate(542.69989 0)"/>
     <use xlink:href="#HelveticaNeue-74" transform="translate(570.499878 0)"/>
     <use xlink:href="#HelveticaNeue-65" transform="translate(601.999863 0)"/>
     <use xlink:href="#HelveticaNeue-63" transform="translate(655.69986 0)"/>
     <use xlink:href="#HelveticaNeue-68" transform="translate(709.399857 0)"/>
     <use xlink:href="#HelveticaNeue-6e" transform="translate(764.999847 0)"/>
     <use xlink:href="#HelveticaNeue-69" transform="translate(820.599838 0)"/>
     <use xlink:href="#HelveticaNeue-63" transform="translate(842.799835 0)"/>
     <use xlink:href="#HelveticaNeue-61" transform="translate(896.499832 0)"/>
     <use xlink:href="#HelveticaNeue-6c" transform="translate(950.199829 0)"/>
     <use xlink:href="#HelveticaNeue-20" transform="translate(972.399826 0)"/>
     <use xlink:href="#HelveticaNeue-6b" transform="translate(1000.199814 0)"/>
     <use xlink:href="#HelveticaNeue-69" transform="translate(1052.099808 0)"/>
     <use xlink:href="#HelveticaNeue-63" transform="translate(1074.299805 0)"/>
     <use xlink:href="#HelveticaNeue-6b" transform="translate(1127.999802 0)"/>
     <use xlink:href="#HelveticaNeue-6f" transform="translate(1179.899796 0)"/>
     <use xlink:href="#HelveticaNeue-66" transform="translate(1237.299789 0)"/>
     <use xlink:href="#HelveticaNeue-66" transform="translate(1265.14978 0)"/>
     <use xlink:href="#HelveticaNeue-20" transform="translate(1294.749771 0)"/>
     <use xlink:href="#HelveticaNeue-3b" transform="translate(1322.549759 0)"/>
     <use xlink:href="#HelveticaNeue-20" transform="translate(1350.349747 0)"/>
     <use xlink:href="#HelveticaNeue-72" transform="translate(1378.149734 0)"/>
     <use xlink:href="#HelveticaNeue-65" transform="translate(1409.699722 0)"/>
     <use xlink:href="#HelveticaNeue-66" transform="translate(1463.399719 0)"/>
     <use xlink:href="#HelveticaNeue-72" transform="translate(1492.99971 0)"/>
     <use xlink:href="#HelveticaNeue-65" transform="translate(1524.549698 0)"/>
     <use xlink:href="#HelveticaNeue-73" transform="translate(1578.249695 0)"/>
     <use xlink:href="#HelveticaNeue-68" transform="translate(1628.24968 0)"/>
     <use xlink:href="#HelveticaNeue-20" transform="translate(1683.84967 0)"/>
     <use xlink:href="#HelveticaNeue-65" transform="translate(1711.649658 0)"/>
     <use xlink:href="#HelveticaNeue-76" transform="translate(1765.349655 0)"/>
     <use xlink:href="#HelveticaNeue-65" transform="translate(1815.34964 0)"/>
     <use xlink:href="#HelveticaNeue-72" transform="translate(1869.049637 0)"/>
     <use xlink:href="#HelveticaNeue-79" transform="translate(1902.349625 0)"/>
     <use xlink:href="#HelveticaNeue-20" transform="translate(1952.349609 0)"/>
     <use xlink:href="#HelveticaNeue-36" transform="translate(1980.149597 0)"/>
     <use xlink:href="#HelveticaNeue-30" transform="translate(2035.749588 0)"/>
     <use xlink:href="#HelveticaNeue-20" transform="translate(2091.349579 0)"/>
     <use xlink:href="#HelveticaNeue-73" transform="translate(2119.149567 0)"/>
     <use xlink:href="#HelveticaNeue-20" transform="translate(2169.149551 0)"/>
     <use xlink:href="#HelveticaNeue-6f" transform="translate(2196.949539 0)"/>
     <use xlink:href="#HelveticaNeue-66" transform="translate(2254.349533 0)"/>
     <use xlink:href="#HelveticaNeue-20" transform="translate(2283.949524 0)"/>
     <use xlink:href="#HelveticaNeue-63" transform="translate(2311.749512 0)"/>
     <use xlink:href="#HelveticaNeue-6f" transform="translate(2365.449509 0)"/>
     <use xlink:href="#HelveticaNeue-6e" transform="translate(2422.849503 0)"/>
     <use xlink:href="#HelveticaNeue-74" transform="translate(2478.449493 0)"/>
     <use xlink:href="#HelveticaNeue-65" transform="translate(2509.949478 0)"/>
     <use xlink:href="#HelveticaNeue-6e" transform="translate(2563.649475 0)"/>
     <use xlink:href="#HelveticaNeue-74" transform="translate(2619.249466 0)"/>
     <use xlink:href="#HelveticaNeue-20" transform="translate(2650.749451 0)"/>
     <use xlink:href="#HelveticaNeue-3b" transform="translate(2678.549438 0)"/>
     <use xlink:href="#HelveticaNeue-20" transform="translate(2706.349426 0)"/>
     <use xlink:href="#HelveticaNeue-73" transform="translate(2734.149414 0)"/>
     <use xlink:href="#HelveticaNeue-74" transform="translate(2784.149399 0)"/>
     <use xlink:href="#HelveticaNeue-75" transform="translate(2815.649384 0)"/>
     <use xlink:href="#HelveticaNeue-64" transform="translate(2871.249374 0)"/>
     <use xlink:href="#HelveticaNeue-79" transform="translate(2930.549362 0)"/>
     <use xlink:href="#HelveticaNeue-20" transform="translate(2980.549347 0)"/>
     <use xlink:href="#HelveticaNeue-3a" transform="translate(3008.349335 0)"/>
     <use xlink:href="#HelveticaNeue-20" transform="translate(3036.149323 0)"/>
     <use xlink:href="#HelveticaNeue-73" transform="translate(3063.94931 0)"/>
     <use xlink:href="#HelveticaNeue-74" transform="translate(3113.949295 0)"/>
     <use xlink:href="#HelveticaNeue-75" transform="translate(3145.44928 0)"/>
     <use xlink:href="#HelveticaNeue-64" transform="translate(3201.049271 0)"/>
     <use xlink:href="#HelveticaNeue-69" transform="translate(3260.349258 0)"/>
     <use xlink:href="#HelveticaNeue-65" transform="translate(3282.549255 0)"/>
     <use xlink:href="#HelveticaNeue-73" transform="translate(3336.249252 0)"/>
     <use xlink:href="#HelveticaNeue-2f" transform="translate(3386.249237 0)"/>
     <use xlink:href="#HelveticaNeue-6c" transform="translate(3419.549225 0)"/>
     <use xlink:href="#HelveticaNeue-6c" transform="translate(3441.749222 0)"/>
     <use xlink:href="#HelveticaNeue-6d" transform="translate(3463.949219 0)"/>
     <use xlink:href="#HelveticaNeue-5f" transform="translate(3549.249207 0)"/>
     <use xlink:href="#HelveticaNeue-6d" transform="translate(3599.249191 0)"/>
     <use xlink:href="#HelveticaNeue-6f" transform="translate(3684.549179 0)"/>
     <use xlink:href="#HelveticaNeue-64" transform="translate(3741.949173 0)"/>
     <use xlink:href="#HelveticaNeue-65" transform="translate(3801.249161 0)"/>
     <use xlink:href="#HelveticaNeue-6c" transform="translate(3854.949158 0)"/>
     <use xlink:href="#HelveticaNeue-5f" transform="translate(3877.149155 0)"/>
     <use xlink:href="#HelveticaNeue-73" transform="translate(3927.149139 0)"/>
     <use xlink:href="#HelveticaNeue-69" transform="translate(3977.149124 0)"/>
     <use xlink:href="#HelveticaNeue-7a" transform="translate(3999.349121 0)"/>
     <use xlink:href="#HelveticaNeue-65" transform="translate(4047.349106 0)"/>
     <use xlink:href="#HelveticaNeue-5f" transform="translate(4101.049103 0)"/>
     <use xlink:href="#HelveticaNeue-73" transform="translate(4151.049088 0)"/>
     <use xlink:href="#HelveticaNeue-77" transform="translate(4201.049072 0)"/>
     <use xlink:href="#HelveticaNeue-65" transform="translate(4276.84906 0)"/>
     <use xlink:href="#HelveticaNeue-65" transform="translate(4330.549057 0)"/>
     <use xlink:href="#HelveticaNeue-70" transform="translate(4384.249054 0)"/>
     <use xlink:href="#HelveticaNeue-2e" transform="translate(4443.549042 0)"/>
     <use xlink:href="#HelveticaNeue-70" transform="translate(4471.34903 0)"/>
     <use xlink:href="#HelveticaNeue-79" transform="translate(4530.649017 0)"/>
     <use xlink:href="#HelveticaNeue-2c" transform="translate(4573.274002 0)"/>
     <use xlink:href="#HelveticaNeue-20" transform="translate(4601.07399 0)"/>
     <use xlink:href="#HelveticaNeue-32" transform="translate(4628.873978 0)"/>
     <use xlink:href="#HelveticaNeue-30" transform="translate(4684.473969 0)"/>
     <use xlink:href="#HelveticaNeue-32" transform="translate(4740.073959 0)"/>
     <use xlink:href="#HelveticaNeue-36" transform="translate(4795.67395 0)"/>
     <use xlink:href="#HelveticaNeue-2d" transform="translate(4851.273941 0)"/>
     <use xlink:href="#HelveticaNeue-30" transform="translate(4890.173935 0)"/>
     <use xlink:href="#HelveticaNeue-36" transform="translate(4945.773926 0)"/>
     <use xlink:href="#HelveticaNeue-2d" transform="translate(5001.373917 0)"/>
     <use xlink:href="#HelveticaNeue-33" transform="translate(5040.273911 0)"/>
     <use xlink:href="#HelveticaNeue-30" transform="translate(5095.873901 0)"/>
     <use xlink:href="#HelveticaNeue-29" transform="translate(5151.473892 0)"/>
    </g>
   </g>
   <g id="PathCollection_5">
    <defs>
     <path id="m89c88b2250" d="M 0 5.700877
C 1.51189 5.700877 2.962061 5.100197 4.031129 4.031129
C 5.100197 2.962061 5.700877 1.51189 5.700877 0
C 5.700877 -1.51189 5.100197 -2.962061 4.031129 -4.031129
C 2.962061 -5.100197 1.51189 -5.700877 0 -5.700877
C -1.51189 -5.700877 -2.962061 -5.100197 -4.031129 -4.031129
C -5.100197 -2.962061 -5.700877 -1.51189 -5.700877 0
C -5.700877 1.51189 -5.100197 2.962061 -4.031129 4.031129
C -2.962061 5.100197 -1.51189 5.700877 0 5.700877
z
" style="stroke: #ffffff; stroke-width: 1.6"/>
    </defs>
    <g clip-path="url(#p0f1d65b013)">
     <use xlink:href="#m89c88b2250" x="416.859552" y="42.658318" style="fill: #ff3b30; stroke: #ffffff; stroke-width: 1.6"/>
    </g>
   </g>
   <g id="PathCollection_6">
    <defs>
     <path id="m84ce82ab50" d="M 0 6.708204
C 1.779036 6.708204 3.485448 6.001385 4.743416 4.743416
C 6.001385 3.485448 6.708204 1.779036 6.708204 0
C 6.708204 -1.779036 6.001385 -3.485448 4.743416 -4.743416
C 3.485448 -6.001385 1.779036 -6.708204 0 -6.708204
C -1.779036 -6.708204 -3.485448 -6.001385 -4.743416 -4.743416
C -6.001385 -3.485448 -6.708204 -1.779036 -6.708204 0
C -6.708204 1.779036 -6.001385 3.485448 -4.743416 4.743416
C -3.485448 6.001385 -1.779036 6.708204 0 6.708204
z
" style="stroke: #ffffff; stroke-width: 1.6"/>
    </defs>
    <g clip-path="url(#p0f1d65b013)">
     <use xlink:href="#m84ce82ab50" x="135.373365" y="90.134055" style="fill: #28cd41; stroke: #ffffff; stroke-width: 1.6"/>
    </g>
   </g>
   <g id="PathCollection_7">
    <g clip-path="url(#p0f1d65b013)">
     <use xlink:href="#m89c88b2250" x="61.919056" y="195.472276" style="fill: #ff3b30; stroke: #ffffff; stroke-width: 1.6"/>
    </g>
   </g>
   <g id="legend_1">
    <g id="patch_5">
     <path d="M 332.437827 279.2305
L 429.006577 279.2305
Q 430.606577 279.2305 430.606577 277.6305
L 430.606577 255.78925
Q 430.606577 254.18925 429.006577 254.18925
L 332.437827 254.18925
Q 330.837827 254.18925 330.837827 255.78925
L 330.837827 277.6305
Q 330.837827 279.2305 332.437827 279.2305
z
" style="fill: #ffffff; opacity: 0.95; stroke: #cccccc; stroke-linejoin: miter"/>
    </g>
    <g id="line2d_38">
     <path d="M 334.037827 260.30175
L 342.037827 260.30175
L 350.037827 260.30175
" style="fill: none; stroke-dasharray: 5.92,2.56; stroke-dashoffset: 0; stroke: #ff3b30; stroke-opacity: 0.9; stroke-width: 1.6"/>
    </g>
    <g id="text_21">
     <!-- Pareto front -->
     <g transform="translate(356.437827 263.10175) scale(0.08 -0.08)">
      <use xlink:href="#HelveticaNeue-50"/>
      <use xlink:href="#HelveticaNeue-61" transform="translate(64.799988 0)"/>
      <use xlink:href="#HelveticaNeue-72" transform="translate(118.499985 0)"/>
      <use xlink:href="#HelveticaNeue-65" transform="translate(150.049973 0)"/>
      <use xlink:href="#HelveticaNeue-74" transform="translate(203.749969 0)"/>
      <use xlink:href="#HelveticaNeue-6f" transform="translate(235.249954 0)"/>
      <use xlink:href="#HelveticaNeue-20" transform="translate(292.649948 0)"/>
      <use xlink:href="#HelveticaNeue-66" transform="translate(320.449936 0)"/>
      <use xlink:href="#HelveticaNeue-72" transform="translate(350.049927 0)"/>
      <use xlink:href="#HelveticaNeue-6f" transform="translate(381.599915 0)"/>
      <use xlink:href="#HelveticaNeue-6e" transform="translate(438.999908 0)"/>
      <use xlink:href="#HelveticaNeue-74" transform="translate(494.599899 0)"/>
     </g>
    </g>
    <g id="PathCollection_8">
     <g>
      <use xlink:href="#m84ce82ab50" x="342.037827" y="272.35425" style="fill: #28cd41; stroke: #ffffff; stroke-width: 1.6"/>
     </g>
    </g>
    <g id="text_22">
     <!-- vocal-helper default -->
     <g transform="translate(356.437827 274.45425) scale(0.08 -0.08)">
      <use xlink:href="#HelveticaNeue-76"/>
      <use xlink:href="#HelveticaNeue-6f" transform="translate(49.999985 0)"/>
      <use xlink:href="#HelveticaNeue-63" transform="translate(107.399979 0)"/>
      <use xlink:href="#HelveticaNeue-61" transform="translate(161.099976 0)"/>
      <use xlink:href="#HelveticaNeue-6c" transform="translate(214.799973 0)"/>
      <use xlink:href="#HelveticaNeue-2d" transform="translate(236.999969 0)"/>
      <use xlink:href="#HelveticaNeue-68" transform="translate(275.899963 0)"/>
      <use xlink:href="#HelveticaNeue-65" transform="translate(331.499954 0)"/>
      <use xlink:href="#HelveticaNeue-6c" transform="translate(385.199951 0)"/>
      <use xlink:href="#HelveticaNeue-70" transform="translate(407.399948 0)"/>
      <use xlink:href="#HelveticaNeue-65" transform="translate(466.699936 0)"/>
      <use xlink:href="#HelveticaNeue-72" transform="translate(520.399933 0)"/>
      <use xlink:href="#HelveticaNeue-20" transform="translate(553.699921 0)"/>
      <use xlink:href="#HelveticaNeue-64" transform="translate(581.499908 0)"/>
      <use xlink:href="#HelveticaNeue-65" transform="translate(640.799896 0)"/>
      <use xlink:href="#HelveticaNeue-66" transform="translate(694.499893 0)"/>
      <use xlink:href="#HelveticaNeue-61" transform="translate(724.099884 0)"/>
      <use xlink:href="#HelveticaNeue-75" transform="translate(777.799881 0)"/>
      <use xlink:href="#HelveticaNeue-6c" transform="translate(833.399872 0)"/>
      <use xlink:href="#HelveticaNeue-74" transform="translate(855.599869 0)"/>
     </g>
    </g>
   </g>
  </g>
 </g>
 <defs>
  <clipPath id="p0f1d65b013">
   <rect x="44.172031" y="31.2025" width="390.434545" height="252.028"/>
  </clipPath>
 </defs>
</svg>
