<?xml version="1.0" encoding="utf-8" standalone="no"?>
<!DOCTYPE svg PUBLIC "-//W3C//DTD SVG 1.1//EN"
  "http://www.w3.org/Graphics/SVG/1.1/DTD/svg11.dtd">
<svg xmlns:xlink="http://www.w3.org/1999/xlink" width="570.860156pt" height="286.839844pt" viewBox="0 0 570.860156 286.839844" xmlns="http://www.w3.org/2000/svg" version="1.1">
 <metadata>
  <rdf:RDF xmlns:dc="http://purl.org/dc/elements/1.1/" xmlns:cc="http://creativecommons.org/ns#" xmlns:rdf="http://www.w3.org/1999/02/22-rdf-syntax-ns#">
   <cc:Work>
    <dc:type rdf:resource="http://purl.org/dc/dcmitype/StillImage"/>
    <dc:date>2026-07-01T10:02:20.110518</dc:date>
    <dc:format>image/svg+xml</dc:format>
    <dc:creator>
     <cc:Agent>
      <dc:title>Matplotlib v3.10.9, https://matplotlib.org/</dc:title>
     </cc:Agent>
    </dc:creator>
   </cc:Work>
  </rdf:RDF>
 </metadata>
 <defs>
  <style type="text/css">*{stroke-linejoin: round; stroke-linecap: butt}</style>
 </defs>
 <g id="figure_1">
  <g id="patch_1">
   <path d="M 0 286.839844 
L 570.860156 286.839844 
L 570.860156 0 
L 0 0 
z
" style="fill: #ffffff"/>
  </g>
  <g id="axes_1">
   <g id="patch_2">
    <path d="M 44.020156 264.44 
L 284.300156 264.44 
L 284.300156 84.048 
L 44.020156 84.048 
z
" style="fill: #ffffff"/>
   </g>
   <g id="matplotlib.axis_1">
    <g id="xtick_1">
     <g id="line2d_1">
      <defs>
       <path id="mc951ff372e" d="M 0 0 
L 0 3.5 
" style="stroke: #000000; stroke-width: 0.8"/>
      </defs>
      <g>
       <use xlink:href="#mc951ff372e" x="103.483389" y="264.44" style="stroke: #000000; stroke-width: 0.8"/>
      </g>
     </g>
     <g id="text_1">
      <!-- pyannote -->
      <g transform="translate(84.727529 277.776562) scale(0.09 -0.09)">
       <defs>
        <path id="HelveticaNeue-70" d="M 429 3309 
L 429 -1261 
L 973 -1261 
L 973 442 
L 986 442 
Q 1075 294 1206 195 
Q 1338 96 1485 38 
Q 1632 -19 1782 -44 
Q 1933 -70 2054 -70 
Q 2432 -70 2717 64 
Q 3002 198 3190 432 
Q 3379 666 3472 979 
Q 3565 1293 3565 1645 
Q 3565 1997 3469 2310 
Q 3373 2624 3184 2864 
Q 2995 3104 2710 3245 
Q 2426 3386 2042 3386 
Q 1696 3386 1408 3261 
Q 1120 3136 986 2861 
L 973 2861 
L 973 3309 
L 429 3309 
z
M 2989 1683 
Q 2989 1440 2937 1209 
Q 2886 979 2771 800 
Q 2656 621 2467 512 
Q 2278 403 1997 403 
Q 1715 403 1516 508 
Q 1318 614 1193 787 
Q 1069 960 1011 1187 
Q 954 1414 954 1658 
Q 954 1888 1008 2112 
Q 1062 2336 1184 2512 
Q 1306 2688 1498 2797 
Q 1690 2906 1965 2906 
Q 2227 2906 2422 2803 
Q 2618 2701 2742 2528 
Q 2867 2355 2928 2134 
Q 2989 1914 2989 1683 
z
" transform="scale(0.015625)"/>
        <path id="HelveticaNeue-79" d="M 1709 -442 
Q 1613 -685 1520 -851 
Q 1427 -1018 1315 -1123 
Q 1203 -1229 1065 -1277 
Q 928 -1325 749 -1325 
Q 653 -1325 557 -1312 
Q 461 -1299 371 -1267 
L 371 -768 
Q 442 -800 534 -822 
Q 627 -845 691 -845 
Q 858 -845 970 -765 
Q 1082 -685 1139 -538 
L 1363 19 
L 51 3309 
L 666 3309 
L 1632 602 
L 1645 602 
L 2573 3309 
L 3149 3309 
L 1709 -442 
z
" transform="scale(0.015625)"/>
        <path id="HelveticaNeue-61" d="M 3341 13 
Q 3200 -70 2950 -70 
Q 2739 -70 2614 48 
Q 2490 166 2490 435 
Q 2266 166 1968 48 
Q 1670 -70 1325 -70 
Q 1101 -70 899 -19 
Q 698 32 550 141 
Q 403 250 316 426 
Q 230 602 230 851 
Q 230 1133 326 1312 
Q 422 1491 579 1603 
Q 736 1715 937 1772 
Q 1139 1830 1350 1869 
Q 1574 1914 1776 1936 
Q 1978 1958 2131 2000 
Q 2285 2042 2374 2122 
Q 2464 2202 2464 2355 
Q 2464 2534 2397 2643 
Q 2330 2752 2224 2809 
Q 2118 2867 1987 2886 
Q 1856 2906 1728 2906 
Q 1382 2906 1152 2774 
Q 922 2643 902 2278 
L 358 2278 
Q 371 2586 486 2797 
Q 602 3008 794 3139 
Q 986 3270 1232 3328 
Q 1478 3386 1760 3386 
Q 1984 3386 2205 3354 
Q 2426 3322 2605 3222 
Q 2784 3123 2893 2944 
Q 3002 2765 3002 2477 
L 3002 774 
Q 3002 582 3024 492 
Q 3046 403 3174 403 
Q 3245 403 3341 435 
L 3341 13 
z
M 2458 1709 
Q 2355 1632 2188 1597 
Q 2022 1562 1840 1539 
Q 1658 1517 1472 1488 
Q 1286 1459 1139 1395 
Q 992 1331 899 1212 
Q 806 1094 806 890 
Q 806 755 860 662 
Q 915 570 1001 512 
Q 1088 454 1203 428 
Q 1318 403 1446 403 
Q 1715 403 1907 476 
Q 2099 550 2220 662 
Q 2342 774 2400 905 
Q 2458 1037 2458 1152 
L 2458 1709 
z
" transform="scale(0.015625)"/>
        <path id="HelveticaNeue-6e" d="M 410 3309 
L 410 0 
L 954 0 
L 954 1869 
Q 954 2093 1014 2281 
Q 1075 2470 1196 2611 
Q 1318 2752 1500 2829 
Q 1683 2906 1933 2906 
Q 2246 2906 2425 2726 
Q 2605 2547 2605 2240 
L 2605 0 
L 3149 0 
L 3149 2176 
Q 3149 2445 3094 2665 
Q 3040 2886 2905 3046 
Q 2771 3206 2553 3296 
Q 2336 3386 2010 3386 
Q 1274 3386 934 2784 
L 922 2784 
L 922 3309 
L 410 3309 
z
" transform="scale(0.015625)"/>
        <path id="HelveticaNeue-6f" d="M 806 1651 
Q 806 1952 886 2185 
Q 966 2419 1107 2579 
Q 1248 2739 1437 2822 
Q 1626 2906 1837 2906 
Q 2048 2906 2237 2822 
Q 2426 2739 2566 2579 
Q 2707 2419 2787 2185 
Q 2867 1952 2867 1651 
Q 2867 1350 2787 1116 
Q 2707 883 2566 726 
Q 2426 570 2237 486 
Q 2048 403 1837 403 
Q 1626 403 1437 486 
Q 1248 570 1107 726 
Q 966 883 886 1116 
Q 806 1350 806 1651 
z
M 230 1651 
Q 230 1286 332 972 
Q 435 659 640 425 
Q 845 192 1145 61 
Q 1446 -70 1837 -70 
Q 2234 -70 2531 61 
Q 2829 192 3033 425 
Q 3238 659 3340 972 
Q 3443 1286 3443 1651 
Q 3443 2016 3340 2333 
Q 3238 2650 3033 2883 
Q 2829 3117 2531 3251 
Q 2234 3386 1837 3386 
Q 1446 3386 1145 3251 
Q 845 3117 640 2883 
Q 435 2650 332 2333 
Q 230 2016 230 1651 
z
" transform="scale(0.015625)"/>
        <path id="HelveticaNeue-74" d="M 1165 3309 
L 1165 4301 
L 621 4301 
L 621 3309 
L 58 3309 
L 58 2829 
L 621 2829 
L 621 723 
Q 621 493 665 352 
Q 710 211 803 134 
Q 896 58 1046 29 
Q 1197 0 1408 0 
L 1824 0 
L 1824 480 
L 1574 480 
Q 1446 480 1366 489 
Q 1286 499 1241 531 
Q 1197 563 1181 620 
Q 1165 678 1165 774 
L 1165 2829 
L 1824 2829 
L 1824 3309 
L 1165 3309 
z
" transform="scale(0.015625)"/>
        <path id="HelveticaNeue-65" d="M 2707 1971 
L 806 1971 
Q 819 2163 889 2332 
Q 960 2502 1081 2630 
Q 1203 2758 1372 2832 
Q 1542 2906 1754 2906 
Q 1958 2906 2128 2832 
Q 2298 2758 2422 2633 
Q 2547 2509 2620 2336 
Q 2694 2163 2707 1971 
z
M 3232 1050 
L 2694 1050 
Q 2624 723 2403 563 
Q 2182 403 1837 403 
Q 1568 403 1369 492 
Q 1171 582 1043 732 
Q 915 883 857 1078 
Q 800 1274 806 1491 
L 3283 1491 
Q 3296 1792 3229 2125 
Q 3162 2458 2986 2739 
Q 2810 3021 2518 3203 
Q 2227 3386 1786 3386 
Q 1446 3386 1161 3258 
Q 877 3130 669 2899 
Q 461 2669 345 2355 
Q 230 2042 230 1664 
Q 243 1286 342 966 
Q 442 646 640 416 
Q 838 186 1129 58 
Q 1421 -70 1818 -70 
Q 2381 -70 2752 211 
Q 3123 493 3232 1050 
z
" transform="scale(0.015625)"/>
       </defs>
       <use xlink:href="#HelveticaNeue-70"/>
       <use xlink:href="#HelveticaNeue-79" transform="translate(59.299988 0)"/>
       <use xlink:href="#HelveticaNeue-61" transform="translate(109.299973 0)"/>
       <use xlink:href="#HelveticaNeue-6e" transform="translate(162.999969 0)"/>
       <use xlink:href="#HelveticaNeue-6e" transform="translate(218.59996 0)"/>
       <use xlink:href="#HelveticaNeue-6f" transform="translate(274.199951 0)"/>
       <use xlink:href="#HelveticaNeue-74" transform="translate(331.599945 0)"/>
       <use xlink:href="#HelveticaNeue-65" transform="translate(363.09993 0)"/>
      </g>
     </g>
    </g>
    <g id="xtick_2">
     <g id="line2d_2">
      <g>
       <use xlink:href="#mc951ff372e" x="224.836924" y="264.44" style="stroke: #000000; stroke-width: 0.8"/>
      </g>
     </g>
     <g id="text_2">
      <!-- titanet -->
      <g transform="translate(212.250283 277.866562) scale(0.09 -0.09)">
       <defs>
        <path id="HelveticaNeue-69" d="M 986 3904 
L 986 4570 
L 442 4570 
L 442 3904 
L 986 3904 
z
M 442 3309 
L 442 0 
L 986 0 
L 986 3309 
L 442 3309 
z
" transform="scale(0.015625)"/>
       </defs>
       <use xlink:href="#HelveticaNeue-74"/>
       <use xlink:href="#HelveticaNeue-69" transform="translate(31.499985 0)"/>
       <use xlink:href="#HelveticaNeue-74" transform="translate(53.699982 0)"/>
       <use xlink:href="#HelveticaNeue-61" transform="translate(85.199966 0)"/>
       <use xlink:href="#HelveticaNeue-6e" transform="translate(138.899963 0)"/>
       <use xlink:href="#HelveticaNeue-65" transform="translate(194.499954 0)"/>
       <use xlink:href="#HelveticaNeue-74" transform="translate(248.199951 0)"/>
      </g>
     </g>
    </g>
   </g>
   <g id="matplotlib.axis_2">
    <g id="ytick_1">
     <g id="line2d_3">
      <path d="M 44.020156 264.44 
L 284.300156 264.44 
" clip-path="url(#pb77cb07b35)" style="fill: none; stroke-dasharray: 0.8,1.32; stroke-dashoffset: 0; stroke: #b0b0b0; stroke-opacity: 0.4; stroke-width: 0.8"/>
     </g>
     <g id="line2d_4">
      <defs>
       <path id="m58a8da54f4" d="M 0 0 
L -3.5 0 
" style="stroke: #000000; stroke-width: 0.8"/>
      </defs>
      <g>
       <use xlink:href="#m58a8da54f4" x="44.020156" y="264.44" style="stroke: #000000; stroke-width: 0.8"/>
      </g>
     </g>
     <g id="text_3">
      <!-- 0.00 -->
      <g transform="translate(19.508125 267.653281) scale(0.09 -0.09)">
       <defs>
        <path id="HelveticaNeue-30" d="M 845 2234 
Q 845 2400 848 2601 
Q 851 2803 880 3004 
Q 909 3206 963 3398 
Q 1018 3590 1123 3734 
Q 1229 3878 1389 3968 
Q 1549 4058 1779 4058 
Q 2010 4058 2170 3968 
Q 2330 3878 2435 3734 
Q 2541 3590 2595 3398 
Q 2650 3206 2678 3004 
Q 2707 2803 2710 2601 
Q 2714 2400 2714 2234 
Q 2714 1978 2698 1661 
Q 2682 1344 2595 1065 
Q 2509 787 2317 595 
Q 2125 403 1779 403 
Q 1434 403 1242 595 
Q 1050 787 963 1065 
Q 877 1344 861 1661 
Q 845 1978 845 2234 
z
M 269 2227 
Q 269 1978 281 1709 
Q 294 1440 345 1184 
Q 397 928 493 701 
Q 589 474 755 301 
Q 922 128 1174 29 
Q 1427 -70 1779 -70 
Q 2138 -70 2387 29 
Q 2637 128 2803 301 
Q 2970 474 3066 701 
Q 3162 928 3213 1184 
Q 3264 1440 3277 1709 
Q 3290 1978 3290 2227 
Q 3290 2477 3277 2745 
Q 3264 3014 3213 3270 
Q 3162 3526 3066 3756 
Q 2970 3987 2803 4160 
Q 2637 4333 2384 4435 
Q 2131 4538 1779 4538 
Q 1427 4538 1174 4435 
Q 922 4333 755 4160 
Q 589 3987 493 3756 
Q 397 3526 345 3270 
Q 294 3014 281 2745 
Q 269 2477 269 2227 
z
" transform="scale(0.015625)"/>
        <path id="HelveticaNeue-2e" d="M 531 710 
L 531 0 
L 1242 0 
L 1242 710 
L 531 710 
z
" transform="scale(0.015625)"/>
       </defs>
       <use xlink:href="#HelveticaNeue-30"/>
       <use xlink:href="#HelveticaNeue-2e" transform="translate(55.599991 0)"/>
       <use xlink:href="#HelveticaNeue-30" transform="translate(83.399979 0)"/>
       <use xlink:href="#HelveticaNeue-30" transform="translate(138.999969 0)"/>
      </g>
     </g>
    </g>
    <g id="ytick_2">
     <g id="line2d_5">
      <path d="M 44.020156 240.206668 
L 284.300156 240.206668 
" clip-path="url(#pb77cb07b35)" style="fill: none; stroke-dasharray: 0.8,1.32; stroke-dashoffset: 0; stroke: #b0b0b0; stroke-opacity: 0.4; stroke-width: 0.8"/>
     </g>
     <g id="line2d_6">
      <g>
       <use xlink:href="#m58a8da54f4" x="44.020156" y="240.206668" style="stroke: #000000; stroke-width: 0.8"/>
      </g>
     </g>
     <g id="text_4">
      <!-- 0.05 -->
      <g transform="translate(19.508125 243.419949) scale(0.09 -0.09)">
       <defs>
        <path id="HelveticaNeue-35" d="M 3008 3981 
L 3008 4461 
L 768 4461 
L 346 2106 
L 813 2080 
Q 973 2272 1181 2390 
Q 1389 2509 1658 2509 
Q 1888 2509 2077 2432 
Q 2266 2355 2400 2217 
Q 2534 2080 2608 1891 
Q 2682 1702 2682 1478 
Q 2682 1210 2605 1008 
Q 2528 806 2397 672 
Q 2266 538 2090 470 
Q 1914 403 1722 403 
Q 1517 403 1347 464 
Q 1178 525 1053 637 
Q 928 749 854 899 
Q 781 1050 768 1222 
L 224 1222 
Q 230 915 345 672 
Q 461 429 659 265 
Q 858 102 1117 16 
Q 1376 -70 1670 -70 
Q 2067 -70 2364 54 
Q 2662 179 2860 390 
Q 3059 602 3158 874 
Q 3258 1146 3258 1434 
Q 3258 1824 3142 2115 
Q 3027 2406 2828 2601 
Q 2630 2797 2361 2893 
Q 2093 2989 1792 2989 
Q 1562 2989 1328 2909 
Q 1094 2829 947 2662 
L 934 2675 
L 1178 3981 
L 3008 3981 
z
" transform="scale(0.015625)"/>
       </defs>
       <use xlink:href="#HelveticaNeue-30"/>
       <use xlink:href="#HelveticaNeue-2e" transform="translate(55.599991 0)"/>
       <use xlink:href="#HelveticaNeue-30" transform="translate(83.399979 0)"/>
       <use xlink:href="#HelveticaNeue-35" transform="translate(138.999969 0)"/>
      </g>
     </g>
    </g>
    <g id="ytick_3">
     <g id="line2d_7">
      <path d="M 44.020156 215.973336 
L 284.300156 215.973336 
" clip-path="url(#pb77cb07b35)" style="fill: none; stroke-dasharray: 0.8,1.32; stroke-dashoffset: 0; stroke: #b0b0b0; stroke-opacity: 0.4; stroke-width: 0.8"/>
     </g>
     <g id="line2d_8">
      <g>
       <use xlink:href="#m58a8da54f4" x="44.020156" y="215.973336" style="stroke: #000000; stroke-width: 0.8"/>
      </g>
     </g>
     <g id="text_5">
      <!-- 0.10 -->
      <g transform="translate(19.508125 219.186617) scale(0.09 -0.09)">
       <defs>
        <path id="HelveticaNeue-31" d="M 2278 0 
L 2278 4538 
L 1862 4538 
Q 1818 4282 1696 4115 
Q 1574 3949 1398 3853 
Q 1222 3757 1004 3721 
Q 787 3686 557 3686 
L 557 3251 
L 1734 3251 
L 1734 0 
L 2278 0 
z
" transform="scale(0.015625)"/>
       </defs>
       <use xlink:href="#HelveticaNeue-30"/>
       <use xlink:href="#HelveticaNeue-2e" transform="translate(55.599991 0)"/>
       <use xlink:href="#HelveticaNeue-31" transform="translate(83.399979 0)"/>
       <use xlink:href="#HelveticaNeue-30" transform="translate(138.999969 0)"/>
      </g>
     </g>
    </g>
    <g id="ytick_4">
     <g id="line2d_9">
      <path d="M 44.020156 191.740004 
L 284.300156 191.740004 
" clip-path="url(#pb77cb07b35)" style="fill: none; stroke-dasharray: 0.8,1.32; stroke-dashoffset: 0; stroke: #b0b0b0; stroke-opacity: 0.4; stroke-width: 0.8"/>
     </g>
     <g id="line2d_10">
      <g>
       <use xlink:href="#m58a8da54f4" x="44.020156" y="191.740004" style="stroke: #000000; stroke-width: 0.8"/>
      </g>
     </g>
     <g id="text_6">
      <!-- 0.15 -->
      <g transform="translate(19.508125 194.953285) scale(0.09 -0.09)">
       <use xlink:href="#HelveticaNeue-30"/>
       <use xlink:href="#HelveticaNeue-2e" transform="translate(55.599991 0)"/>
       <use xlink:href="#HelveticaNeue-31" transform="translate(83.399979 0)"/>
       <use xlink:href="#HelveticaNeue-35" transform="translate(138.999969 0)"/>
      </g>
     </g>
    </g>
    <g id="ytick_5">
     <g id="line2d_11">
      <path d="M 44.020156 167.506672 
L 284.300156 167.506672 
" clip-path="url(#pb77cb07b35)" style="fill: none; stroke-dasharray: 0.8,1.32; stroke-dashoffset: 0; stroke: #b0b0b0; stroke-opacity: 0.4; stroke-width: 0.8"/>
     </g>
     <g id="line2d_12">
      <g>
       <use xlink:href="#m58a8da54f4" x="44.020156" y="167.506672" style="stroke: #000000; stroke-width: 0.8"/>
      </g>
     </g>
     <g id="text_7">
      <!-- 0.20 -->
      <g transform="translate(19.508125 170.719953) scale(0.09 -0.09)">
       <defs>
        <path id="HelveticaNeue-32" d="M 282 2931 
L 826 2931 
Q 819 3136 867 3337 
Q 915 3539 1024 3699 
Q 1133 3859 1302 3958 
Q 1472 4058 1709 4058 
Q 1888 4058 2048 4000 
Q 2208 3942 2326 3833 
Q 2445 3725 2515 3574 
Q 2586 3424 2586 3238 
Q 2586 3002 2512 2822 
Q 2438 2643 2294 2489 
Q 2150 2336 1932 2185 
Q 1715 2035 1427 1856 
Q 1190 1715 972 1555 
Q 755 1395 582 1184 
Q 410 973 298 688 
Q 186 403 154 0 
L 3117 0 
L 3117 480 
L 787 480 
Q 826 691 950 854 
Q 1075 1018 1251 1158 
Q 1427 1299 1638 1424 
Q 1850 1549 2061 1677 
Q 2272 1811 2470 1958 
Q 2669 2106 2822 2288 
Q 2976 2470 3069 2700 
Q 3162 2931 3162 3232 
Q 3162 3552 3050 3795 
Q 2938 4038 2746 4201 
Q 2554 4365 2294 4451 
Q 2035 4538 1741 4538 
Q 1382 4538 1100 4416 
Q 819 4294 630 4080 
Q 442 3866 352 3571 
Q 262 3277 282 2931 
z
" transform="scale(0.015625)"/>
       </defs>
       <use xlink:href="#HelveticaNeue-30"/>
       <use xlink:href="#HelveticaNeue-2e" transform="translate(55.599991 0)"/>
       <use xlink:href="#HelveticaNeue-32" transform="translate(83.399979 0)"/>
       <use xlink:href="#HelveticaNeue-30" transform="translate(138.999969 0)"/>
      </g>
     </g>
    </g>
    <g id="ytick_6">
     <g id="line2d_13">
      <path d="M 44.020156 143.27334 
L 284.300156 143.27334 
" clip-path="url(#pb77cb07b35)" style="fill: none; stroke-dasharray: 0.8,1.32; stroke-dashoffset: 0; stroke: #b0b0b0; stroke-opacity: 0.4; stroke-width: 0.8"/>
     </g>
     <g id="line2d_14">
      <g>
       <use xlink:href="#m58a8da54f4" x="44.020156" y="143.27334" style="stroke: #000000; stroke-width: 0.8"/>
      </g>
     </g>
     <g id="text_8">
      <!-- 0.25 -->
      <g transform="translate(19.508125 146.486621) scale(0.09 -0.09)">
       <use xlink:href="#HelveticaNeue-30"/>
       <use xlink:href="#HelveticaNeue-2e" transform="translate(55.599991 0)"/>
       <use xlink:href="#HelveticaNeue-32" transform="translate(83.399979 0)"/>
       <use xlink:href="#HelveticaNeue-35" transform="translate(138.999969 0)"/>
      </g>
     </g>
    </g>
    <g id="ytick_7">
     <g id="line2d_15">
      <path d="M 44.020156 119.040008 
L 284.300156 119.040008 
" clip-path="url(#pb77cb07b35)" style="fill: none; stroke-dasharray: 0.8,1.32; stroke-dashoffset: 0; stroke: #b0b0b0; stroke-opacity: 0.4; stroke-width: 0.8"/>
     </g>
     <g id="line2d_16">
      <g>
       <use xlink:href="#m58a8da54f4" x="44.020156" y="119.040008" style="stroke: #000000; stroke-width: 0.8"/>
      </g>
     </g>
     <g id="text_9">
      <!-- 0.30 -->
      <g transform="translate(19.508125 122.253289) scale(0.09 -0.09)">
       <defs>
        <path id="HelveticaNeue-33" d="M 1395 2592 
L 1395 2131 
Q 1549 2150 1722 2150 
Q 1926 2150 2102 2096 
Q 2278 2042 2406 1930 
Q 2534 1818 2611 1654 
Q 2688 1491 2688 1280 
Q 2688 1075 2608 912 
Q 2528 749 2393 637 
Q 2259 525 2080 464 
Q 1901 403 1702 403 
Q 1235 403 992 681 
Q 749 960 736 1402 
L 192 1402 
Q 186 1050 291 774 
Q 397 499 595 310 
Q 794 122 1075 26 
Q 1357 -70 1702 -70 
Q 2022 -70 2307 16 
Q 2592 102 2803 275 
Q 3014 448 3139 707 
Q 3264 966 3264 1306 
Q 3264 1715 3062 2016 
Q 2861 2317 2445 2406 
L 2445 2419 
Q 2714 2541 2893 2777 
Q 3072 3014 3072 3322 
Q 3072 3635 2966 3865 
Q 2861 4096 2675 4243 
Q 2490 4390 2237 4464 
Q 1984 4538 1690 4538 
Q 1350 4538 1091 4429 
Q 832 4320 659 4128 
Q 486 3936 393 3667 
Q 301 3398 288 3072 
L 832 3072 
Q 832 3270 883 3449 
Q 934 3629 1040 3763 
Q 1146 3898 1309 3978 
Q 1472 4058 1690 4058 
Q 2035 4058 2265 3875 
Q 2496 3693 2496 3328 
Q 2496 3149 2425 3008 
Q 2355 2867 2236 2774 
Q 2118 2682 1961 2634 
Q 1805 2586 1632 2586 
L 1517 2586 
Q 1485 2586 1453 2586 
Q 1427 2586 1395 2592 
z
" transform="scale(0.015625)"/>
       </defs>
       <use xlink:href="#HelveticaNeue-30"/>
       <use xlink:href="#HelveticaNeue-2e" transform="translate(55.599991 0)"/>
       <use xlink:href="#HelveticaNeue-33" transform="translate(83.399979 0)"/>
       <use xlink:href="#HelveticaNeue-30" transform="translate(138.999969 0)"/>
      </g>
     </g>
    </g>
    <g id="ytick_8">
     <g id="line2d_17">
      <path d="M 44.020156 94.806676 
L 284.300156 94.806676 
" clip-path="url(#pb77cb07b35)" style="fill: none; stroke-dasharray: 0.8,1.32; stroke-dashoffset: 0; stroke: #b0b0b0; stroke-opacity: 0.4; stroke-width: 0.8"/>
     </g>
     <g id="line2d_18">
      <g>
       <use xlink:href="#m58a8da54f4" x="44.020156" y="94.806676" style="stroke: #000000; stroke-width: 0.8"/>
      </g>
     </g>
     <g id="text_10">
      <!-- 0.35 -->
      <g transform="translate(19.508125 98.019957) scale(0.09 -0.09)">
       <use xlink:href="#HelveticaNeue-30"/>
       <use xlink:href="#HelveticaNeue-2e" transform="translate(55.599991 0)"/>
       <use xlink:href="#HelveticaNeue-33" transform="translate(83.399979 0)"/>
       <use xlink:href="#HelveticaNeue-35" transform="translate(138.999969 0)"/>
      </g>
     </g>
    </g>
    <g id="text_11">
     <!-- margin -->
     <g transform="translate(13.626562 187.95775) rotate(-90) scale(0.09 -0.09)">
      <defs>
       <path id="HelveticaNeue-6d" d="M 410 3309 
L 410 0 
L 954 0 
L 954 2061 
Q 954 2157 1002 2301 
Q 1050 2445 1155 2579 
Q 1261 2714 1430 2810 
Q 1600 2906 1837 2906 
Q 2022 2906 2140 2851 
Q 2259 2797 2329 2697 
Q 2400 2598 2429 2464 
Q 2458 2330 2458 2170 
L 2458 0 
L 3002 0 
L 3002 2061 
Q 3002 2445 3232 2675 
Q 3462 2906 3866 2906 
Q 4064 2906 4189 2848 
Q 4314 2790 4384 2691 
Q 4454 2592 4480 2457 
Q 4506 2323 4506 2170 
L 4506 0 
L 5050 0 
L 5050 2426 
Q 5050 2682 4970 2864 
Q 4890 3046 4746 3161 
Q 4602 3277 4400 3331 
Q 4198 3386 3949 3386 
Q 3622 3386 3350 3238 
Q 3078 3091 2912 2822 
Q 2810 3130 2560 3258 
Q 2310 3386 2003 3386 
Q 1306 3386 934 2822 
L 922 2822 
L 922 3309 
L 410 3309 
z
" transform="scale(0.015625)"/>
       <path id="HelveticaNeue-72" d="M 390 3309 
L 390 0 
L 934 0 
L 934 1472 
Q 934 1792 998 2038 
Q 1062 2285 1203 2457 
Q 1344 2630 1574 2720 
Q 1805 2810 2131 2810 
L 2131 3386 
Q 1690 3398 1402 3206 
Q 1114 3014 915 2611 
L 902 2611 
L 902 3309 
L 390 3309 
z
" transform="scale(0.015625)"/>
       <path id="HelveticaNeue-67" d="M 3264 282 
L 3264 3309 
L 2752 3309 
L 2752 2835 
L 2746 2835 
Q 2598 3110 2336 3248 
Q 2074 3386 1760 3386 
Q 1331 3386 1036 3222 
Q 742 3059 563 2806 
Q 384 2554 307 2243 
Q 230 1933 230 1638 
Q 230 1299 323 995 
Q 416 691 601 464 
Q 787 237 1062 102 
Q 1338 -32 1709 -32 
Q 2029 -32 2313 112 
Q 2598 256 2739 563 
L 2752 563 
L 2752 346 
Q 2752 70 2697 -160 
Q 2643 -390 2521 -553 
Q 2400 -717 2214 -809 
Q 2029 -902 1760 -902 
Q 1626 -902 1478 -873 
Q 1331 -845 1206 -781 
Q 1082 -717 995 -614 
Q 909 -512 902 -365 
L 358 -365 
Q 371 -634 499 -819 
Q 627 -1005 822 -1120 
Q 1018 -1235 1258 -1286 
Q 1498 -1338 1728 -1338 
Q 2522 -1338 2893 -934 
Q 3264 -531 3264 282 
z
M 1741 442 
Q 1472 442 1293 554 
Q 1114 666 1005 848 
Q 896 1030 851 1254 
Q 806 1478 806 1702 
Q 806 1939 860 2156 
Q 915 2374 1033 2540 
Q 1152 2707 1337 2806 
Q 1523 2906 1786 2906 
Q 2042 2906 2221 2803 
Q 2400 2701 2512 2531 
Q 2624 2362 2675 2150 
Q 2726 1939 2726 1722 
Q 2726 1491 2672 1260 
Q 2618 1030 2502 848 
Q 2387 666 2198 554 
Q 2010 442 1741 442 
z
" transform="scale(0.015625)"/>
      </defs>
      <use xlink:href="#HelveticaNeue-6d"/>
      <use xlink:href="#HelveticaNeue-61" transform="translate(85.299988 0)"/>
      <use xlink:href="#HelveticaNeue-72" transform="translate(138.999985 0)"/>
      <use xlink:href="#HelveticaNeue-67" transform="translate(169.549973 0)"/>
      <use xlink:href="#HelveticaNeue-69" transform="translate(226.949966 0)"/>
      <use xlink:href="#HelveticaNeue-6e" transform="translate(249.149963 0)"/>
     </g>
    </g>
   </g>
   <g id="patch_3">
    <path d="M 44.020156 264.44 
L 44.020156 84.048 
" style="fill: none; stroke: #000000; stroke-width: 0.8; stroke-linejoin: miter; stroke-linecap: square"/>
   </g>
   <g id="patch_4">
    <path d="M 44.020156 264.44 
L 284.300156 264.44 
" style="fill: none; stroke: #000000; stroke-width: 0.8; stroke-linejoin: miter; stroke-linecap: square"/>
   </g>
   <g id="patch_5">
    <path d="M 54.941974 264.44 
L 152.024803 264.44 
L 152.024803 167.031428 
L 54.941974 167.031428 
z
" clip-path="url(#pb77cb07b35)" style="fill: #7f8c8d; stroke: #ffffff; stroke-width: 0.8; stroke-linejoin: miter"/>
   </g>
   <g id="patch_6">
    <path d="M 176.29551 264.44 
L 273.378338 264.44 
L 273.378338 92.638095 
L 176.29551 92.638095 
z
" clip-path="url(#pb77cb07b35)" style="fill: #28cd41; stroke: #ffffff; stroke-width: 0.8; stroke-linejoin: miter"/>
   </g>
   <g id="text_12">
    <!-- 0.201 -->
    <g transform="translate(90.974795 163.031428) scale(0.1 -0.1)">
     <use xlink:href="#HelveticaNeue-30"/>
     <use xlink:href="#HelveticaNeue-2e" transform="translate(55.599991 0)"/>
     <use xlink:href="#HelveticaNeue-32" transform="translate(83.399979 0)"/>
     <use xlink:href="#HelveticaNeue-30" transform="translate(138.999969 0)"/>
     <use xlink:href="#HelveticaNeue-31" transform="translate(194.59996 0)"/>
    </g>
   </g>
   <g id="text_13">
    <!-- 0.354 -->
    <g transform="translate(212.32833 88.638095) scale(0.1 -0.1)">
     <defs>
      <path id="HelveticaNeue-34" d="M 2170 1542 
L 646 1542 
L 2157 3763 
L 2170 3763 
L 2170 1542 
z
M 2682 1542 
L 2682 4538 
L 2246 4538 
L 179 1587 
L 179 1062 
L 2170 1062 
L 2170 0 
L 2682 0 
L 2682 1062 
L 3296 1062 
L 3296 1542 
L 2682 1542 
z
" transform="scale(0.015625)"/>
     </defs>
     <use xlink:href="#HelveticaNeue-30"/>
     <use xlink:href="#HelveticaNeue-2e" transform="translate(55.599991 0)"/>
     <use xlink:href="#HelveticaNeue-33" transform="translate(83.399979 0)"/>
     <use xlink:href="#HelveticaNeue-35" transform="translate(138.999969 0)"/>
     <use xlink:href="#HelveticaNeue-34" transform="translate(194.59996 0)"/>
    </g>
   </g>
   <g id="text_14">
    <!-- Separability margin (inter − intra cosine) -->
    <g transform="translate(44.020156 67.921594) scale(0.095 -0.095)">
     <defs>
      <path id="HelveticaNeue-53" d="M 3142 3232 
L 3718 3232 
Q 3706 3610 3574 3882 
Q 3443 4154 3216 4333 
Q 2989 4512 2688 4595 
Q 2387 4678 2035 4678 
Q 1722 4678 1424 4598 
Q 1126 4518 892 4355 
Q 659 4192 518 3939 
Q 378 3686 378 3341 
Q 378 3027 502 2819 
Q 627 2611 835 2480 
Q 1043 2349 1305 2269 
Q 1568 2189 1840 2128 
Q 2112 2067 2374 2009 
Q 2637 1952 2845 1859 
Q 3053 1766 3177 1619 
Q 3302 1472 3302 1235 
Q 3302 986 3200 826 
Q 3098 666 2931 573 
Q 2765 480 2557 441 
Q 2349 403 2144 403 
Q 1888 403 1645 467 
Q 1402 531 1219 665 
Q 1037 800 925 1008 
Q 813 1216 813 1504 
L 237 1504 
Q 237 1088 387 784 
Q 538 480 797 285 
Q 1056 90 1398 -6 
Q 1741 -102 2125 -102 
Q 2438 -102 2755 -28 
Q 3072 45 3328 208 
Q 3584 371 3747 630 
Q 3910 890 3910 1254 
Q 3910 1594 3785 1818 
Q 3661 2042 3453 2189 
Q 3245 2336 2982 2422 
Q 2720 2509 2448 2573 
Q 2176 2637 1913 2691 
Q 1651 2746 1443 2829 
Q 1235 2912 1110 3043 
Q 986 3174 986 3386 
Q 986 3610 1072 3760 
Q 1158 3910 1302 4000 
Q 1446 4090 1632 4128 
Q 1818 4166 2010 4166 
Q 2483 4166 2787 3945 
Q 3091 3725 3142 3232 
z
" transform="scale(0.015625)"/>
      <path id="HelveticaNeue-62" d="M 429 4570 
L 429 0 
L 973 0 
L 973 442 
L 986 442 
Q 1075 294 1206 195 
Q 1338 96 1485 38 
Q 1632 -19 1782 -44 
Q 1933 -70 2054 -70 
Q 2432 -70 2717 64 
Q 3002 198 3190 432 
Q 3379 666 3472 979 
Q 3565 1293 3565 1645 
Q 3565 1997 3469 2310 
Q 3373 2624 3184 2864 
Q 2995 3104 2710 3245 
Q 2426 3386 2042 3386 
Q 1696 3386 1408 3261 
Q 1120 3136 986 2861 
L 973 2861 
L 973 4570 
L 429 4570 
z
M 2989 1683 
Q 2989 1440 2937 1209 
Q 2886 979 2771 800 
Q 2656 621 2467 512 
Q 2278 403 1997 403 
Q 1715 403 1516 508 
Q 1318 614 1193 787 
Q 1069 960 1011 1187 
Q 954 1414 954 1658 
Q 954 1888 1008 2112 
Q 1062 2336 1184 2512 
Q 1306 2688 1498 2797 
Q 1690 2906 1965 2906 
Q 2227 2906 2422 2803 
Q 2618 2701 2742 2528 
Q 2867 2355 2928 2134 
Q 2989 1914 2989 1683 
z
" transform="scale(0.015625)"/>
      <path id="HelveticaNeue-6c" d="M 442 4570 
L 442 0 
L 986 0 
L 986 4570 
L 442 4570 
z
" transform="scale(0.015625)"/>
      <path id="HelveticaNeue-20" transform="scale(0.015625)"/>
      <path id="HelveticaNeue-28" d="M 1306 -1261 
L 1722 -1261 
Q 1267 -525 1072 198 
Q 877 922 877 1728 
Q 877 2515 1069 3232 
Q 1261 3949 1722 4678 
L 1306 4678 
Q 806 4019 553 3251 
Q 301 2483 301 1728 
Q 301 1306 371 922 
Q 442 538 573 173 
Q 704 -192 889 -547 
Q 1075 -902 1306 -1261 
z
" transform="scale(0.015625)"/>
      <path id="HelveticaNeue-2212" d="M 307 1837 
L 307 1402 
L 3533 1402 
L 3533 1837 
L 307 1837 
z
" transform="scale(0.015625)"/>
      <path id="HelveticaNeue-63" d="M 2656 2246 
L 3219 2246 
Q 3187 2541 3065 2755 
Q 2944 2970 2755 3110 
Q 2566 3251 2320 3318 
Q 2074 3386 1792 3386 
Q 1402 3386 1107 3248 
Q 813 3110 617 2870 
Q 422 2630 326 2307 
Q 230 1984 230 1613 
Q 230 1242 329 931 
Q 429 621 624 397 
Q 819 173 1110 51 
Q 1402 -70 1779 -70 
Q 2413 -70 2781 262 
Q 3149 595 3238 1210 
L 2682 1210 
Q 2630 826 2403 614 
Q 2176 403 1773 403 
Q 1517 403 1331 505 
Q 1146 608 1030 777 
Q 915 947 860 1164 
Q 806 1382 806 1613 
Q 806 1862 857 2096 
Q 909 2330 1027 2509 
Q 1146 2688 1344 2797 
Q 1542 2906 1837 2906 
Q 2182 2906 2387 2733 
Q 2592 2560 2656 2246 
z
" transform="scale(0.015625)"/>
      <path id="HelveticaNeue-73" d="M 742 1043 
L 198 1043 
Q 211 736 326 521 
Q 442 307 634 176 
Q 826 45 1075 -12 
Q 1325 -70 1600 -70 
Q 1850 -70 2102 -22 
Q 2355 26 2556 147 
Q 2758 269 2883 467 
Q 3008 666 3008 966 
Q 3008 1203 2915 1363 
Q 2822 1523 2672 1628 
Q 2522 1734 2326 1798 
Q 2131 1862 1926 1907 
Q 1734 1952 1542 1993 
Q 1350 2035 1196 2096 
Q 1043 2157 944 2249 
Q 845 2342 845 2483 
Q 845 2611 909 2691 
Q 973 2771 1075 2819 
Q 1178 2867 1302 2886 
Q 1427 2906 1549 2906 
Q 1683 2906 1814 2877 
Q 1946 2848 2054 2784 
Q 2163 2720 2233 2614 
Q 2304 2509 2317 2349 
L 2861 2349 
Q 2842 2650 2733 2851 
Q 2624 3053 2441 3171 
Q 2259 3290 2022 3338 
Q 1786 3386 1504 3386 
Q 1286 3386 1065 3331 
Q 845 3277 669 3165 
Q 493 3053 381 2873 
Q 269 2694 269 2445 
Q 269 2125 429 1945 
Q 589 1766 829 1667 
Q 1069 1568 1350 1513 
Q 1632 1459 1872 1392 
Q 2112 1325 2272 1216 
Q 2432 1107 2432 896 
Q 2432 742 2355 643 
Q 2278 544 2160 493 
Q 2042 442 1901 422 
Q 1760 403 1632 403 
Q 1466 403 1309 435 
Q 1152 467 1027 540 
Q 902 614 825 739 
Q 749 864 742 1043 
z
" transform="scale(0.015625)"/>
      <path id="HelveticaNeue-29" d="M -58 -1261 
L 352 -1261 
Q 851 -602 1104 163 
Q 1357 928 1357 1683 
Q 1357 2106 1286 2490 
Q 1216 2874 1085 3242 
Q 954 3610 768 3965 
Q 582 4320 352 4678 
L -58 4678 
Q 390 3942 585 3216 
Q 781 2490 781 1683 
Q 781 902 589 182 
Q 397 -538 -58 -1261 
z
" transform="scale(0.015625)"/>
     </defs>
     <use xlink:href="#HelveticaNeue-53"/>
     <use xlink:href="#HelveticaNeue-65" transform="translate(64.799988 0)"/>
     <use xlink:href="#HelveticaNeue-70" transform="translate(118.499985 0)"/>
     <use xlink:href="#HelveticaNeue-61" transform="translate(177.799973 0)"/>
     <use xlink:href="#HelveticaNeue-72" transform="translate(231.499969 0)"/>
     <use xlink:href="#HelveticaNeue-61" transform="translate(264.799957 0)"/>
     <use xlink:href="#HelveticaNeue-62" transform="translate(318.499954 0)"/>
     <use xlink:href="#HelveticaNeue-69" transform="translate(377.799942 0)"/>
     <use xlink:href="#HelveticaNeue-6c" transform="translate(399.999939 0)"/>
     <use xlink:href="#HelveticaNeue-69" transform="translate(422.199936 0)"/>
     <use xlink:href="#HelveticaNeue-74" transform="translate(444.399933 0)"/>
     <use xlink:href="#HelveticaNeue-79" transform="translate(475.899918 0)"/>
     <use xlink:href="#HelveticaNeue-20" transform="translate(525.899902 0)"/>
     <use xlink:href="#HelveticaNeue-6d" transform="translate(553.69989 0)"/>
     <use xlink:href="#HelveticaNeue-61" transform="translate(638.999878 0)"/>
     <use xlink:href="#HelveticaNeue-72" transform="translate(692.699875 0)"/>
     <use xlink:href="#HelveticaNeue-67" transform="translate(723.249863 0)"/>
     <use xlink:href="#HelveticaNeue-69" transform="translate(780.649857 0)"/>
     <use xlink:href="#HelveticaNeue-6e" transform="translate(802.849854 0)"/>
     <use xlink:href="#HelveticaNeue-20" transform="translate(858.449844 0)"/>
     <use xlink:href="#HelveticaNeue-28" transform="translate(886.249832 0)"/>
     <use xlink:href="#HelveticaNeue-69" transform="translate(912.149826 0)"/>
     <use xlink:href="#HelveticaNeue-6e" transform="translate(934.349823 0)"/>
     <use xlink:href="#HelveticaNeue-74" transform="translate(989.949814 0)"/>
     <use xlink:href="#HelveticaNeue-65" transform="translate(1021.449799 0)"/>
     <use xlink:href="#HelveticaNeue-72" transform="translate(1075.149796 0)"/>
     <use xlink:href="#HelveticaNeue-20" transform="translate(1108.449783 0)"/>
     <use xlink:href="#HelveticaNeue-2212" transform="translate(1136.249771 0)"/>
     <use xlink:href="#HelveticaNeue-20" transform="translate(1196.249756 0)"/>
     <use xlink:href="#HelveticaNeue-69" transform="translate(1224.049744 0)"/>
     <use xlink:href="#HelveticaNeue-6e" transform="translate(1246.249741 0)"/>
     <use xlink:href="#HelveticaNeue-74" transform="translate(1301.849731 0)"/>
     <use xlink:href="#HelveticaNeue-72" transform="translate(1333.349716 0)"/>
     <use xlink:href="#HelveticaNeue-61" transform="translate(1366.649704 0)"/>
     <use xlink:href="#HelveticaNeue-20" transform="translate(1420.349701 0)"/>
     <use xlink:href="#HelveticaNeue-63" transform="translate(1448.149689 0)"/>
     <use xlink:href="#HelveticaNeue-6f" transform="translate(1501.849686 0)"/>
     <use xlink:href="#HelveticaNeue-73" transform="translate(1559.24968 0)"/>
     <use xlink:href="#HelveticaNeue-69" transform="translate(1609.249664 0)"/>
     <use xlink:href="#HelveticaNeue-6e" transform="translate(1631.449661 0)"/>
     <use xlink:href="#HelveticaNeue-65" transform="translate(1687.049652 0)"/>
     <use xlink:href="#HelveticaNeue-29" transform="translate(1740.749649 0)"/>
    </g>
    <!-- higher = cleaner per-segment clustering -->
    <g transform="translate(44.020156 78.048) scale(0.095 -0.095)">
     <defs>
      <path id="HelveticaNeue-68" d="M 410 4570 
L 410 0 
L 954 0 
L 954 1869 
Q 954 2093 1014 2281 
Q 1075 2470 1196 2611 
Q 1318 2752 1500 2829 
Q 1683 2906 1933 2906 
Q 2246 2906 2425 2726 
Q 2605 2547 2605 2240 
L 2605 0 
L 3149 0 
L 3149 2176 
Q 3149 2445 3094 2665 
Q 3040 2886 2905 3046 
Q 2771 3206 2553 3296 
Q 2336 3386 2010 3386 
Q 1862 3386 1705 3354 
Q 1549 3322 1405 3254 
Q 1261 3187 1145 3081 
Q 1030 2976 966 2822 
L 954 2822 
L 954 4570 
L 410 4570 
z
" transform="scale(0.015625)"/>
      <path id="HelveticaNeue-3d" d="M 307 1190 
L 307 755 
L 3533 755 
L 3533 1190 
L 307 1190 
z
M 3533 2048 
L 3533 2483 
L 307 2483 
L 307 2048 
L 3533 2048 
z
" transform="scale(0.015625)"/>
      <path id="HelveticaNeue-2d" d="M 320 2035 
L 320 1523 
L 2170 1523 
L 2170 2035 
L 320 2035 
z
" transform="scale(0.015625)"/>
      <path id="HelveticaNeue-75" d="M 3149 0 
L 3149 3309 
L 2605 3309 
L 2605 1440 
Q 2605 1216 2544 1027 
Q 2483 838 2361 697 
Q 2240 557 2057 480 
Q 1875 403 1626 403 
Q 1312 403 1133 582 
Q 954 762 954 1069 
L 954 3309 
L 410 3309 
L 410 1133 
Q 410 864 464 643 
Q 518 422 652 262 
Q 787 102 1004 16 
Q 1222 -70 1549 -70 
Q 1914 -70 2182 74 
Q 2451 218 2624 525 
L 2637 525 
L 2637 0 
L 3149 0 
z
" transform="scale(0.015625)"/>
     </defs>
     <use xlink:href="#HelveticaNeue-68"/>
     <use xlink:href="#HelveticaNeue-69" transform="translate(55.599991 0)"/>
     <use xlink:href="#HelveticaNeue-67" transform="translate(77.799988 0)"/>
     <use xlink:href="#HelveticaNeue-68" transform="translate(135.199982 0)"/>
     <use xlink:href="#HelveticaNeue-65" transform="translate(190.799973 0)"/>
     <use xlink:href="#HelveticaNeue-72" transform="translate(244.499969 0)"/>
     <use xlink:href="#HelveticaNeue-20" transform="translate(277.799957 0)"/>
     <use xlink:href="#HelveticaNeue-3d" transform="translate(305.599945 0)"/>
     <use xlink:href="#HelveticaNeue-20" transform="translate(365.59993 0)"/>
     <use xlink:href="#HelveticaNeue-63" transform="translate(393.399918 0)"/>
     <use xlink:href="#HelveticaNeue-6c" transform="translate(447.099915 0)"/>
     <use xlink:href="#HelveticaNeue-65" transform="translate(469.299911 0)"/>
     <use xlink:href="#HelveticaNeue-61" transform="translate(522.999908 0)"/>
     <use xlink:href="#HelveticaNeue-6e" transform="translate(576.699905 0)"/>
     <use xlink:href="#HelveticaNeue-65" transform="translate(632.299896 0)"/>
     <use xlink:href="#HelveticaNeue-72" transform="translate(685.999893 0)"/>
     <use xlink:href="#HelveticaNeue-20" transform="translate(719.299881 0)"/>
     <use xlink:href="#HelveticaNeue-70" transform="translate(747.099869 0)"/>
     <use xlink:href="#HelveticaNeue-65" transform="translate(806.399857 0)"/>
     <use xlink:href="#HelveticaNeue-72" transform="translate(860.099854 0)"/>
     <use xlink:href="#HelveticaNeue-2d" transform="translate(887.899841 0)"/>
     <use xlink:href="#HelveticaNeue-73" transform="translate(926.799835 0)"/>
     <use xlink:href="#HelveticaNeue-65" transform="translate(976.79982 0)"/>
     <use xlink:href="#HelveticaNeue-67" transform="translate(1030.499817 0)"/>
     <use xlink:href="#HelveticaNeue-6d" transform="translate(1087.899811 0)"/>
     <use xlink:href="#HelveticaNeue-65" transform="translate(1173.199799 0)"/>
     <use xlink:href="#HelveticaNeue-6e" transform="translate(1226.899796 0)"/>
     <use xlink:href="#HelveticaNeue-74" transform="translate(1282.499786 0)"/>
     <use xlink:href="#HelveticaNeue-20" transform="translate(1313.999771 0)"/>
     <use xlink:href="#HelveticaNeue-63" transform="translate(1341.799759 0)"/>
     <use xlink:href="#HelveticaNeue-6c" transform="translate(1395.499756 0)"/>
     <use xlink:href="#HelveticaNeue-75" transform="translate(1417.699753 0)"/>
     <use xlink:href="#HelveticaNeue-73" transform="translate(1473.299744 0)"/>
     <use xlink:href="#HelveticaNeue-74" transform="translate(1523.299728 0)"/>
     <use xlink:href="#HelveticaNeue-65" transform="translate(1554.799713 0)"/>
     <use xlink:href="#HelveticaNeue-72" transform="translate(1608.49971 0)"/>
     <use xlink:href="#HelveticaNeue-69" transform="translate(1641.799698 0)"/>
     <use xlink:href="#HelveticaNeue-6e" transform="translate(1663.999695 0)"/>
     <use xlink:href="#HelveticaNeue-67" transform="translate(1719.599686 0)"/>
    </g>
   </g>
  </g>
  <g id="axes_2">
   <g id="patch_7">
    <path d="M 323.380156 264.44 
L 563.660156 264.44 
L 563.660156 84.048 
L 323.380156 84.048 
z
" style="fill: #ffffff"/>
   </g>
   <g id="matplotlib.axis_3">
    <g id="xtick_3">
     <g id="line2d_19">
      <g>
       <use xlink:href="#mc951ff372e" x="382.843389" y="264.44" style="stroke: #000000; stroke-width: 0.8"/>
      </g>
     </g>
     <g id="text_15">
      <!-- pyannote -->
      <g transform="translate(364.087529 277.776562) scale(0.09 -0.09)">
       <use xlink:href="#HelveticaNeue-70"/>
       <use xlink:href="#HelveticaNeue-79" transform="translate(59.299988 0)"/>
       <use xlink:href="#HelveticaNeue-61" transform="translate(109.299973 0)"/>
       <use xlink:href="#HelveticaNeue-6e" transform="translate(162.999969 0)"/>
       <use xlink:href="#HelveticaNeue-6e" transform="translate(218.59996 0)"/>
       <use xlink:href="#HelveticaNeue-6f" transform="translate(274.199951 0)"/>
       <use xlink:href="#HelveticaNeue-74" transform="translate(331.599945 0)"/>
       <use xlink:href="#HelveticaNeue-65" transform="translate(363.09993 0)"/>
      </g>
     </g>
    </g>
    <g id="xtick_4">
     <g id="line2d_20">
      <g>
       <use xlink:href="#mc951ff372e" x="504.196924" y="264.44" style="stroke: #000000; stroke-width: 0.8"/>
      </g>
     </g>
     <g id="text_16">
      <!-- titanet -->
      <g transform="translate(491.610283 277.866562) scale(0.09 -0.09)">
       <use xlink:href="#HelveticaNeue-74"/>
       <use xlink:href="#HelveticaNeue-69" transform="translate(31.499985 0)"/>
       <use xlink:href="#HelveticaNeue-74" transform="translate(53.699982 0)"/>
       <use xlink:href="#HelveticaNeue-61" transform="translate(85.199966 0)"/>
       <use xlink:href="#HelveticaNeue-6e" transform="translate(138.899963 0)"/>
       <use xlink:href="#HelveticaNeue-65" transform="translate(194.499954 0)"/>
       <use xlink:href="#HelveticaNeue-74" transform="translate(248.199951 0)"/>
      </g>
     </g>
    </g>
   </g>
   <g id="matplotlib.axis_4">
    <g id="ytick_9">
     <g id="line2d_21">
      <path d="M 323.380156 264.44 
L 563.660156 264.44 
" clip-path="url(#pb683826db3)" style="fill: none; stroke-dasharray: 0.8,1.32; stroke-dashoffset: 0; stroke: #b0b0b0; stroke-opacity: 0.4; stroke-width: 0.8"/>
     </g>
     <g id="line2d_22">
      <g>
       <use xlink:href="#m58a8da54f4" x="323.380156" y="264.44" style="stroke: #000000; stroke-width: 0.8"/>
      </g>
     </g>
     <g id="text_17">
      <!-- 0 -->
      <g transform="translate(311.376719 267.653281) scale(0.09 -0.09)">
       <use xlink:href="#HelveticaNeue-30"/>
      </g>
     </g>
    </g>
    <g id="ytick_10">
     <g id="line2d_23">
      <path d="M 323.380156 226.149747 
L 563.660156 226.149747 
" clip-path="url(#pb683826db3)" style="fill: none; stroke-dasharray: 0.8,1.32; stroke-dashoffset: 0; stroke: #b0b0b0; stroke-opacity: 0.4; stroke-width: 0.8"/>
     </g>
     <g id="line2d_24">
      <g>
       <use xlink:href="#m58a8da54f4" x="323.380156" y="226.149747" style="stroke: #000000; stroke-width: 0.8"/>
      </g>
     </g>
     <g id="text_18">
      <!-- 10 -->
      <g transform="translate(306.373281 229.363028) scale(0.09 -0.09)">
       <use xlink:href="#HelveticaNeue-31"/>
       <use xlink:href="#HelveticaNeue-30" transform="translate(55.599991 0)"/>
      </g>
     </g>
    </g>
    <g id="ytick_11">
     <g id="line2d_25">
      <path d="M 323.380156 187.859494 
L 563.660156 187.859494 
" clip-path="url(#pb683826db3)" style="fill: none; stroke-dasharray: 0.8,1.32; stroke-dashoffset: 0; stroke: #b0b0b0; stroke-opacity: 0.4; stroke-width: 0.8"/>
     </g>
     <g id="line2d_26">
      <g>
       <use xlink:href="#m58a8da54f4" x="323.380156" y="187.859494" style="stroke: #000000; stroke-width: 0.8"/>
      </g>
     </g>
     <g id="text_19">
      <!-- 20 -->
      <g transform="translate(306.373281 191.072775) scale(0.09 -0.09)">
       <use xlink:href="#HelveticaNeue-32"/>
       <use xlink:href="#HelveticaNeue-30" transform="translate(55.599991 0)"/>
      </g>
     </g>
    </g>
    <g id="ytick_12">
     <g id="line2d_27">
      <path d="M 323.380156 149.56924 
L 563.660156 149.56924 
" clip-path="url(#pb683826db3)" style="fill: none; stroke-dasharray: 0.8,1.32; stroke-dashoffset: 0; stroke: #b0b0b0; stroke-opacity: 0.4; stroke-width: 0.8"/>
     </g>
     <g id="line2d_28">
      <g>
       <use xlink:href="#m58a8da54f4" x="323.380156" y="149.56924" style="stroke: #000000; stroke-width: 0.8"/>
      </g>
     </g>
     <g id="text_20">
      <!-- 30 -->
      <g transform="translate(306.373281 152.782522) scale(0.09 -0.09)">
       <use xlink:href="#HelveticaNeue-33"/>
       <use xlink:href="#HelveticaNeue-30" transform="translate(55.599991 0)"/>
      </g>
     </g>
    </g>
    <g id="ytick_13">
     <g id="line2d_29">
      <path d="M 323.380156 111.278987 
L 563.660156 111.278987 
" clip-path="url(#pb683826db3)" style="fill: none; stroke-dasharray: 0.8,1.32; stroke-dashoffset: 0; stroke: #b0b0b0; stroke-opacity: 0.4; stroke-width: 0.8"/>
     </g>
     <g id="line2d_30">
      <g>
       <use xlink:href="#m58a8da54f4" x="323.380156" y="111.278987" style="stroke: #000000; stroke-width: 0.8"/>
      </g>
     </g>
     <g id="text_21">
      <!-- 40 -->
      <g transform="translate(306.373281 114.492268) scale(0.09 -0.09)">
       <use xlink:href="#HelveticaNeue-34"/>
       <use xlink:href="#HelveticaNeue-30" transform="translate(55.599991 0)"/>
      </g>
     </g>
    </g>
    <g id="text_22">
     <!-- ms / segment -->
     <g transform="translate(300.491719 201.756578) rotate(-90) scale(0.09 -0.09)">
      <defs>
       <path id="HelveticaNeue-2f" d="M 1779 4678 
L -109 -102 
L 352 -102 
L 2246 4678 
L 1779 4678 
z
" transform="scale(0.015625)"/>
      </defs>
      <use xlink:href="#HelveticaNeue-6d"/>
      <use xlink:href="#HelveticaNeue-73" transform="translate(85.299988 0)"/>
      <use xlink:href="#HelveticaNeue-20" transform="translate(135.299973 0)"/>
      <use xlink:href="#HelveticaNeue-2f" transform="translate(163.09996 0)"/>
      <use xlink:href="#HelveticaNeue-20" transform="translate(196.399948 0)"/>
      <use xlink:href="#HelveticaNeue-73" transform="translate(224.199936 0)"/>
      <use xlink:href="#HelveticaNeue-65" transform="translate(274.199921 0)"/>
      <use xlink:href="#HelveticaNeue-67" transform="translate(327.899918 0)"/>
      <use xlink:href="#HelveticaNeue-6d" transform="translate(385.299911 0)"/>
      <use xlink:href="#HelveticaNeue-65" transform="translate(470.599899 0)"/>
      <use xlink:href="#HelveticaNeue-6e" transform="translate(524.299896 0)"/>
      <use xlink:href="#HelveticaNeue-74" transform="translate(579.899887 0)"/>
     </g>
    </g>
   </g>
   <g id="patch_8">
    <path d="M 323.380156 264.44 
L 323.380156 84.048 
" style="fill: none; stroke: #000000; stroke-width: 0.8; stroke-linejoin: miter; stroke-linecap: square"/>
   </g>
   <g id="patch_9">
    <path d="M 323.380156 264.44 
L 563.660156 264.44 
" style="fill: none; stroke: #000000; stroke-width: 0.8; stroke-linejoin: miter; stroke-linecap: square"/>
   </g>
   <g id="patch_10">
    <path d="M 334.301974 264.44 
L 431.384803 264.44 
L 431.384803 240.712011 
L 334.301974 240.712011 
z
" clip-path="url(#pb683826db3)" style="fill: #7f8c8d; stroke: #ffffff; stroke-width: 0.8; stroke-linejoin: miter"/>
   </g>
   <g id="patch_11">
    <path d="M 455.65551 264.44 
L 552.738338 264.44 
L 552.738338 92.638095 
L 455.65551 92.638095 
z
" clip-path="url(#pb683826db3)" style="fill: #28cd41; stroke: #ffffff; stroke-width: 0.8; stroke-linejoin: miter"/>
   </g>
   <g id="text_23">
    <!-- 6 ms -->
    <g transform="translate(371.909014 236.712011) scale(0.1 -0.1)">
     <defs>
      <path id="HelveticaNeue-36" d="M 2650 3379 
L 3194 3379 
Q 3142 3942 2809 4240 
Q 2477 4538 1914 4538 
Q 1427 4538 1107 4333 
Q 787 4128 595 3789 
Q 403 3450 323 3011 
Q 243 2573 243 2106 
Q 243 1747 297 1363 
Q 352 979 518 659 
Q 685 339 992 134 
Q 1299 -70 1805 -70 
Q 2234 -70 2525 74 
Q 2816 218 2992 438 
Q 3168 659 3245 928 
Q 3322 1197 3322 1446 
Q 3322 1760 3226 2029 
Q 3130 2298 2954 2496 
Q 2778 2694 2518 2806 
Q 2259 2918 1933 2918 
Q 1562 2918 1277 2777 
Q 992 2637 800 2323 
L 787 2336 
Q 794 2598 838 2899 
Q 883 3200 1001 3459 
Q 1120 3718 1331 3888 
Q 1542 4058 1888 4058 
Q 2214 4058 2412 3872 
Q 2611 3686 2650 3379 
z
M 1830 2438 
Q 2061 2438 2233 2355 
Q 2406 2272 2521 2134 
Q 2637 1997 2691 1808 
Q 2746 1619 2746 1408 
Q 2746 1210 2685 1027 
Q 2624 845 2509 704 
Q 2394 563 2224 483 
Q 2054 403 1830 403 
Q 1606 403 1430 483 
Q 1254 563 1136 697 
Q 1018 832 954 1017 
Q 890 1203 890 1414 
Q 890 1626 950 1814 
Q 1011 2003 1132 2140 
Q 1254 2278 1427 2358 
Q 1600 2438 1830 2438 
z
" transform="scale(0.015625)"/>
     </defs>
     <use xlink:href="#HelveticaNeue-36"/>
     <use xlink:href="#HelveticaNeue-20" transform="translate(55.599991 0)"/>
     <use xlink:href="#HelveticaNeue-6d" transform="translate(83.399979 0)"/>
     <use xlink:href="#HelveticaNeue-73" transform="translate(168.699966 0)"/>
    </g>
   </g>
   <g id="text_24">
    <!-- 45 ms -->
    <g transform="translate(490.482861 88.638095) scale(0.1 -0.1)">
     <use xlink:href="#HelveticaNeue-34"/>
     <use xlink:href="#HelveticaNeue-35" transform="translate(55.599991 0)"/>
     <use xlink:href="#HelveticaNeue-20" transform="translate(111.199982 0)"/>
     <use xlink:href="#HelveticaNeue-6d" transform="translate(138.999969 0)"/>
     <use xlink:href="#HelveticaNeue-73" transform="translate(224.299957 0)"/>
    </g>
   </g>
   <g id="text_25">
    <!-- Per-call wall time on Apple Silicon -->
    <g transform="translate(323.380156 68.035891) scale(0.095 -0.095)">
     <defs>
      <path id="HelveticaNeue-50" d="M 1107 2381 
L 1107 4058 
L 2298 4058 
Q 2816 4058 3056 3843 
Q 3296 3629 3296 3219 
Q 3296 2810 3056 2592 
Q 2816 2374 2298 2381 
L 1107 2381 
z
M 499 4570 
L 499 0 
L 1107 0 
L 1107 1869 
L 2502 1869 
Q 3194 1862 3549 2220 
Q 3904 2579 3904 3219 
Q 3904 3859 3549 4214 
Q 3194 4570 2502 4570 
L 499 4570 
z
" transform="scale(0.015625)"/>
      <path id="HelveticaNeue-77" d="M 3686 0 
L 4742 3309 
L 4179 3309 
L 3437 602 
L 3424 602 
L 2733 3309 
L 2138 3309 
L 1472 602 
L 1459 602 
L 710 3309 
L 109 3309 
L 1171 0 
L 1760 0 
L 2426 2630 
L 2438 2630 
L 3110 0 
L 3686 0 
z
" transform="scale(0.015625)"/>
      <path id="HelveticaNeue-41" d="M 1286 1888 
L 2061 4019 
L 2074 4019 
L 2835 1888 
L 1286 1888 
z
M 1741 4570 
L -38 0 
L 582 0 
L 1094 1376 
L 3027 1376 
L 3526 0 
L 4198 0 
L 2413 4570 
L 1741 4570 
z
" transform="scale(0.015625)"/>
     </defs>
     <use xlink:href="#HelveticaNeue-50"/>
     <use xlink:href="#HelveticaNeue-65" transform="translate(64.799988 0)"/>
     <use xlink:href="#HelveticaNeue-72" transform="translate(118.499985 0)"/>
     <use xlink:href="#HelveticaNeue-2d" transform="translate(146.299973 0)"/>
     <use xlink:href="#HelveticaNeue-63" transform="translate(185.199966 0)"/>
     <use xlink:href="#HelveticaNeue-61" transform="translate(238.899963 0)"/>
     <use xlink:href="#HelveticaNeue-6c" transform="translate(292.59996 0)"/>
     <use xlink:href="#HelveticaNeue-6c" transform="translate(314.799957 0)"/>
     <use xlink:href="#HelveticaNeue-20" transform="translate(336.999954 0)"/>
     <use xlink:href="#HelveticaNeue-77" transform="translate(364.799942 0)"/>
     <use xlink:href="#HelveticaNeue-61" transform="translate(440.59993 0)"/>
     <use xlink:href="#HelveticaNeue-6c" transform="translate(494.299927 0)"/>
     <use xlink:href="#HelveticaNeue-6c" transform="translate(516.499924 0)"/>
     <use xlink:href="#HelveticaNeue-20" transform="translate(538.699921 0)"/>
     <use xlink:href="#HelveticaNeue-74" transform="translate(566.499908 0)"/>
     <use xlink:href="#HelveticaNeue-69" transform="translate(597.999893 0)"/>
     <use xlink:href="#HelveticaNeue-6d" transform="translate(620.19989 0)"/>
     <use xlink:href="#HelveticaNeue-65" transform="translate(705.499878 0)"/>
     <use xlink:href="#HelveticaNeue-20" transform="translate(759.199875 0)"/>
     <use xlink:href="#HelveticaNeue-6f" transform="translate(786.999863 0)"/>
     <use xlink:href="#HelveticaNeue-6e" transform="translate(844.399857 0)"/>
     <use xlink:href="#HelveticaNeue-20" transform="translate(899.999847 0)"/>
     <use xlink:href="#HelveticaNeue-41" transform="translate(927.799835 0)"/>
     <use xlink:href="#HelveticaNeue-70" transform="translate(992.599823 0)"/>
     <use xlink:href="#HelveticaNeue-70" transform="translate(1051.899811 0)"/>
     <use xlink:href="#HelveticaNeue-6c" transform="translate(1111.199799 0)"/>
     <use xlink:href="#HelveticaNeue-65" transform="translate(1133.399796 0)"/>
     <use xlink:href="#HelveticaNeue-20" transform="translate(1187.099792 0)"/>
     <use xlink:href="#HelveticaNeue-53" transform="translate(1214.89978 0)"/>
     <use xlink:href="#HelveticaNeue-69" transform="translate(1279.699768 0)"/>
     <use xlink:href="#HelveticaNeue-6c" transform="translate(1301.899765 0)"/>
     <use xlink:href="#HelveticaNeue-69" transform="translate(1324.099762 0)"/>
     <use xlink:href="#HelveticaNeue-63" transform="translate(1346.299759 0)"/>
     <use xlink:href="#HelveticaNeue-6f" transform="translate(1399.999756 0)"/>
     <use xlink:href="#HelveticaNeue-6e" transform="translate(1457.39975 0)"/>
    </g>
    <!-- lower is better — 45 ms still negligible in streaming -->
    <g transform="translate(323.380156 78.048) scale(0.095 -0.095)">
     <defs>
      <path id="HelveticaNeue-2014" d="M 832 2035 
L 832 1523 
L 5568 1523 
L 5568 2035 
L 832 2035 
z
" transform="scale(0.015625)"/>
     </defs>
     <use xlink:href="#HelveticaNeue-6c"/>
     <use xlink:href="#HelveticaNeue-6f" transform="translate(22.199997 0)"/>
     <use xlink:href="#HelveticaNeue-77" transform="translate(79.599991 0)"/>
     <use xlink:href="#HelveticaNeue-65" transform="translate(155.399979 0)"/>
     <use xlink:href="#HelveticaNeue-72" transform="translate(209.099976 0)"/>
     <use xlink:href="#HelveticaNeue-20" transform="translate(242.399963 0)"/>
     <use xlink:href="#HelveticaNeue-69" transform="translate(270.199951 0)"/>
     <use xlink:href="#HelveticaNeue-73" transform="translate(292.399948 0)"/>
     <use xlink:href="#HelveticaNeue-20" transform="translate(342.399933 0)"/>
     <use xlink:href="#HelveticaNeue-62" transform="translate(370.199921 0)"/>
     <use xlink:href="#HelveticaNeue-65" transform="translate(429.499908 0)"/>
     <use xlink:href="#HelveticaNeue-74" transform="translate(483.199905 0)"/>
     <use xlink:href="#HelveticaNeue-74" transform="translate(514.69989 0)"/>
     <use xlink:href="#HelveticaNeue-65" transform="translate(546.199875 0)"/>
     <use xlink:href="#HelveticaNeue-72" transform="translate(599.899872 0)"/>
     <use xlink:href="#HelveticaNeue-20" transform="translate(633.19986 0)"/>
     <use xlink:href="#HelveticaNeue-2014" transform="translate(660.999847 0)"/>
     <use xlink:href="#HelveticaNeue-20" transform="translate(760.999832 0)"/>
     <use xlink:href="#HelveticaNeue-34" transform="translate(788.79982 0)"/>
     <use xlink:href="#HelveticaNeue-35" transform="translate(844.399811 0)"/>
     <use xlink:href="#HelveticaNeue-20" transform="translate(899.999802 0)"/>
     <use xlink:href="#HelveticaNeue-6d" transform="translate(927.799789 0)"/>
     <use xlink:href="#HelveticaNeue-73" transform="translate(1013.099777 0)"/>
     <use xlink:href="#HelveticaNeue-20" transform="translate(1063.099762 0)"/>
     <use xlink:href="#HelveticaNeue-73" transform="translate(1090.89975 0)"/>
     <use xlink:href="#HelveticaNeue-74" transform="translate(1140.899734 0)"/>
     <use xlink:href="#HelveticaNeue-69" transform="translate(1172.399719 0)"/>
     <use xlink:href="#HelveticaNeue-6c" transform="translate(1194.599716 0)"/>
     <use xlink:href="#HelveticaNeue-6c" transform="translate(1216.799713 0)"/>
     <use xlink:href="#HelveticaNeue-20" transform="translate(1238.99971 0)"/>
     <use xlink:href="#HelveticaNeue-6e" transform="translate(1266.799698 0)"/>
     <use xlink:href="#HelveticaNeue-65" transform="translate(1322.399689 0)"/>
     <use xlink:href="#HelveticaNeue-67" transform="translate(1376.099686 0)"/>
     <use xlink:href="#HelveticaNeue-6c" transform="translate(1433.49968 0)"/>
     <use xlink:href="#HelveticaNeue-69" transform="translate(1455.699677 0)"/>
     <use xlink:href="#HelveticaNeue-67" transform="translate(1477.899673 0)"/>
     <use xlink:href="#HelveticaNeue-69" transform="translate(1535.299667 0)"/>
     <use xlink:href="#HelveticaNeue-62" transform="translate(1557.499664 0)"/>
     <use xlink:href="#HelveticaNeue-6c" transform="translate(1616.799652 0)"/>
     <use xlink:href="#HelveticaNeue-65" transform="translate(1638.999649 0)"/>
     <use xlink:href="#HelveticaNeue-20" transform="translate(1692.699646 0)"/>
     <use xlink:href="#HelveticaNeue-69" transform="translate(1720.499634 0)"/>
     <use xlink:href="#HelveticaNeue-6e" transform="translate(1742.699631 0)"/>
     <use xlink:href="#HelveticaNeue-20" transform="translate(1798.299622 0)"/>
     <use xlink:href="#HelveticaNeue-73" transform="translate(1826.099609 0)"/>
     <use xlink:href="#HelveticaNeue-74" transform="translate(1876.099594 0)"/>
     <use xlink:href="#HelveticaNeue-72" transform="translate(1907.599579 0)"/>
     <use xlink:href="#HelveticaNeue-65" transform="translate(1939.149567 0)"/>
     <use xlink:href="#HelveticaNeue-61" transform="translate(1992.849564 0)"/>
     <use xlink:href="#HelveticaNeue-6d" transform="translate(2046.549561 0)"/>
     <use xlink:href="#HelveticaNeue-69" transform="translate(2131.849548 0)"/>
     <use xlink:href="#HelveticaNeue-6e" transform="translate(2154.049545 0)"/>
     <use xlink:href="#HelveticaNeue-67" transform="translate(2209.649536 0)"/>
    </g>
   </g>
  </g>
  <g id="text_26">
   <!-- Speaker embedding backend — TitaNet separates 76 % better than pyannote -->
   <g transform="translate(110.886406 14.509375) scale(0.1 -0.1)">
    <defs>
     <path id="HelveticaNeue-6b" d="M 442 4570 
L 442 0 
L 986 0 
L 986 1254 
L 1498 1728 
L 2630 0 
L 3322 0 
L 1914 2106 
L 3226 3309 
L 2496 3309 
L 986 1862 
L 986 4570 
L 442 4570 
z
" transform="scale(0.015625)"/>
     <path id="HelveticaNeue-64" d="M 806 1626 
Q 806 1869 857 2099 
Q 909 2330 1024 2509 
Q 1139 2688 1331 2797 
Q 1523 2906 1798 2906 
Q 2080 2906 2278 2800 
Q 2477 2694 2601 2521 
Q 2726 2349 2784 2121 
Q 2842 1894 2842 1651 
Q 2842 1421 2787 1197 
Q 2733 973 2611 797 
Q 2490 621 2298 512 
Q 2106 403 1830 403 
Q 1568 403 1373 505 
Q 1178 608 1053 781 
Q 928 954 867 1174 
Q 806 1395 806 1626 
z
M 3366 0 
L 3366 4570 
L 2822 4570 
L 2822 2867 
L 2810 2867 
Q 2720 3014 2589 3113 
Q 2458 3213 2310 3273 
Q 2163 3334 2016 3360 
Q 1869 3386 1741 3386 
Q 1363 3386 1078 3248 
Q 794 3110 605 2876 
Q 416 2643 323 2329 
Q 230 2016 230 1664 
Q 230 1312 326 998 
Q 422 685 611 448 
Q 800 211 1085 70 
Q 1370 -70 1754 -70 
Q 2099 -70 2387 51 
Q 2675 173 2810 448 
L 2822 448 
L 2822 0 
L 3366 0 
z
" transform="scale(0.015625)"/>
     <path id="HelveticaNeue-54" d="M 1536 4058 
L 1536 0 
L 2144 0 
L 2144 4058 
L 3667 4058 
L 3667 4570 
L 13 4570 
L 13 4058 
L 1536 4058 
z
" transform="scale(0.015625)"/>
     <path id="HelveticaNeue-4e" d="M 493 4570 
L 493 0 
L 1069 0 
L 1069 3667 
L 1082 3667 
L 3469 0 
L 4134 0 
L 4134 4570 
L 3558 4570 
L 3558 864 
L 3546 864 
L 1139 4570 
L 493 4570 
z
" transform="scale(0.015625)"/>
     <path id="HelveticaNeue-37" d="M 3258 3994 
L 3258 4461 
L 320 4461 
L 320 3949 
L 2701 3949 
Q 2342 3571 2032 3123 
Q 1722 2675 1485 2172 
Q 1248 1670 1097 1123 
Q 947 576 909 0 
L 1517 0 
Q 1549 531 1696 1094 
Q 1843 1658 2076 2189 
Q 2310 2720 2611 3187 
Q 2912 3654 3258 3994 
z
" transform="scale(0.015625)"/>
     <path id="HelveticaNeue-25" d="M 1069 3251 
Q 1069 3398 1088 3561 
Q 1107 3725 1168 3862 
Q 1229 4000 1337 4093 
Q 1446 4186 1626 4186 
Q 1811 4186 1916 4093 
Q 2022 4000 2080 3862 
Q 2138 3725 2154 3561 
Q 2170 3398 2170 3258 
Q 2170 3110 2150 2944 
Q 2131 2778 2070 2640 
Q 2010 2502 1901 2412 
Q 1792 2323 1606 2323 
Q 1427 2323 1321 2416 
Q 1216 2509 1158 2646 
Q 1101 2784 1085 2947 
Q 1069 3110 1069 3251 
z
M 589 3238 
Q 589 2976 643 2745 
Q 698 2515 819 2342 
Q 941 2170 1139 2070 
Q 1338 1971 1626 1971 
Q 1907 1971 2099 2080 
Q 2291 2189 2416 2365 
Q 2541 2541 2595 2774 
Q 2650 3008 2650 3258 
Q 2650 3520 2602 3753 
Q 2554 3987 2435 4160 
Q 2317 4333 2121 4435 
Q 1926 4538 1626 4538 
Q 1331 4538 1132 4432 
Q 934 4326 812 4147 
Q 691 3968 640 3734 
Q 589 3501 589 3238 
z
M 4230 1203 
Q 4230 1350 4249 1513 
Q 4269 1677 4329 1814 
Q 4390 1952 4499 2045 
Q 4608 2138 4787 2138 
Q 4973 2138 5078 2045 
Q 5184 1952 5241 1814 
Q 5299 1677 5315 1513 
Q 5331 1350 5331 1210 
Q 5331 1062 5312 896 
Q 5293 730 5232 592 
Q 5171 454 5062 364 
Q 4954 275 4768 275 
Q 4589 275 4483 368 
Q 4378 461 4320 598 
Q 4262 736 4246 899 
Q 4230 1062 4230 1203 
z
M 3750 1190 
Q 3750 928 3804 697 
Q 3859 467 3980 297 
Q 4102 128 4300 29 
Q 4499 -70 4787 -70 
Q 5069 -70 5261 35 
Q 5453 141 5577 317 
Q 5702 493 5756 726 
Q 5811 960 5811 1210 
Q 5811 1472 5763 1705 
Q 5715 1939 5596 2112 
Q 5478 2285 5283 2387 
Q 5088 2490 4787 2490 
Q 4493 2490 4294 2384 
Q 4096 2278 3974 2099 
Q 3853 1920 3801 1686 
Q 3750 1453 3750 1190 
z
M 4646 4621 
L 1203 -134 
L 1754 -134 
L 5190 4621 
L 4646 4621 
z
" transform="scale(0.015625)"/>
    </defs>
    <use xlink:href="#HelveticaNeue-53"/>
    <use xlink:href="#HelveticaNeue-70" transform="translate(64.799988 0)"/>
    <use xlink:href="#HelveticaNeue-65" transform="translate(124.099976 0)"/>
    <use xlink:href="#HelveticaNeue-61" transform="translate(177.799973 0)"/>
    <use xlink:href="#HelveticaNeue-6b" transform="translate(231.499969 0)"/>
    <use xlink:href="#HelveticaNeue-65" transform="translate(283.399963 0)"/>
    <use xlink:href="#HelveticaNeue-72" transform="translate(337.09996 0)"/>
    <use xlink:href="#HelveticaNeue-20" transform="translate(370.399948 0)"/>
    <use xlink:href="#HelveticaNeue-65" transform="translate(398.199936 0)"/>
    <use xlink:href="#HelveticaNeue-6d" transform="translate(451.899933 0)"/>
    <use xlink:href="#HelveticaNeue-62" transform="translate(537.199921 0)"/>
    <use xlink:href="#HelveticaNeue-65" transform="translate(596.499908 0)"/>
    <use xlink:href="#HelveticaNeue-64" transform="translate(650.199905 0)"/>
    <use xlink:href="#HelveticaNeue-64" transform="translate(709.499893 0)"/>
    <use xlink:href="#HelveticaNeue-69" transform="translate(768.799881 0)"/>
    <use xlink:href="#HelveticaNeue-6e" transform="translate(790.999878 0)"/>
    <use xlink:href="#HelveticaNeue-67" transform="translate(846.599869 0)"/>
    <use xlink:href="#HelveticaNeue-20" transform="translate(903.999863 0)"/>
    <use xlink:href="#HelveticaNeue-62" transform="translate(931.79985 0)"/>
    <use xlink:href="#HelveticaNeue-61" transform="translate(991.099838 0)"/>
    <use xlink:href="#HelveticaNeue-63" transform="translate(1044.799835 0)"/>
    <use xlink:href="#HelveticaNeue-6b" transform="translate(1098.499832 0)"/>
    <use xlink:href="#HelveticaNeue-65" transform="translate(1150.399826 0)"/>
    <use xlink:href="#HelveticaNeue-6e" transform="translate(1204.099823 0)"/>
    <use xlink:href="#HelveticaNeue-64" transform="translate(1259.699814 0)"/>
    <use xlink:href="#HelveticaNeue-20" transform="translate(1318.999802 0)"/>
    <use xlink:href="#HelveticaNeue-2014" transform="translate(1346.799789 0)"/>
    <use xlink:href="#HelveticaNeue-20" transform="translate(1446.799774 0)"/>
    <use xlink:href="#HelveticaNeue-54" transform="translate(1474.599762 0)"/>
    <use xlink:href="#HelveticaNeue-69" transform="translate(1531.999756 0)"/>
    <use xlink:href="#HelveticaNeue-74" transform="translate(1554.199753 0)"/>
    <use xlink:href="#HelveticaNeue-61" transform="translate(1585.699738 0)"/>
    <use xlink:href="#HelveticaNeue-4e" transform="translate(1639.399734 0)"/>
    <use xlink:href="#HelveticaNeue-65" transform="translate(1711.599716 0)"/>
    <use xlink:href="#HelveticaNeue-74" transform="translate(1765.299713 0)"/>
    <use xlink:href="#HelveticaNeue-20" transform="translate(1796.799698 0)"/>
    <use xlink:href="#HelveticaNeue-73" transform="translate(1824.599686 0)"/>
    <use xlink:href="#HelveticaNeue-65" transform="translate(1874.59967 0)"/>
    <use xlink:href="#HelveticaNeue-70" transform="translate(1928.299667 0)"/>
    <use xlink:href="#HelveticaNeue-61" transform="translate(1987.599655 0)"/>
    <use xlink:href="#HelveticaNeue-72" transform="translate(2041.299652 0)"/>
    <use xlink:href="#HelveticaNeue-61" transform="translate(2074.59964 0)"/>
    <use xlink:href="#HelveticaNeue-74" transform="translate(2128.299637 0)"/>
    <use xlink:href="#HelveticaNeue-65" transform="translate(2159.799622 0)"/>
    <use xlink:href="#HelveticaNeue-73" transform="translate(2213.499619 0)"/>
    <use xlink:href="#HelveticaNeue-20" transform="translate(2263.499603 0)"/>
    <use xlink:href="#HelveticaNeue-37" transform="translate(2291.299591 0)"/>
    <use xlink:href="#HelveticaNeue-36" transform="translate(2346.899582 0)"/>
    <use xlink:href="#HelveticaNeue-20" transform="translate(2402.499573 0)"/>
    <use xlink:href="#HelveticaNeue-25" transform="translate(2430.299561 0)"/>
    <use xlink:href="#HelveticaNeue-20" transform="translate(2530.299545 0)"/>
    <use xlink:href="#HelveticaNeue-62" transform="translate(2558.099533 0)"/>
    <use xlink:href="#HelveticaNeue-65" transform="translate(2617.399521 0)"/>
    <use xlink:href="#HelveticaNeue-74" transform="translate(2671.099518 0)"/>
    <use xlink:href="#HelveticaNeue-74" transform="translate(2702.599503 0)"/>
    <use xlink:href="#HelveticaNeue-65" transform="translate(2734.099487 0)"/>
    <use xlink:href="#HelveticaNeue-72" transform="translate(2787.799484 0)"/>
    <use xlink:href="#HelveticaNeue-20" transform="translate(2821.099472 0)"/>
    <use xlink:href="#HelveticaNeue-74" transform="translate(2848.89946 0)"/>
    <use xlink:href="#HelveticaNeue-68" transform="translate(2880.399445 0)"/>
    <use xlink:href="#HelveticaNeue-61" transform="translate(2935.999435 0)"/>
    <use xlink:href="#HelveticaNeue-6e" transform="translate(2989.699432 0)"/>
    <use xlink:href="#HelveticaNeue-20" transform="translate(3045.299423 0)"/>
    <use xlink:href="#HelveticaNeue-70" transform="translate(3073.099411 0)"/>
    <use xlink:href="#HelveticaNeue-79" transform="translate(3132.399399 0)"/>
    <use xlink:href="#HelveticaNeue-61" transform="translate(3182.399384 0)"/>
    <use xlink:href="#HelveticaNeue-6e" transform="translate(3236.09938 0)"/>
    <use xlink:href="#HelveticaNeue-6e" transform="translate(3291.699371 0)"/>
    <use xlink:href="#HelveticaNeue-6f" transform="translate(3347.299362 0)"/>
    <use xlink:href="#HelveticaNeue-74" transform="translate(3404.699356 0)"/>
    <use xlink:href="#HelveticaNeue-65" transform="translate(3436.199341 0)"/>
   </g>
   <!-- on two team meetings (kickoff · 16 min, design meeting · 19 min ; study : studies/diar_embedding_backend.py, 2026-06-30) -->
   <g transform="translate(9.4325 25.37125) scale(0.1 -0.1)">
    <defs>
     <path id="HelveticaNeue-66" d="M 634 2829 
L 634 0 
L 1178 0 
L 1178 2829 
L 1818 2829 
L 1818 3309 
L 1178 3309 
L 1178 3770 
Q 1178 3987 1286 4064 
Q 1395 4141 1594 4141 
Q 1664 4141 1747 4131 
Q 1830 4122 1901 4096 
L 1901 4570 
Q 1824 4595 1725 4608 
Q 1626 4621 1549 4621 
Q 1101 4621 867 4413 
Q 634 4205 634 3802 
L 634 3309 
L 77 3309 
L 77 2829 
L 634 2829 
z
" transform="scale(0.015625)"/>
     <path id="HelveticaNeue-b7" d="M 480 1990 
Q 480 1824 605 1702 
Q 730 1581 896 1581 
Q 1056 1581 1177 1709 
Q 1299 1837 1299 1990 
Q 1299 2157 1177 2278 
Q 1056 2400 890 2400 
Q 723 2400 601 2278 
Q 480 2157 480 1990 
z
" transform="scale(0.015625)"/>
     <path id="HelveticaNeue-2c" d="M 531 710 
L 531 0 
L 909 0 
Q 915 -77 899 -166 
Q 883 -256 838 -342 
Q 794 -429 720 -502 
Q 646 -576 538 -614 
L 538 -934 
Q 909 -826 1075 -563 
Q 1242 -301 1242 64 
L 1242 710 
L 531 710 
z
" transform="scale(0.015625)"/>
     <path id="HelveticaNeue-39" d="M 858 1094 
L 314 1094 
Q 365 506 742 218 
Q 1120 -70 1690 -70 
Q 2515 -70 2889 560 
Q 3264 1190 3264 2368 
Q 3264 3014 3139 3433 
Q 3014 3853 2803 4096 
Q 2592 4339 2310 4438 
Q 2029 4538 1709 4538 
Q 1382 4538 1107 4429 
Q 832 4320 633 4125 
Q 435 3930 326 3658 
Q 218 3386 218 3059 
Q 218 2726 310 2444 
Q 403 2163 585 1964 
Q 768 1766 1037 1654 
Q 1306 1542 1651 1542 
Q 1984 1542 2265 1712 
Q 2547 1882 2701 2170 
L 2714 2157 
Q 2688 1267 2438 835 
Q 2189 403 1690 403 
Q 1363 403 1126 582 
Q 890 762 858 1094 
z
M 2618 3021 
Q 2618 2822 2554 2640 
Q 2490 2458 2368 2320 
Q 2246 2182 2073 2102 
Q 1901 2022 1690 2022 
Q 1491 2022 1328 2102 
Q 1165 2182 1046 2316 
Q 928 2451 861 2624 
Q 794 2797 794 2982 
Q 794 3194 842 3386 
Q 890 3578 995 3728 
Q 1101 3878 1270 3968 
Q 1440 4058 1683 4058 
Q 1914 4058 2086 3974 
Q 2259 3891 2377 3747 
Q 2496 3603 2557 3417 
Q 2618 3232 2618 3021 
z
" transform="scale(0.015625)"/>
     <path id="HelveticaNeue-3b" d="M 1242 2598 
L 1242 3309 
L 531 3309 
L 531 2598 
L 1242 2598 
z
M 531 710 
L 531 0 
L 909 0 
Q 915 -77 899 -166 
Q 883 -256 838 -342 
Q 794 -429 720 -502 
Q 646 -576 538 -614 
L 538 -934 
Q 909 -826 1078 -563 
Q 1248 -301 1242 64 
L 1242 710 
L 531 710 
z
" transform="scale(0.015625)"/>
     <path id="HelveticaNeue-3a" d="M 1242 2598 
L 1242 3309 
L 531 3309 
L 531 2598 
L 1242 2598 
z
M 531 710 
L 531 0 
L 1242 0 
L 1242 710 
L 531 710 
z
" transform="scale(0.015625)"/>
     <path id="HelveticaNeue-5f" d="M 0 -474 
L 0 -794 
L 3200 -794 
L 3200 -474 
L 0 -474 
z
" transform="scale(0.015625)"/>
    </defs>
    <use xlink:href="#HelveticaNeue-6f"/>
    <use xlink:href="#HelveticaNeue-6e" transform="translate(57.399994 0)"/>
    <use xlink:href="#HelveticaNeue-20" transform="translate(112.999985 0)"/>
    <use xlink:href="#HelveticaNeue-74" transform="translate(140.799973 0)"/>
    <use xlink:href="#HelveticaNeue-77" transform="translate(172.299957 0)"/>
    <use xlink:href="#HelveticaNeue-6f" transform="translate(248.099945 0)"/>
    <use xlink:href="#HelveticaNeue-20" transform="translate(305.499939 0)"/>
    <use xlink:href="#HelveticaNeue-74" transform="translate(333.299927 0)"/>
    <use xlink:href="#HelveticaNeue-65" transform="translate(364.799911 0)"/>
    <use xlink:href="#HelveticaNeue-61" transform="translate(418.499908 0)"/>
    <use xlink:href="#HelveticaNeue-6d" transform="translate(472.199905 0)"/>
    <use xlink:href="#HelveticaNeue-20" transform="translate(557.499893 0)"/>
    <use xlink:href="#HelveticaNeue-6d" transform="translate(585.299881 0)"/>
    <use xlink:href="#HelveticaNeue-65" transform="translate(670.599869 0)"/>
    <use xlink:href="#HelveticaNeue-65" transform="translate(724.299866 0)"/>
    <use xlink:href="#HelveticaNeue-74" transform="translate(777.999863 0)"/>
    <use xlink:href="#HelveticaNeue-69" transform="translate(809.499847 0)"/>
    <use xlink:href="#HelveticaNeue-6e" transform="translate(831.699844 0)"/>
    <use xlink:href="#HelveticaNeue-67" transform="translate(887.299835 0)"/>
    <use xlink:href="#HelveticaNeue-73" transform="translate(944.699829 0)"/>
    <use xlink:href="#HelveticaNeue-20" transform="translate(994.699814 0)"/>
    <use xlink:href="#HelveticaNeue-28" transform="translate(1022.499802 0)"/>
    <use xlink:href="#HelveticaNeue-6b" transform="translate(1048.399796 0)"/>
    <use xlink:href="#HelveticaNeue-69" transform="translate(1100.299789 0)"/>
    <use xlink:href="#HelveticaNeue-63" transform="translate(1122.499786 0)"/>
    <use xlink:href="#HelveticaNeue-6b" transform="translate(1176.199783 0)"/>
    <use xlink:href="#HelveticaNeue-6f" transform="translate(1228.099777 0)"/>
    <use xlink:href="#HelveticaNeue-66" transform="translate(1285.499771 0)"/>
    <use xlink:href="#HelveticaNeue-66" transform="translate(1313.349762 0)"/>
    <use xlink:href="#HelveticaNeue-20" transform="translate(1342.949753 0)"/>
    <use xlink:href="#HelveticaNeue-b7" transform="translate(1370.749741 0)"/>
    <use xlink:href="#HelveticaNeue-20" transform="translate(1398.549728 0)"/>
    <use xlink:href="#HelveticaNeue-31" transform="translate(1426.349716 0)"/>
    <use xlink:href="#HelveticaNeue-36" transform="translate(1481.949707 0)"/>
    <use xlink:href="#HelveticaNeue-20" transform="translate(1537.549698 0)"/>
    <use xlink:href="#HelveticaNeue-6d" transform="translate(1565.349686 0)"/>
    <use xlink:href="#HelveticaNeue-69" transform="translate(1650.649673 0)"/>
    <use xlink:href="#HelveticaNeue-6e" transform="translate(1672.84967 0)"/>
    <use xlink:href="#HelveticaNeue-2c" transform="translate(1728.449661 0)"/>
    <use xlink:href="#HelveticaNeue-20" transform="translate(1756.249649 0)"/>
    <use xlink:href="#HelveticaNeue-64" transform="translate(1784.049637 0)"/>
    <use xlink:href="#HelveticaNeue-65" transform="translate(1843.349625 0)"/>
    <use xlink:href="#HelveticaNeue-73" transform="translate(1897.049622 0)"/>
    <use xlink:href="#HelveticaNeue-69" transform="translate(1947.049606 0)"/>
    <use xlink:href="#HelveticaNeue-67" transform="translate(1969.249603 0)"/>
    <use xlink:href="#HelveticaNeue-6e" transform="translate(2026.649597 0)"/>
    <use xlink:href="#HelveticaNeue-20" transform="translate(2082.249588 0)"/>
    <use xlink:href="#HelveticaNeue-6d" transform="translate(2110.049576 0)"/>
    <use xlink:href="#HelveticaNeue-65" transform="translate(2195.349564 0)"/>
    <use xlink:href="#HelveticaNeue-65" transform="translate(2249.049561 0)"/>
    <use xlink:href="#HelveticaNeue-74" transform="translate(2302.749557 0)"/>
    <use xlink:href="#HelveticaNeue-69" transform="translate(2334.249542 0)"/>
    <use xlink:href="#HelveticaNeue-6e" transform="translate(2356.449539 0)"/>
    <use xlink:href="#HelveticaNeue-67" transform="translate(2412.04953 0)"/>
    <use xlink:href="#HelveticaNeue-20" transform="translate(2469.449524 0)"/>
    <use xlink:href="#HelveticaNeue-b7" transform="translate(2497.249512 0)"/>
    <use xlink:href="#HelveticaNeue-20" transform="translate(2525.0495 0)"/>
    <use xlink:href="#HelveticaNeue-31" transform="translate(2552.849487 0)"/>
    <use xlink:href="#HelveticaNeue-39" transform="translate(2608.449478 0)"/>
    <use xlink:href="#HelveticaNeue-20" transform="translate(2664.049469 0)"/>
    <use xlink:href="#HelveticaNeue-6d" transform="translate(2691.849457 0)"/>
    <use xlink:href="#HelveticaNeue-69" transform="translate(2777.149445 0)"/>
    <use xlink:href="#HelveticaNeue-6e" transform="translate(2799.349442 0)"/>
    <use xlink:href="#HelveticaNeue-20" transform="translate(2854.949432 0)"/>
    <use xlink:href="#HelveticaNeue-3b" transform="translate(2882.74942 0)"/>
    <use xlink:href="#HelveticaNeue-20" transform="translate(2910.549408 0)"/>
    <use xlink:href="#HelveticaNeue-73" transform="translate(2938.349396 0)"/>
    <use xlink:href="#HelveticaNeue-74" transform="translate(2988.34938 0)"/>
    <use xlink:href="#HelveticaNeue-75" transform="translate(3019.849365 0)"/>
    <use xlink:href="#HelveticaNeue-64" transform="translate(3075.449356 0)"/>
    <use xlink:href="#HelveticaNeue-79" transform="translate(3134.749344 0)"/>
    <use xlink:href="#HelveticaNeue-20" transform="translate(3184.749329 0)"/>
    <use xlink:href="#HelveticaNeue-3a" transform="translate(3212.549316 0)"/>
    <use xlink:href="#HelveticaNeue-20" transform="translate(3240.349304 0)"/>
    <use xlink:href="#HelveticaNeue-73" transform="translate(3268.149292 0)"/>
    <use xlink:href="#HelveticaNeue-74" transform="translate(3318.149277 0)"/>
    <use xlink:href="#HelveticaNeue-75" transform="translate(3349.649261 0)"/>
    <use xlink:href="#HelveticaNeue-64" transform="translate(3405.249252 0)"/>
    <use xlink:href="#HelveticaNeue-69" transform="translate(3464.54924 0)"/>
    <use xlink:href="#HelveticaNeue-65" transform="translate(3486.749237 0)"/>
    <use xlink:href="#HelveticaNeue-73" transform="translate(3540.449234 0)"/>
    <use xlink:href="#HelveticaNeue-2f" transform="translate(3590.449219 0)"/>
    <use xlink:href="#HelveticaNeue-64" transform="translate(3623.749207 0)"/>
    <use xlink:href="#HelveticaNeue-69" transform="translate(3683.049194 0)"/>
    <use xlink:href="#HelveticaNeue-61" transform="translate(3705.249191 0)"/>
    <use xlink:href="#HelveticaNeue-72" transform="translate(3758.949188 0)"/>
    <use xlink:href="#HelveticaNeue-5f" transform="translate(3792.249176 0)"/>
    <use xlink:href="#HelveticaNeue-65" transform="translate(3842.249161 0)"/>
    <use xlink:href="#HelveticaNeue-6d" transform="translate(3895.949158 0)"/>
    <use xlink:href="#HelveticaNeue-62" transform="translate(3981.249146 0)"/>
    <use xlink:href="#HelveticaNeue-65" transform="translate(4040.549133 0)"/>
    <use xlink:href="#HelveticaNeue-64" transform="translate(4094.24913 0)"/>
    <use xlink:href="#HelveticaNeue-64" transform="translate(4153.549118 0)"/>
    <use xlink:href="#HelveticaNeue-69" transform="translate(4212.849106 0)"/>
    <use xlink:href="#HelveticaNeue-6e" transform="translate(4235.049103 0)"/>
    <use xlink:href="#HelveticaNeue-67" transform="translate(4290.649094 0)"/>
    <use xlink:href="#HelveticaNeue-5f" transform="translate(4348.049088 0)"/>
    <use xlink:href="#HelveticaNeue-62" transform="translate(4398.049072 0)"/>
    <use xlink:href="#HelveticaNeue-61" transform="translate(4457.34906 0)"/>
    <use xlink:href="#HelveticaNeue-63" transform="translate(4511.049057 0)"/>
    <use xlink:href="#HelveticaNeue-6b" transform="translate(4564.749054 0)"/>
    <use xlink:href="#HelveticaNeue-65" transform="translate(4616.649048 0)"/>
    <use xlink:href="#HelveticaNeue-6e" transform="translate(4670.349045 0)"/>
    <use xlink:href="#HelveticaNeue-64" transform="translate(4725.949036 0)"/>
    <use xlink:href="#HelveticaNeue-2e" transform="translate(4785.249023 0)"/>
    <use xlink:href="#HelveticaNeue-70" transform="translate(4813.049011 0)"/>
    <use xlink:href="#HelveticaNeue-79" transform="translate(4872.348999 0)"/>
    <use xlink:href="#HelveticaNeue-2c" transform="translate(4914.973984 0)"/>
    <use xlink:href="#HelveticaNeue-20" transform="translate(4942.773972 0)"/>
    <use xlink:href="#HelveticaNeue-32" transform="translate(4970.573959 0)"/>
    <use xlink:href="#HelveticaNeue-30" transform="translate(5026.17395 0)"/>
    <use xlink:href="#HelveticaNeue-32" transform="translate(5081.773941 0)"/>
    <use xlink:href="#HelveticaNeue-36" transform="translate(5137.373932 0)"/>
    <use xlink:href="#HelveticaNeue-2d" transform="translate(5192.973923 0)"/>
    <use xlink:href="#HelveticaNeue-30" transform="translate(5231.873917 0)"/>
    <use xlink:href="#HelveticaNeue-36" transform="translate(5287.473907 0)"/>
    <use xlink:href="#HelveticaNeue-2d" transform="translate(5343.073898 0)"/>
    <use xlink:href="#HelveticaNeue-33" transform="translate(5381.973892 0)"/>
    <use xlink:href="#HelveticaNeue-30" transform="translate(5437.573883 0)"/>
    <use xlink:href="#HelveticaNeue-29" transform="translate(5493.173874 0)"/>
   </g>
  </g>
 </g>
 <defs>
  <clipPath id="pb77cb07b35">
   <rect x="44.020156" y="84.048" width="240.28" height="180.392"/>
  </clipPath>
  <clipPath id="pb683826db3">
   <rect x="323.380156" y="84.048" width="240.28" height="180.392"/>
  </clipPath>
 </defs>
</svg>
